<svg xmlns="http://www.w3.org/2000/svg" width="1280" height="720" viewBox="0 0 1280 720">
<defs>
    <radialGradient id="bgGrad" cx="50%" cy="50%" r="60%">
      <stop offset="0%" stop-color="#2A1200"/>
      <stop offset="100%" stop-color="#1A0A00"/>
    </radialGradient>
    <radialGradient id="glowGrad" cx="50%" cy="50%" r="50%">
      <stop offset="0%" stop-color="#C9A84C" stop-opacity="0.050"/>
      <stop offset="100%" stop-color="#C9A84C" stop-opacity="0"/>
    </radialGradient>
    <radialGradient id="centerGem" cx="50%" cy="50%" r="50%">
      <stop offset="0%" stop-color="#FFE8A0"/>
      <stop offset="40%" stop-color="#C9A84C"/>
      <stop offset="100%" stop-color="#8B6914"/>
    </radialGradient>
    <radialGradient id="petalGrad" cx="50%" cy="30%" r="70%">
      <stop offset="0%" stop-color="#E8C96A"/>
      <stop offset="60%" stop-color="#C9A84C"/>
      <stop offset="100%" stop-color="#8B6914"/>
    </radialGradient>
    <filter id="glow" x="-50%" y="-50%" width="200%" height="200%">
      <feGaussianBlur stdDeviation="1.58" result="coloredBlur"/>
      <feMerge><feMergeNode in="coloredBlur"/><feMergeNode in="SourceGraphic"/></feMerge>
    </filter>
    <filter id="softGlow" x="-30%" y="-30%" width="160%" height="160%">
      <feGaussianBlur stdDeviation="3" result="coloredBlur"/>
      <feMerge><feMergeNode in="coloredBlur"/><feMergeNode in="SourceGraphic"/></feMerge>
    </filter>
    <linearGradient id="plateGrad" x1="0%" y1="0%" x2="100%" y2="100%">
      <stop offset="0%" stop-color="#E8C96A"/>
      <stop offset="50%" stop-color="#C9A84C"/>
      <stop offset="100%" stop-color="#8B6914"/>
    </linearGradient>
  </defs>
<rect width="1280" height="720" fill="url(#bgGrad)"/>
<ellipse cx="640" cy="360" rx="177.82" ry="106.69" fill="url(#glowGrad)"/>
<circle cx="438.82" cy="237.57" r="2.51" fill="#C9A84C" opacity="0.695"/><circle cx="833.39" cy="382.06" r="1.92" fill="#C9A84C" opacity="0.753"/><circle cx="663.81" cy="490.01" r="0.63" fill="#C9A84C" opacity="0.797"/><circle cx="424.78" cy="382.61" r="0.53" fill="#C9A84C" opacity="0.823"/><circle cx="813.59" cy="237.76" r="1.77" fill="#C9A84C" opacity="0.832"/><circle cx="696.02" cy="295.39" r="2.53" fill="#C9A84C" opacity="0.823"/><circle cx="415.04" cy="460.04" r="1.70" fill="#C9A84C" opacity="0.797"/><circle cx="790.31" cy="458.99" r="0.50" fill="#C9A84C" opacity="0.754"/><circle cx="727.10" cy="293.97" r="0.68" fill="#C9A84C" opacity="0.696"/><circle cx="409.80" cy="238.32" r="1.98" fill="#C9A84C" opacity="0.625"/><circle cx="764.03" cy="384.22" r="2.49" fill="#C9A84C" opacity="0.541"/><circle cx="756.44" cy="490.00" r="1.47" fill="#C9A84C" opacity="0.450"/><circle cx="409.17" cy="380.45" r="0.41" fill="#C9A84C" opacity="0.352"/><circle cx="735.27" cy="237.03" r="0.87" fill="#C9A84C" opacity="0.250"/><circle cx="783.45" cy="297.29" r="2.17" fill="#C9A84C" opacity="0.350"/><circle cx="413.16" cy="461.42" r="2.41" fill="#C9A84C" opacity="0.448"/><circle cx="704.59" cy="457.56" r="1.23" fill="#C9A84C" opacity="0.540"/><circle cx="807.59" cy="292.10" r="0.36" fill="#C9A84C" opacity="0.623"/>
<path d="M 534.44,215.54 L 535.56,219.79 L 537.45,224.00 L 540.08,228.12 L 543.44,232.13 L 547.49,235.97 L 552.19,239.62 L 557.49,243.03 L 563.35,246.19 L 569.70,249.04 L 576.50,251.58 L 583.66,253.76 L 591.13,255.58 L 598.83,257.01 L 606.69,258.05 L 614.62,258.67 L 622.56,258.88 L 630.43,258.67 L 638.15,258.05 L 645.65,257.01 L 652.86,255.58 L 659.70,253.76 L 666.11,251.58 L 672.03,249.04 L 677.40,246.19 L 682.17,243.03 L 686.30,239.62 L 689.74,235.97 L 692.46,232.13 L 694.44,228.12 L 695.65,224.00 L 696.08,219.79 L 695.74,215.54 L 732.61,429.34 L 571.31,429.34 Z" fill="url(#plateGrad)" opacity="0.832" filter="url(#softGlow)" stroke="#E8C96A" stroke-width="1.5" stroke-opacity="0.6"/>
<polyline points="549.34,227.10 550.73,231.81 553.26,236.45 556.88,240.92 561.53,245.16 567.13,249.08 573.58,252.63 580.78,255.75 588.60,258.37 596.91,260.46 605.56,261.98 614.42,262.90 623.31,263.21 632.10,262.90 640.63,261.98 648.76,260.46 656.35,258.37 663.26,255.75 669.39,252.63 674.62,249.08 678.87,245.16 682.06,240.92 684.13,236.45 685.06,231.81 684.83,227.10" fill="none" stroke="#E8C96A" stroke-width="1" stroke-opacity="0.416"/>
<ellipse cx="543.23" cy="222.57" rx="6.76" ry="6.50" fill="url(#petalGrad)" opacity="0.749" filter="url(#softGlow)" stroke="#E8C96A" stroke-width="0.8"/><ellipse cx="554.32" cy="235.77" rx="6.76" ry="6.50" fill="url(#petalGrad)" opacity="0.749" filter="url(#softGlow)" stroke="#E8C96A" stroke-width="0.8"/><ellipse cx="572.74" cy="246.53" rx="6.76" ry="6.50" fill="url(#petalGrad)" opacity="0.749" filter="url(#softGlow)" stroke="#E8C96A" stroke-width="0.8"/><ellipse cx="596.27" cy="253.55" rx="6.76" ry="6.50" fill="url(#petalGrad)" opacity="0.749" filter="url(#softGlow)" stroke="#E8C96A" stroke-width="0.8"/><ellipse cx="622.07" cy="255.99" rx="6.76" ry="6.50" fill="url(#petalGrad)" opacity="0.749" filter="url(#softGlow)" stroke="#E8C96A" stroke-width="0.8"/><ellipse cx="647.02" cy="253.55" rx="6.76" ry="6.50" fill="url(#petalGrad)" opacity="0.749" filter="url(#softGlow)" stroke="#E8C96A" stroke-width="0.8"/><ellipse cx="668.13" cy="246.53" rx="6.76" ry="6.50" fill="url(#petalGrad)" opacity="0.749" filter="url(#softGlow)" stroke="#E8C96A" stroke-width="0.8"/><ellipse cx="682.84" cy="235.77" rx="6.76" ry="6.50" fill="url(#petalGrad)" opacity="0.749" filter="url(#softGlow)" stroke="#E8C96A" stroke-width="0.8"/><ellipse cx="689.37" cy="222.57" rx="6.76" ry="6.50" fill="url(#petalGrad)" opacity="0.749" filter="url(#softGlow)" stroke="#E8C96A" stroke-width="0.8"/>
<line x1="584.50" y1="429.34" x2="582.62" y2="442.34" stroke="#C9A84C" stroke-width="1" opacity="0.582"/>
    <ellipse cx="582.62" cy="451.71" rx="4.83" ry="9.37" fill="url(#petalGrad)" opacity="0.832" filter="url(#softGlow)"/>
    <ellipse cx="582.62" cy="445.15" rx="3.38" ry="1.87" fill="#E8C96A" opacity="0.416"/><line x1="597.99" y1="429.34" x2="597.45" y2="442.34" stroke="#C9A84C" stroke-width="1" opacity="0.582"/>
    <ellipse cx="597.45" cy="450.71" rx="4.83" ry="8.37" fill="url(#petalGrad)" opacity="0.832" filter="url(#softGlow)"/>
    <ellipse cx="597.45" cy="444.85" rx="3.38" ry="1.67" fill="#E8C96A" opacity="0.416"/><line x1="611.48" y1="429.34" x2="612.61" y2="442.34" stroke="#C9A84C" stroke-width="1" opacity="0.582"/>
    <ellipse cx="612.61" cy="449.25" rx="4.83" ry="6.91" fill="url(#petalGrad)" opacity="0.832" filter="url(#softGlow)"/>
    <ellipse cx="612.61" cy="444.41" rx="3.38" ry="1.38" fill="#E8C96A" opacity="0.416"/><line x1="624.98" y1="429.34" x2="627.09" y2="442.34" stroke="#C9A84C" stroke-width="1" opacity="0.582"/>
    <ellipse cx="627.09" cy="448.92" rx="4.83" ry="6.58" fill="url(#petalGrad)" opacity="0.832" filter="url(#softGlow)"/>
    <ellipse cx="627.09" cy="444.32" rx="3.38" ry="1.32" fill="#E8C96A" opacity="0.416"/><line x1="638.47" y1="429.34" x2="640.29" y2="442.34" stroke="#C9A84C" stroke-width="1" opacity="0.582"/>
    <ellipse cx="640.29" cy="450.08" rx="4.83" ry="7.74" fill="url(#petalGrad)" opacity="0.832" filter="url(#softGlow)"/>
    <ellipse cx="640.29" cy="444.66" rx="3.38" ry="1.55" fill="#E8C96A" opacity="0.416"/><line x1="651.96" y1="429.34" x2="652.38" y2="442.34" stroke="#C9A84C" stroke-width="1" opacity="0.582"/>
    <ellipse cx="652.38" cy="451.47" rx="4.83" ry="9.13" fill="url(#petalGrad)" opacity="0.832" filter="url(#softGlow)"/>
    <ellipse cx="652.38" cy="445.08" rx="3.38" ry="1.83" fill="#E8C96A" opacity="0.416"/><line x1="665.45" y1="429.34" x2="664.22" y2="442.34" stroke="#C9A84C" stroke-width="1" opacity="0.582"/>
    <ellipse cx="664.22" cy="451.56" rx="4.83" ry="9.22" fill="url(#petalGrad)" opacity="0.832" filter="url(#softGlow)"/>
    <ellipse cx="664.22" cy="445.11" rx="3.38" ry="1.84" fill="#E8C96A" opacity="0.416"/><line x1="678.94" y1="429.34" x2="676.80" y2="442.34" stroke="#C9A84C" stroke-width="1" opacity="0.582"/>
    <ellipse cx="676.80" cy="450.26" rx="4.83" ry="7.92" fill="url(#petalGrad)" opacity="0.832" filter="url(#softGlow)"/>
    <ellipse cx="676.80" cy="444.72" rx="3.38" ry="1.58" fill="#E8C96A" opacity="0.416"/><line x1="692.43" y1="429.34" x2="690.68" y2="442.34" stroke="#C9A84C" stroke-width="1" opacity="0.582"/>
    <ellipse cx="690.68" cy="448.99" rx="4.83" ry="6.65" fill="url(#petalGrad)" opacity="0.832" filter="url(#softGlow)"/>
    <ellipse cx="690.68" cy="444.34" rx="3.38" ry="1.33" fill="#E8C96A" opacity="0.416"/><line x1="705.92" y1="429.34" x2="705.62" y2="442.34" stroke="#C9A84C" stroke-width="1" opacity="0.582"/>
    <ellipse cx="705.62" cy="449.13" rx="4.83" ry="6.79" fill="url(#petalGrad)" opacity="0.832" filter="url(#softGlow)"/>
    <ellipse cx="705.62" cy="444.38" rx="3.38" ry="1.36" fill="#E8C96A" opacity="0.416"/><line x1="719.41" y1="429.34" x2="720.74" y2="442.34" stroke="#C9A84C" stroke-width="1" opacity="0.582"/>
    <ellipse cx="720.74" cy="450.54" rx="4.83" ry="8.20" fill="url(#petalGrad)" opacity="0.832" filter="url(#softGlow)"/>
    <ellipse cx="720.74" cy="444.80" rx="3.38" ry="1.64" fill="#E8C96A" opacity="0.416"/>
<ellipse cx="592.86" cy="367.22" rx="7.72" ry="6.56" fill="none" stroke="#C9A84C" stroke-width="1.5" opacity="0.582"/>
      <ellipse cx="592.86" cy="367.22" rx="4.25" ry="3.86" fill="#C9A84C" opacity="0.333"/><ellipse cx="689.64" cy="367.22" rx="7.72" ry="6.56" fill="none" stroke="#C9A84C" stroke-width="1.5" opacity="0.582"/>
      <ellipse cx="689.64" cy="367.22" rx="4.25" ry="3.86" fill="#C9A84C" opacity="0.333"/>
<ellipse cx="637.51" cy="345.55" rx="24.71" ry="32.36" fill="#C9A84C" opacity="0.025" filter="url(#glow)"/>
    <ellipse cx="637.51" cy="345.55" rx="15.45" ry="20.22" fill="url(#centerGem)" opacity="0.832" filter="url(#glow)" stroke="#E8C96A" stroke-width="2"/>
    <ellipse cx="633.65" cy="339.49" rx="3.86" ry="4.04" fill="white" opacity="0.291"/>

</svg>