<svg xmlns="http://www.w3.org/2000/svg" width="1280" height="720" viewBox="0 0 1280 720">
<defs>
    <radialGradient id="bgGrad" cx="50%" cy="50%" r="60%">
      <stop offset="0%" stop-color="#2A1200"/>
      <stop offset="100%" stop-color="#1A0A00"/>
    </radialGradient>
    <radialGradient id="glowGrad" cx="50%" cy="50%" r="50%">
      <stop offset="0%" stop-color="#C9A84C" stop-opacity="0.244"/>
      <stop offset="100%" stop-color="#C9A84C" stop-opacity="0"/>
    </radialGradient>
    <radialGradient id="centerGem" cx="50%" cy="50%" r="50%">
      <stop offset="0%" stop-color="#FFE8A0"/>
      <stop offset="40%" stop-color="#C9A84C"/>
      <stop offset="100%" stop-color="#8B6914"/>
    </radialGradient>
    <radialGradient id="petalGrad" cx="50%" cy="30%" r="70%">
      <stop offset="0%" stop-color="#E8C96A"/>
      <stop offset="60%" stop-color="#C9A84C"/>
      <stop offset="100%" stop-color="#8B6914"/>
    </radialGradient>
    <filter id="glow" x="-50%" y="-50%" width="200%" height="200%">
      <feGaussianBlur stdDeviation="7.82" result="coloredBlur"/>
      <feMerge><feMergeNode in="coloredBlur"/><feMergeNode in="SourceGraphic"/></feMerge>
    </filter>
    <filter id="softGlow" x="-30%" y="-30%" width="160%" height="160%">
      <feGaussianBlur stdDeviation="3" result="coloredBlur"/>
      <feMerge><feMergeNode in="coloredBlur"/><feMergeNode in="SourceGraphic"/></feMerge>
    </filter>
    <linearGradient id="plateGrad" x1="0%" y1="0%" x2="100%" y2="100%">
      <stop offset="0%" stop-color="#E8C96A"/>
      <stop offset="50%" stop-color="#C9A84C"/>
      <stop offset="100%" stop-color="#8B6914"/>
    </linearGradient>
  </defs>
<rect width="1280" height="720" fill="url(#bgGrad)"/>
<ellipse cx="640" cy="360" rx="333.43" ry="200.06" fill="url(#glowGrad)"/>
<circle cx="524.40" cy="310.74" r="1.86" fill="#C9A84C" opacity="0.927"/><circle cx="958.18" cy="180.98" r="0.52" fill="#C9A84C" opacity="0.863"/><circle cx="463.78" cy="347.75" r="1.35" fill="#C9A84C" opacity="0.782"/><circle cx="483.45" cy="534.81" r="3.13" fill="#C9A84C" opacity="0.687"/><circle cx="959.81" cy="432.32" r="3.25" fill="#C9A84C" opacity="0.579"/><circle cx="503.23" cy="210.04" r="1.54" fill="#C9A84C" opacity="0.464"/><circle cx="445.63" cy="236.15" r="0.50" fill="#C9A84C" opacity="0.343"/><circle cx="955.04" cy="467.40" r="1.66" fill="#C9A84C" opacity="0.379"/><circle cx="545.43" cy="520.75" r="3.32" fill="#C9A84C" opacity="0.498"/><circle cx="411.70" cy="307.84" r="3.05" fill="#C9A84C" opacity="0.612"/><circle cx="943.96" cy="181.32" r="1.25" fill="#C9A84C" opacity="0.716"/><circle cx="589.52" cy="350.77" r="0.55" fill="#C9A84C" opacity="0.808"/><circle cx="382.34" cy="535.50" r="1.98" fill="#C9A84C" opacity="0.884"/><circle cx="926.80" cy="429.54" r="3.44" fill="#C9A84C" opacity="0.942"/><circle cx="634.61" cy="208.39" r="2.79" fill="#C9A84C" opacity="0.981"/><circle cx="358.14" cy="238.37" r="0.98" fill="#C9A84C" opacity="0.999"/><circle cx="903.90" cy="469.81" r="0.66" fill="#C9A84C" opacity="0.996"/><circle cx="679.82" cy="519.37" r="2.30" fill="#C9A84C" opacity="0.971"/>
<path d="M 491.09,160.00 L 491.12,165.88 L 492.85,171.71 L 496.27,177.42 L 501.34,182.96 L 508.02,188.28 L 516.24,193.33 L 525.91,198.06 L 536.96,202.43 L 549.27,206.38 L 562.71,209.89 L 577.18,212.92 L 592.51,215.43 L 608.58,217.42 L 625.21,218.85 L 642.26,219.71 L 659.55,220.00 L 676.93,219.71 L 694.21,218.85 L 711.25,217.42 L 727.86,215.43 L 743.90,212.92 L 759.21,209.89 L 773.64,206.38 L 787.05,202.43 L 799.32,198.06 L 810.31,193.33 L 819.94,188.28 L 828.11,182.96 L 834.73,177.42 L 839.74,171.71 L 843.10,165.88 L 844.77,160.00 L 803.44,456.00 L 449.75,456.00 Z" fill="url(#plateGrad)" opacity="1.000" filter="url(#softGlow)" stroke="#E8C96A" stroke-width="1.5" stroke-opacity="0.6"/>
<polyline points="517.15,176.00 517.51,182.53 520.40,188.94 525.78,195.13 533.56,201.00 543.59,206.44 555.72,211.36 569.73,215.67 585.37,219.30 602.40,222.19 620.50,224.30 639.38,225.57 658.71,226.00 678.16,225.57 697.40,224.30 716.09,222.19 733.92,219.30 750.59,215.67 765.80,211.36 779.30,206.44 790.85,201.00 800.26,195.13 807.38,188.94 812.06,182.53 814.24,176.00" fill="none" stroke="#E8C96A" stroke-width="1" stroke-opacity="0.500"/>
<ellipse cx="506.35" cy="169.72" rx="11.77" ry="9.00" fill="url(#petalGrad)" opacity="0.900" filter="url(#softGlow)" stroke="#E8C96A" stroke-width="0.8"/><ellipse cx="523.12" cy="188.00" rx="11.77" ry="9.00" fill="url(#petalGrad)" opacity="0.900" filter="url(#softGlow)" stroke="#E8C96A" stroke-width="0.8"/><ellipse cx="557.36" cy="202.90" rx="11.77" ry="9.00" fill="url(#petalGrad)" opacity="0.900" filter="url(#softGlow)" stroke="#E8C96A" stroke-width="0.8"/><ellipse cx="604.94" cy="212.62" rx="11.77" ry="9.00" fill="url(#petalGrad)" opacity="0.900" filter="url(#softGlow)" stroke="#E8C96A" stroke-width="0.8"/><ellipse cx="660.11" cy="216.00" rx="11.77" ry="9.00" fill="url(#petalGrad)" opacity="0.900" filter="url(#softGlow)" stroke="#E8C96A" stroke-width="0.8"/><ellipse cx="716.23" cy="212.62" rx="11.77" ry="9.00" fill="url(#petalGrad)" opacity="0.900" filter="url(#softGlow)" stroke="#E8C96A" stroke-width="0.8"/><ellipse cx="766.52" cy="202.90" rx="11.77" ry="9.00" fill="url(#petalGrad)" opacity="0.900" filter="url(#softGlow)" stroke="#E8C96A" stroke-width="0.8"/><ellipse cx="804.92" cy="188.00" rx="11.77" ry="9.00" fill="url(#petalGrad)" opacity="0.900" filter="url(#softGlow)" stroke="#E8C96A" stroke-width="0.8"/><ellipse cx="826.80" cy="169.72" rx="11.77" ry="9.00" fill="url(#petalGrad)" opacity="0.900" filter="url(#softGlow)" stroke="#E8C96A" stroke-width="0.8"/>
<line x1="478.69" y1="456.00" x2="477.60" y2="474.00" stroke="#C9A84C" stroke-width="1" opacity="0.700"/>
    <ellipse cx="477.60" cy="483.40" rx="8.41" ry="9.40" fill="url(#petalGrad)" opacity="1.000" filter="url(#softGlow)"/>
    <ellipse cx="477.60" cy="476.82" rx="5.89" ry="1.88" fill="#E8C96A" opacity="0.500"/><line x1="508.27" y1="456.00" x2="509.52" y2="474.00" stroke="#C9A84C" stroke-width="1" opacity="0.700"/>
    <ellipse cx="509.52" cy="483.20" rx="8.41" ry="9.20" fill="url(#petalGrad)" opacity="1.000" filter="url(#softGlow)"/>
    <ellipse cx="509.52" cy="476.76" rx="5.89" ry="1.84" fill="#E8C96A" opacity="0.500"/><line x1="537.85" y1="456.00" x2="540.68" y2="474.00" stroke="#C9A84C" stroke-width="1" opacity="0.700"/>
    <ellipse cx="540.68" cy="484.96" rx="8.41" ry="10.96" fill="url(#petalGrad)" opacity="1.000" filter="url(#softGlow)"/>
    <ellipse cx="540.68" cy="477.29" rx="5.89" ry="2.19" fill="#E8C96A" opacity="0.500"/><line x1="567.43" y1="456.00" x2="570.12" y2="474.00" stroke="#C9A84C" stroke-width="1" opacity="0.700"/>
    <ellipse cx="570.12" cy="486.77" rx="8.41" ry="12.77" fill="url(#petalGrad)" opacity="1.000" filter="url(#softGlow)"/>
    <ellipse cx="570.12" cy="477.83" rx="5.89" ry="2.55" fill="#E8C96A" opacity="0.500"/><line x1="597.01" y1="456.00" x2="597.93" y2="474.00" stroke="#C9A84C" stroke-width="1" opacity="0.700"/>
    <ellipse cx="597.93" cy="486.64" rx="8.41" ry="12.64" fill="url(#petalGrad)" opacity="1.000" filter="url(#softGlow)"/>
    <ellipse cx="597.93" cy="477.79" rx="5.89" ry="2.53" fill="#E8C96A" opacity="0.500"/><line x1="626.59" y1="456.00" x2="625.18" y2="474.00" stroke="#C9A84C" stroke-width="1" opacity="0.700"/>
    <ellipse cx="625.18" cy="484.72" rx="8.41" ry="10.72" fill="url(#petalGrad)" opacity="1.000" filter="url(#softGlow)"/>
    <ellipse cx="625.18" cy="477.22" rx="5.89" ry="2.14" fill="#E8C96A" opacity="0.500"/><line x1="656.17" y1="456.00" x2="653.29" y2="474.00" stroke="#C9A84C" stroke-width="1" opacity="0.700"/>
    <ellipse cx="653.29" cy="483.11" rx="8.41" ry="9.11" fill="url(#petalGrad)" opacity="1.000" filter="url(#softGlow)"/>
    <ellipse cx="653.29" cy="476.73" rx="5.89" ry="1.82" fill="#E8C96A" opacity="0.500"/><line x1="685.76" y1="456.00" x2="683.15" y2="474.00" stroke="#C9A84C" stroke-width="1" opacity="0.700"/>
    <ellipse cx="683.15" cy="483.56" rx="8.41" ry="9.56" fill="url(#petalGrad)" opacity="1.000" filter="url(#softGlow)"/>
    <ellipse cx="683.15" cy="476.87" rx="5.89" ry="1.91" fill="#E8C96A" opacity="0.500"/><line x1="715.34" y1="456.00" x2="714.59" y2="474.00" stroke="#C9A84C" stroke-width="1" opacity="0.700"/>
    <ellipse cx="714.59" cy="485.59" rx="8.41" ry="11.59" fill="url(#petalGrad)" opacity="1.000" filter="url(#softGlow)"/>
    <ellipse cx="714.59" cy="477.48" rx="5.89" ry="2.32" fill="#E8C96A" opacity="0.500"/><line x1="744.92" y1="456.00" x2="746.48" y2="474.00" stroke="#C9A84C" stroke-width="1" opacity="0.700"/>
    <ellipse cx="746.48" cy="486.97" rx="8.41" ry="12.97" fill="url(#petalGrad)" opacity="1.000" filter="url(#softGlow)"/>
    <ellipse cx="746.48" cy="477.89" rx="5.89" ry="2.59" fill="#E8C96A" opacity="0.500"/><line x1="774.50" y1="456.00" x2="777.42" y2="474.00" stroke="#C9A84C" stroke-width="1" opacity="0.700"/>
    <ellipse cx="777.42" cy="486.20" rx="8.41" ry="12.20" fill="url(#petalGrad)" opacity="1.000" filter="url(#softGlow)"/>
    <ellipse cx="777.42" cy="477.66" rx="5.89" ry="2.44" fill="#E8C96A" opacity="0.500"/>
<ellipse cx="532.50" cy="370.00" rx="13.46" ry="11.44" fill="none" stroke="#C9A84C" stroke-width="1.5" opacity="0.700"/>
      <ellipse cx="532.50" cy="370.00" rx="7.40" ry="6.73" fill="#C9A84C" opacity="0.400"/><ellipse cx="744.71" cy="370.00" rx="13.46" ry="11.44" fill="none" stroke="#C9A84C" stroke-width="1.5" opacity="0.700"/>
      <ellipse cx="744.71" cy="370.00" rx="7.40" ry="6.73" fill="#C9A84C" opacity="0.400"/>
<ellipse cx="642.79" cy="340.00" rx="43.06" ry="44.80" fill="#C9A84C" opacity="0.147" filter="url(#glow)"/>
    <ellipse cx="642.79" cy="340.00" rx="26.91" ry="28.00" fill="url(#centerGem)" opacity="1.000" filter="url(#glow)" stroke="#E8C96A" stroke-width="2"/>
    <ellipse cx="636.06" cy="331.60" rx="6.73" ry="5.60" fill="white" opacity="0.350"/>

</svg>