<svg xmlns="http://www.w3.org/2000/svg" width="1280" height="720" viewBox="0 0 1280 720">
<defs>
    <radialGradient id="bgGrad" cx="50%" cy="50%" r="60%">
      <stop offset="0%" stop-color="#2A1200"/>
      <stop offset="100%" stop-color="#1A0A00"/>
    </radialGradient>
    <radialGradient id="glowGrad" cx="50%" cy="50%" r="50%">
      <stop offset="0%" stop-color="#C9A84C" stop-opacity="-0.048"/>
      <stop offset="100%" stop-color="#C9A84C" stop-opacity="0"/>
    </radialGradient>
    <radialGradient id="centerGem" cx="50%" cy="50%" r="50%">
      <stop offset="0%" stop-color="#FFE8A0"/>
      <stop offset="40%" stop-color="#C9A84C"/>
      <stop offset="100%" stop-color="#8B6914"/>
    </radialGradient>
    <radialGradient id="petalGrad" cx="50%" cy="30%" r="70%">
      <stop offset="0%" stop-color="#E8C96A"/>
      <stop offset="60%" stop-color="#C9A84C"/>
      <stop offset="100%" stop-color="#8B6914"/>
    </radialGradient>
    <filter id="glow" x="-50%" y="-50%" width="200%" height="200%">
      <feGaussianBlur stdDeviation="-1.53" result="coloredBlur"/>
      <feMerge><feMergeNode in="coloredBlur"/><feMergeNode in="SourceGraphic"/></feMerge>
    </filter>
    <filter id="softGlow" x="-30%" y="-30%" width="160%" height="160%">
      <feGaussianBlur stdDeviation="3" result="coloredBlur"/>
      <feMerge><feMergeNode in="coloredBlur"/><feMergeNode in="SourceGraphic"/></feMerge>
    </filter>
    <linearGradient id="plateGrad" x1="0%" y1="0%" x2="100%" y2="100%">
      <stop offset="0%" stop-color="#E8C96A"/>
      <stop offset="50%" stop-color="#C9A84C"/>
      <stop offset="100%" stop-color="#8B6914"/>
    </linearGradient>
  </defs>
<rect width="1280" height="720" fill="url(#bgGrad)"/>
<ellipse cx="640" cy="360" rx="180.78" ry="108.47" fill="url(#glowGrad)"/>
<circle cx="783.86" cy="332.57" r="3.09" fill="#C9A84C" opacity="0.935"/><circle cx="793.22" cy="511.20" r="1.83" fill="#C9A84C" opacity="0.976"/><circle cx="355.61" cy="439.38" r="0.51" fill="#C9A84C" opacity="0.997"/><circle cx="747.61" cy="236.08" r="1.06" fill="#C9A84C" opacity="0.997"/><circle cx="825.69" cy="238.04" r="2.67" fill="#C9A84C" opacity="0.976"/><circle cx="362.08" cy="442.01" r="2.99" fill="#C9A84C" opacity="0.934"/><circle cx="709.21" cy="510.14" r="1.54" fill="#C9A84C" opacity="0.873"/><circle cx="854.45" cy="329.58" r="0.45" fill="#C9A84C" opacity="0.795"/><circle cx="374.11" cy="199.40" r="1.31" fill="#C9A84C" opacity="0.701"/><circle cx="669.42" cy="335.24" r="2.87" fill="#C9A84C" opacity="0.595"/><circle cx="878.91" cy="512.09" r="2.83" fill="#C9A84C" opacity="0.481"/><circle cx="391.46" cy="437.02" r="1.26" fill="#C9A84C" opacity="0.360"/><circle cx="629.05" cy="234.38" r="0.46" fill="#C9A84C" opacity="0.362"/><circle cx="898.59" cy="239.81" r="1.59" fill="#C9A84C" opacity="0.482"/><circle cx="413.78" cy="444.32" r="3.01" fill="#C9A84C" opacity="0.596"/><circle cx="588.89" cy="509.16" r="2.63" fill="#C9A84C" opacity="0.702"/><circle cx="913.09" cy="326.93" r="1.01" fill="#C9A84C" opacity="0.795"/><circle cx="440.64" cy="199.48" r="0.52" fill="#C9A84C" opacity="0.874"/>
<path d="M 452.04,181.53 L 453.54,186.78 L 456.60,191.98 L 461.19,197.07 L 467.28,202.02 L 474.80,206.77 L 483.68,211.28 L 493.83,215.50 L 505.17,219.39 L 517.57,222.92 L 530.92,226.05 L 545.09,228.75 L 559.94,231.00 L 575.34,232.77 L 591.13,234.04 L 607.16,234.81 L 623.27,235.07 L 639.32,234.81 L 655.14,234.04 L 670.59,232.77 L 685.51,231.00 L 699.76,228.75 L 713.21,226.05 L 725.72,222.92 L 737.18,219.39 L 747.47,215.50 L 756.50,211.28 L 764.17,206.77 L 770.42,202.02 L 775.18,197.07 L 778.41,191.98 L 780.08,186.78 L 780.16,181.53 L 815.53,445.66 L 487.41,445.66 Z" fill="url(#plateGrad)" opacity="1.000" filter="url(#softGlow)" stroke="#E8C96A" stroke-width="1.5" stroke-opacity="0.6"/>
<polyline points="480.21,195.81 482.16,201.63 486.45,207.36 492.98,212.88 501.66,218.12 512.32,222.97 524.79,227.36 538.86,231.21 554.28,234.45 570.80,237.03 588.12,238.91 605.95,240.04 623.99,240.43 641.93,240.04 659.45,238.91 676.27,237.03 692.09,234.45 706.65,231.21 719.69,227.36 730.99,222.97 740.35,218.12 747.62,212.88 752.68,207.36 755.43,201.63 755.83,195.81" fill="none" stroke="#E8C96A" stroke-width="1" stroke-opacity="0.500"/>
<ellipse cx="468.62" cy="190.21" rx="10.71" ry="8.03" fill="url(#petalGrad)" opacity="0.900" filter="url(#softGlow)" stroke="#E8C96A" stroke-width="0.8"/><ellipse cx="488.74" cy="206.52" rx="10.71" ry="8.03" fill="url(#petalGrad)" opacity="0.900" filter="url(#softGlow)" stroke="#E8C96A" stroke-width="0.8"/><ellipse cx="524.21" cy="219.81" rx="10.71" ry="8.03" fill="url(#petalGrad)" opacity="0.900" filter="url(#softGlow)" stroke="#E8C96A" stroke-width="0.8"/><ellipse cx="570.77" cy="228.49" rx="10.71" ry="8.03" fill="url(#petalGrad)" opacity="0.900" filter="url(#softGlow)" stroke="#E8C96A" stroke-width="0.8"/><ellipse cx="622.80" cy="231.50" rx="10.71" ry="8.03" fill="url(#petalGrad)" opacity="0.900" filter="url(#softGlow)" stroke="#E8C96A" stroke-width="0.8"/><ellipse cx="674.01" cy="228.49" rx="10.71" ry="8.03" fill="url(#petalGrad)" opacity="0.900" filter="url(#softGlow)" stroke="#E8C96A" stroke-width="0.8"/><ellipse cx="718.25" cy="219.81" rx="10.71" ry="8.03" fill="url(#petalGrad)" opacity="0.900" filter="url(#softGlow)" stroke="#E8C96A" stroke-width="0.8"/><ellipse cx="750.16" cy="206.52" rx="10.71" ry="8.03" fill="url(#petalGrad)" opacity="0.900" filter="url(#softGlow)" stroke="#E8C96A" stroke-width="0.8"/><ellipse cx="765.91" cy="190.21" rx="10.71" ry="8.03" fill="url(#petalGrad)" opacity="0.900" filter="url(#softGlow)" stroke="#E8C96A" stroke-width="0.8"/>
<line x1="514.26" y1="445.66" x2="515.60" y2="461.73" stroke="#C9A84C" stroke-width="1" opacity="0.700"/>
    <ellipse cx="515.60" cy="472.91" rx="7.65" ry="11.18" fill="url(#petalGrad)" opacity="1.000" filter="url(#softGlow)"/>
    <ellipse cx="515.60" cy="465.08" rx="5.36" ry="2.24" fill="#E8C96A" opacity="0.500"/><line x1="541.70" y1="445.66" x2="544.30" y2="461.73" stroke="#C9A84C" stroke-width="1" opacity="0.700"/>
    <ellipse cx="544.30" cy="471.14" rx="7.65" ry="9.41" fill="url(#petalGrad)" opacity="1.000" filter="url(#softGlow)"/>
    <ellipse cx="544.30" cy="464.55" rx="5.36" ry="1.88" fill="#E8C96A" opacity="0.500"/><line x1="569.14" y1="445.66" x2="571.41" y2="461.73" stroke="#C9A84C" stroke-width="1" opacity="0.700"/>
    <ellipse cx="571.41" cy="469.81" rx="7.65" ry="8.08" fill="url(#petalGrad)" opacity="1.000" filter="url(#softGlow)"/>
    <ellipse cx="571.41" cy="464.15" rx="5.36" ry="1.62" fill="#E8C96A" opacity="0.500"/><line x1="596.58" y1="445.66" x2="597.15" y2="461.73" stroke="#C9A84C" stroke-width="1" opacity="0.700"/>
    <ellipse cx="597.15" cy="470.38" rx="7.65" ry="8.65" fill="url(#petalGrad)" opacity="1.000" filter="url(#softGlow)"/>
    <ellipse cx="597.15" cy="464.32" rx="5.36" ry="1.73" fill="#E8C96A" opacity="0.500"/><line x1="624.03" y1="445.66" x2="622.55" y2="461.73" stroke="#C9A84C" stroke-width="1" opacity="0.700"/>
    <ellipse cx="622.55" cy="472.22" rx="7.65" ry="10.49" fill="url(#petalGrad)" opacity="1.000" filter="url(#softGlow)"/>
    <ellipse cx="622.55" cy="464.87" rx="5.36" ry="2.10" fill="#E8C96A" opacity="0.500"/><line x1="651.47" y1="445.66" x2="648.84" y2="461.73" stroke="#C9A84C" stroke-width="1" opacity="0.700"/>
    <ellipse cx="648.84" cy="473.32" rx="7.65" ry="11.59" fill="url(#petalGrad)" opacity="1.000" filter="url(#softGlow)"/>
    <ellipse cx="648.84" cy="465.20" rx="5.36" ry="2.32" fill="#E8C96A" opacity="0.500"/><line x1="678.91" y1="445.66" x2="676.73" y2="461.73" stroke="#C9A84C" stroke-width="1" opacity="0.700"/>
    <ellipse cx="676.73" cy="472.48" rx="7.65" ry="10.76" fill="url(#petalGrad)" opacity="1.000" filter="url(#softGlow)"/>
    <ellipse cx="676.73" cy="464.95" rx="5.36" ry="2.15" fill="#E8C96A" opacity="0.500"/><line x1="706.36" y1="445.66" x2="705.94" y2="461.73" stroke="#C9A84C" stroke-width="1" opacity="0.700"/>
    <ellipse cx="705.94" cy="470.62" rx="7.65" ry="8.89" fill="url(#petalGrad)" opacity="1.000" filter="url(#softGlow)"/>
    <ellipse cx="705.94" cy="464.39" rx="5.36" ry="1.78" fill="#E8C96A" opacity="0.500"/><line x1="733.80" y1="445.66" x2="735.41" y2="461.73" stroke="#C9A84C" stroke-width="1" opacity="0.700"/>
    <ellipse cx="735.41" cy="469.76" rx="7.65" ry="8.04" fill="url(#petalGrad)" opacity="1.000" filter="url(#softGlow)"/>
    <ellipse cx="735.41" cy="464.14" rx="5.36" ry="1.61" fill="#E8C96A" opacity="0.500"/><line x1="761.24" y1="445.66" x2="763.90" y2="461.73" stroke="#C9A84C" stroke-width="1" opacity="0.700"/>
    <ellipse cx="763.90" cy="470.85" rx="7.65" ry="9.13" fill="url(#petalGrad)" opacity="1.000" filter="url(#softGlow)"/>
    <ellipse cx="763.90" cy="464.46" rx="5.36" ry="1.83" fill="#E8C96A" opacity="0.500"/><line x1="788.68" y1="445.66" x2="790.78" y2="461.73" stroke="#C9A84C" stroke-width="1" opacity="0.700"/>
    <ellipse cx="790.78" cy="472.70" rx="7.65" ry="10.97" fill="url(#petalGrad)" opacity="1.000" filter="url(#softGlow)"/>
    <ellipse cx="790.78" cy="465.02" rx="5.36" ry="2.19" fill="#E8C96A" opacity="0.500"/>
<ellipse cx="542.76" cy="368.92" rx="12.24" ry="10.41" fill="none" stroke="#C9A84C" stroke-width="1.5" opacity="0.700"/>
      <ellipse cx="542.76" cy="368.92" rx="6.73" ry="6.12" fill="#C9A84C" opacity="0.400"/><ellipse cx="739.63" cy="368.92" rx="12.24" ry="10.41" fill="none" stroke="#C9A84C" stroke-width="1.5" opacity="0.700"/>
      <ellipse cx="739.63" cy="368.92" rx="6.73" ry="6.12" fill="#C9A84C" opacity="0.400"/>
<ellipse cx="637.61" cy="342.15" rx="39.18" ry="39.98" fill="#C9A84C" opacity="-0.029" filter="url(#glow)"/>
    <ellipse cx="637.61" cy="342.15" rx="24.49" ry="24.99" fill="url(#centerGem)" opacity="1.000" filter="url(#glow)" stroke="#E8C96A" stroke-width="2"/>
    <ellipse cx="631.49" cy="334.66" rx="6.12" ry="5.00" fill="white" opacity="0.350"/>

</svg>