<svg xmlns="http://www.w3.org/2000/svg" width="1280" height="720" viewBox="0 0 1280 720">
<defs>
    <radialGradient id="bgGrad" cx="50%" cy="50%" r="60%">
      <stop offset="0%" stop-color="#2A1200"/>
      <stop offset="100%" stop-color="#1A0A00"/>
    </radialGradient>
    <radialGradient id="glowGrad" cx="50%" cy="50%" r="50%">
      <stop offset="0%" stop-color="#C9A84C" stop-opacity="0.147"/>
      <stop offset="100%" stop-color="#C9A84C" stop-opacity="0"/>
    </radialGradient>
    <radialGradient id="centerGem" cx="50%" cy="50%" r="50%">
      <stop offset="0%" stop-color="#FFE8A0"/>
      <stop offset="40%" stop-color="#C9A84C"/>
      <stop offset="100%" stop-color="#8B6914"/>
    </radialGradient>
    <radialGradient id="petalGrad" cx="50%" cy="30%" r="70%">
      <stop offset="0%" stop-color="#E8C96A"/>
      <stop offset="60%" stop-color="#C9A84C"/>
      <stop offset="100%" stop-color="#8B6914"/>
    </radialGradient>
    <filter id="glow" x="-50%" y="-50%" width="200%" height="200%">
      <feGaussianBlur stdDeviation="4.70" result="coloredBlur"/>
      <feMerge><feMergeNode in="coloredBlur"/><feMergeNode in="SourceGraphic"/></feMerge>
    </filter>
    <filter id="softGlow" x="-30%" y="-30%" width="160%" height="160%">
      <feGaussianBlur stdDeviation="3" result="coloredBlur"/>
      <feMerge><feMergeNode in="coloredBlur"/><feMergeNode in="SourceGraphic"/></feMerge>
    </filter>
    <linearGradient id="plateGrad" x1="0%" y1="0%" x2="100%" y2="100%">
      <stop offset="0%" stop-color="#E8C96A"/>
      <stop offset="50%" stop-color="#C9A84C"/>
      <stop offset="100%" stop-color="#8B6914"/>
    </linearGradient>
  </defs>
<rect width="1280" height="720" fill="url(#bgGrad)"/>
<ellipse cx="640" cy="360" rx="87.95" ry="52.77" fill="url(#glowGrad)"/>
<circle cx="684.44" cy="411.92" r="0.66" fill="#C9A84C" opacity="0.027"/><circle cx="696.38" cy="352.15" r="1.06" fill="#C9A84C" opacity="0.036"/><circle cx="543.85" cy="305.38" r="0.79" fill="#C9A84C" opacity="0.045"/><circle cx="671.81" cy="349.08" r="0.25" fill="#C9A84C" opacity="0.053"/><circle cx="706.98" cy="410.87" r="0.23" fill="#C9A84C" opacity="0.060"/><circle cx="546.76" cy="388.40" r="0.76" fill="#C9A84C" opacity="0.066"/><circle cx="658.54" cy="318.89" r="1.06" fill="#C9A84C" opacity="0.070"/><circle cx="716.24" cy="317.48" r="0.70" fill="#C9A84C" opacity="0.074"/><circle cx="551.54" cy="386.50" r="0.20" fill="#C9A84C" opacity="0.075"/><circle cx="644.90" cy="411.63" r="0.30" fill="#C9A84C" opacity="0.075"/><circle cx="723.97" cy="351.24" r="0.85" fill="#C9A84C" opacity="0.074"/><circle cx="558.09" cy="305.36" r="1.04" fill="#C9A84C" opacity="0.071"/><circle cx="631.16" cy="349.98" r="0.60" fill="#C9A84C" opacity="0.066"/><circle cx="730.02" cy="411.19" r="0.17" fill="#C9A84C" opacity="0.060"/><circle cx="566.28" cy="387.61" r="0.38" fill="#C9A84C" opacity="0.053"/><circle cx="617.59" cy="318.29" r="0.93" fill="#C9A84C" opacity="0.045"/><circle cx="734.27" cy="318.06" r="1.01" fill="#C9A84C" opacity="0.037"/><circle cx="575.95" cy="387.30" r="0.50" fill="#C9A84C" opacity="0.028"/>
<path d="M 563.19,299.29 L 563.60,301.07 L 564.73,302.84 L 566.57,304.58 L 569.10,306.26 L 572.30,307.87 L 576.13,309.41 L 580.57,310.84 L 585.55,312.17 L 591.05,313.37 L 597.00,314.43 L 603.35,315.35 L 610.04,316.12 L 617.00,316.72 L 624.16,317.15 L 631.46,317.41 L 638.83,317.50 L 646.19,317.41 L 653.47,317.15 L 660.61,316.72 L 667.54,316.12 L 674.18,315.35 L 680.48,314.43 L 686.38,313.37 L 691.81,312.17 L 696.72,310.84 L 701.07,309.41 L 704.82,307.87 L 707.93,306.26 L 710.37,304.58 L 712.11,302.84 L 713.14,301.07 L 713.46,299.29 L 715.94,389.14 L 565.67,389.14 Z" fill="url(#plateGrad)" opacity="0.076" filter="url(#softGlow)" stroke="#E8C96A" stroke-width="1.5" stroke-opacity="0.6"/>
<polyline points="575.35,304.15 575.94,306.13 577.61,308.07 580.31,309.95 584.01,311.73 588.64,313.38 594.13,314.88 600.37,316.19 607.27,317.29 614.69,318.17 622.53,318.81 630.64,319.19 638.88,319.32 647.11,319.19 655.20,318.81 663.00,318.17 670.38,317.29 677.21,316.19 683.38,314.88 688.78,313.38 693.32,311.73 696.93,309.95 699.53,308.07 701.08,306.13 701.57,304.15" fill="none" stroke="#E8C96A" stroke-width="1" stroke-opacity="0.038"/>
<ellipse cx="570.33" cy="302.24" rx="4.23" ry="2.73" fill="url(#petalGrad)" opacity="0.068" filter="url(#softGlow)" stroke="#E8C96A" stroke-width="0.8"/><ellipse cx="578.70" cy="307.79" rx="4.23" ry="2.73" fill="url(#petalGrad)" opacity="0.068" filter="url(#softGlow)" stroke="#E8C96A" stroke-width="0.8"/><ellipse cx="594.25" cy="312.31" rx="4.23" ry="2.73" fill="url(#petalGrad)" opacity="0.068" filter="url(#softGlow)" stroke="#E8C96A" stroke-width="0.8"/><ellipse cx="615.12" cy="315.26" rx="4.23" ry="2.73" fill="url(#petalGrad)" opacity="0.068" filter="url(#softGlow)" stroke="#E8C96A" stroke-width="0.8"/><ellipse cx="638.79" cy="316.29" rx="4.23" ry="2.73" fill="url(#petalGrad)" opacity="0.068" filter="url(#softGlow)" stroke="#E8C96A" stroke-width="0.8"/><ellipse cx="662.41" cy="315.26" rx="4.23" ry="2.73" fill="url(#petalGrad)" opacity="0.068" filter="url(#softGlow)" stroke="#E8C96A" stroke-width="0.8"/><ellipse cx="683.11" cy="312.31" rx="4.23" ry="2.73" fill="url(#petalGrad)" opacity="0.068" filter="url(#softGlow)" stroke="#E8C96A" stroke-width="0.8"/><ellipse cx="698.42" cy="307.79" rx="4.23" ry="2.73" fill="url(#petalGrad)" opacity="0.068" filter="url(#softGlow)" stroke="#E8C96A" stroke-width="0.8"/><ellipse cx="706.48" cy="302.24" rx="4.23" ry="2.73" fill="url(#petalGrad)" opacity="0.068" filter="url(#softGlow)" stroke="#E8C96A" stroke-width="0.8"/>
<line x1="577.97" y1="389.14" x2="578.38" y2="394.61" stroke="#C9A84C" stroke-width="1" opacity="0.053"/>
    <ellipse cx="578.38" cy="398.04" rx="3.02" ry="3.43" fill="url(#petalGrad)" opacity="0.076" filter="url(#softGlow)"/>
    <ellipse cx="578.38" cy="395.64" rx="2.11" ry="0.69" fill="#E8C96A" opacity="0.038"/><line x1="590.53" y1="389.14" x2="591.41" y2="394.61" stroke="#C9A84C" stroke-width="1" opacity="0.053"/>
    <ellipse cx="591.41" cy="398.52" rx="3.02" ry="3.92" fill="url(#petalGrad)" opacity="0.076" filter="url(#softGlow)"/>
    <ellipse cx="591.41" cy="395.78" rx="2.11" ry="0.78" fill="#E8C96A" opacity="0.038"/><line x1="603.10" y1="389.14" x2="603.90" y2="394.61" stroke="#C9A84C" stroke-width="1" opacity="0.053"/>
    <ellipse cx="603.90" cy="398.37" rx="3.02" ry="3.77" fill="url(#petalGrad)" opacity="0.076" filter="url(#softGlow)"/>
    <ellipse cx="603.90" cy="395.74" rx="2.11" ry="0.75" fill="#E8C96A" opacity="0.038"/><line x1="615.67" y1="389.14" x2="615.91" y2="394.61" stroke="#C9A84C" stroke-width="1" opacity="0.053"/>
    <ellipse cx="615.91" cy="397.76" rx="3.02" ry="3.15" fill="url(#petalGrad)" opacity="0.076" filter="url(#softGlow)"/>
    <ellipse cx="615.91" cy="395.55" rx="2.11" ry="0.63" fill="#E8C96A" opacity="0.038"/><line x1="628.24" y1="389.14" x2="627.77" y2="394.61" stroke="#C9A84C" stroke-width="1" opacity="0.053"/>
    <ellipse cx="627.77" cy="397.34" rx="3.02" ry="2.74" fill="url(#petalGrad)" opacity="0.076" filter="url(#softGlow)"/>
    <ellipse cx="627.77" cy="395.43" rx="2.11" ry="0.55" fill="#E8C96A" opacity="0.038"/><line x1="640.80" y1="389.14" x2="639.92" y2="394.61" stroke="#C9A84C" stroke-width="1" opacity="0.053"/>
    <ellipse cx="639.92" cy="397.59" rx="3.02" ry="2.98" fill="url(#petalGrad)" opacity="0.076" filter="url(#softGlow)"/>
    <ellipse cx="639.92" cy="395.50" rx="2.11" ry="0.60" fill="#E8C96A" opacity="0.038"/><line x1="653.37" y1="389.14" x2="652.60" y2="394.61" stroke="#C9A84C" stroke-width="1" opacity="0.053"/>
    <ellipse cx="652.60" cy="398.22" rx="3.02" ry="3.62" fill="url(#petalGrad)" opacity="0.076" filter="url(#softGlow)"/>
    <ellipse cx="652.60" cy="395.69" rx="2.11" ry="0.72" fill="#E8C96A" opacity="0.038"/><line x1="665.94" y1="389.14" x2="665.75" y2="394.61" stroke="#C9A84C" stroke-width="1" opacity="0.053"/>
    <ellipse cx="665.75" cy="398.55" rx="3.02" ry="3.95" fill="url(#petalGrad)" opacity="0.076" filter="url(#softGlow)"/>
    <ellipse cx="665.75" cy="395.79" rx="2.11" ry="0.79" fill="#E8C96A" opacity="0.038"/><line x1="678.51" y1="389.14" x2="679.02" y2="394.61" stroke="#C9A84C" stroke-width="1" opacity="0.053"/>
    <ellipse cx="679.02" cy="398.22" rx="3.02" ry="3.61" fill="url(#petalGrad)" opacity="0.076" filter="url(#softGlow)"/>
    <ellipse cx="679.02" cy="395.69" rx="2.11" ry="0.72" fill="#E8C96A" opacity="0.038"/><line x1="691.07" y1="389.14" x2="691.97" y2="394.61" stroke="#C9A84C" stroke-width="1" opacity="0.053"/>
    <ellipse cx="691.97" cy="397.59" rx="3.02" ry="2.98" fill="url(#petalGrad)" opacity="0.076" filter="url(#softGlow)"/>
    <ellipse cx="691.97" cy="395.50" rx="2.11" ry="0.60" fill="#E8C96A" opacity="0.038"/><line x1="703.64" y1="389.14" x2="704.38" y2="394.61" stroke="#C9A84C" stroke-width="1" opacity="0.053"/>
    <ellipse cx="704.38" cy="397.35" rx="3.02" ry="2.74" fill="url(#petalGrad)" opacity="0.076" filter="url(#softGlow)"/>
    <ellipse cx="704.38" cy="395.43" rx="2.11" ry="0.55" fill="#E8C96A" opacity="0.038"/>
<ellipse cx="595.00" cy="363.04" rx="4.83" ry="4.11" fill="none" stroke="#C9A84C" stroke-width="1.5" opacity="0.053"/>
      <ellipse cx="595.00" cy="363.04" rx="2.66" ry="2.42" fill="#C9A84C" opacity="0.030"/><ellipse cx="685.16" cy="363.04" rx="4.83" ry="4.11" fill="none" stroke="#C9A84C" stroke-width="1.5" opacity="0.053"/>
      <ellipse cx="685.16" cy="363.04" rx="2.66" ry="2.42" fill="#C9A84C" opacity="0.030"/>
<ellipse cx="639.83" cy="353.93" rx="15.46" ry="13.60" fill="#C9A84C" opacity="0.007" filter="url(#glow)"/>
    <ellipse cx="639.83" cy="353.93" rx="9.67" ry="8.50" fill="url(#centerGem)" opacity="0.076" filter="url(#glow)" stroke="#E8C96A" stroke-width="2"/>
    <ellipse cx="637.42" cy="351.38" rx="2.42" ry="1.70" fill="white" opacity="0.026"/>

</svg>