<svg xmlns="http://www.w3.org/2000/svg" width="1280" height="720" viewBox="0 0 1280 720">
<defs>
    <radialGradient id="bgGrad" cx="50%" cy="50%" r="60%">
      <stop offset="0%" stop-color="#2A1200"/>
      <stop offset="100%" stop-color="#1A0A00"/>
    </radialGradient>
    <radialGradient id="glowGrad" cx="50%" cy="50%" r="50%">
      <stop offset="0%" stop-color="#C9A84C" stop-opacity="0.182"/>
      <stop offset="100%" stop-color="#C9A84C" stop-opacity="0"/>
    </radialGradient>
    <radialGradient id="centerGem" cx="50%" cy="50%" r="50%">
      <stop offset="0%" stop-color="#FFE8A0"/>
      <stop offset="40%" stop-color="#C9A84C"/>
      <stop offset="100%" stop-color="#8B6914"/>
    </radialGradient>
    <radialGradient id="petalGrad" cx="50%" cy="30%" r="70%">
      <stop offset="0%" stop-color="#E8C96A"/>
      <stop offset="60%" stop-color="#C9A84C"/>
      <stop offset="100%" stop-color="#8B6914"/>
    </radialGradient>
    <filter id="glow" x="-50%" y="-50%" width="200%" height="200%">
      <feGaussianBlur stdDeviation="5.83" result="coloredBlur"/>
      <feMerge><feMergeNode in="coloredBlur"/><feMergeNode in="SourceGraphic"/></feMerge>
    </filter>
    <filter id="softGlow" x="-30%" y="-30%" width="160%" height="160%">
      <feGaussianBlur stdDeviation="3" result="coloredBlur"/>
      <feMerge><feMergeNode in="coloredBlur"/><feMergeNode in="SourceGraphic"/></feMerge>
    </filter>
    <linearGradient id="plateGrad" x1="0%" y1="0%" x2="100%" y2="100%">
      <stop offset="0%" stop-color="#E8C96A"/>
      <stop offset="50%" stop-color="#C9A84C"/>
      <stop offset="100%" stop-color="#8B6914"/>
    </linearGradient>
  </defs>
<rect width="1280" height="720" fill="url(#bgGrad)"/>
<ellipse cx="640" cy="360" rx="305.67" ry="183.40" fill="url(#glowGrad)"/>
<circle cx="395.17" cy="510.48" r="2.60" fill="#C9A84C" opacity="0.993"/><circle cx="569.17" cy="288.56" r="0.83" fill="#C9A84C" opacity="0.965"/><circle cx="949.80" cy="184.97" r="0.78" fill="#C9A84C" opacity="0.916"/><circle cx="426.70" cy="371.30" r="2.51" fill="#C9A84C" opacity="0.849"/><circle cx="525.84" cy="538.91" r="3.50" fill="#C9A84C" opacity="0.765"/><circle cx="958.01" cy="410.18" r="2.29" fill="#C9A84C" opacity="0.668"/><circle cx="462.49" cy="198.33" r="0.66" fill="#C9A84C" opacity="0.559"/><circle cx="484.79" cy="254.27" r="0.99" fill="#C9A84C" opacity="0.442"/><circle cx="959.86" cy="485.34" r="2.80" fill="#C9A84C" opacity="0.321"/><circle cx="501.84" cy="508.80" r="3.44" fill="#C9A84C" opacity="0.401"/><circle cx="446.86" cy="285.79" r="1.97" fill="#C9A84C" opacity="0.520"/><circle cx="955.30" cy="185.70" r="0.55" fill="#C9A84C" opacity="0.632"/><circle cx="543.96" cy="374.32" r="1.26" fill="#C9A84C" opacity="0.734"/><circle cx="412.78" cy="539.22" r="3.06" fill="#C9A84C" opacity="0.823"/><circle cx="944.44" cy="407.27" r="3.31" fill="#C9A84C" opacity="0.896"/><circle cx="588.00" cy="197.02" r="1.64" fill="#C9A84C" opacity="0.950"/><circle cx="383.26" cy="256.73" r="0.50" fill="#C9A84C" opacity="0.986"/><circle cx="927.48" cy="487.49" r="1.55" fill="#C9A84C" opacity="1.000"/>
<path d="M 408.33,160.00 L 409.19,165.88 L 412.38,171.71 L 417.86,177.42 L 425.57,182.96 L 435.45,188.28 L 447.39,193.33 L 461.28,198.06 L 476.99,202.43 L 494.37,206.38 L 513.24,209.89 L 533.44,212.92 L 554.75,215.43 L 576.98,217.42 L 599.92,218.85 L 623.34,219.71 L 647.02,220.00 L 670.72,219.71 L 694.23,218.85 L 717.31,217.42 L 739.74,215.43 L 761.30,212.92 L 781.80,209.89 L 801.03,206.38 L 818.80,202.43 L 834.95,198.06 L 849.31,193.33 L 861.76,188.28 L 872.17,182.96 L 880.44,177.42 L 886.49,171.71 L 890.26,165.88 L 891.72,160.00 L 876.89,456.00 L 393.49,456.00 Z" fill="url(#plateGrad)" opacity="1.000" filter="url(#softGlow)" stroke="#E8C96A" stroke-width="1.5" stroke-opacity="0.6"/>
<polyline points="446.20,176.00 447.61,182.53 452.46,188.94 460.69,195.13 472.14,201.00 486.62,206.44 503.89,211.36 523.64,215.67 545.54,219.30 569.21,222.19 594.25,224.30 620.24,225.57 646.71,226.00 673.24,225.57 699.35,224.30 724.60,222.19 748.56,219.30 770.83,215.67 791.01,211.36 808.77,206.44 823.79,201.00 835.83,195.13 844.68,188.94 850.18,182.53 852.24,176.00" fill="none" stroke="#E8C96A" stroke-width="1" stroke-opacity="0.500"/>
<ellipse cx="430.55" cy="169.72" rx="13.77" ry="9.00" fill="url(#petalGrad)" opacity="0.900" filter="url(#softGlow)" stroke="#E8C96A" stroke-width="0.8"/><ellipse cx="456.05" cy="188.00" rx="13.77" ry="9.00" fill="url(#petalGrad)" opacity="0.900" filter="url(#softGlow)" stroke="#E8C96A" stroke-width="0.8"/><ellipse cx="504.94" cy="202.90" rx="13.77" ry="9.00" fill="url(#petalGrad)" opacity="0.900" filter="url(#softGlow)" stroke="#E8C96A" stroke-width="0.8"/><ellipse cx="571.33" cy="212.62" rx="13.77" ry="9.00" fill="url(#petalGrad)" opacity="0.900" filter="url(#softGlow)" stroke="#E8C96A" stroke-width="0.8"/><ellipse cx="647.22" cy="216.00" rx="13.77" ry="9.00" fill="url(#petalGrad)" opacity="0.900" filter="url(#softGlow)" stroke="#E8C96A" stroke-width="0.8"/><ellipse cx="723.44" cy="212.62" rx="13.77" ry="9.00" fill="url(#petalGrad)" opacity="0.900" filter="url(#softGlow)" stroke="#E8C96A" stroke-width="0.8"/><ellipse cx="790.80" cy="202.90" rx="13.77" ry="9.00" fill="url(#petalGrad)" opacity="0.900" filter="url(#softGlow)" stroke="#E8C96A" stroke-width="0.8"/><ellipse cx="841.19" cy="188.00" rx="13.77" ry="9.00" fill="url(#petalGrad)" opacity="0.900" filter="url(#softGlow)" stroke="#E8C96A" stroke-width="0.8"/><ellipse cx="868.52" cy="169.72" rx="13.77" ry="9.00" fill="url(#petalGrad)" opacity="0.900" filter="url(#softGlow)" stroke="#E8C96A" stroke-width="0.8"/>
<line x1="433.04" y1="456.00" x2="430.75" y2="474.00" stroke="#C9A84C" stroke-width="1" opacity="0.700"/>
    <ellipse cx="430.75" cy="484.43" rx="9.83" ry="10.43" fill="url(#petalGrad)" opacity="1.000" filter="url(#softGlow)"/>
    <ellipse cx="430.75" cy="477.13" rx="6.88" ry="2.09" fill="#E8C96A" opacity="0.500"/><line x1="473.47" y1="456.00" x2="470.49" y2="474.00" stroke="#C9A84C" stroke-width="1" opacity="0.700"/>
    <ellipse cx="470.49" cy="483.03" rx="9.83" ry="9.03" fill="url(#petalGrad)" opacity="1.000" filter="url(#softGlow)"/>
    <ellipse cx="470.49" cy="476.71" rx="6.88" ry="1.81" fill="#E8C96A" opacity="0.500"/><line x1="513.90" y1="456.00" x2="512.04" y2="474.00" stroke="#C9A84C" stroke-width="1" opacity="0.700"/>
    <ellipse cx="512.04" cy="483.79" rx="9.83" ry="9.79" fill="url(#petalGrad)" opacity="1.000" filter="url(#softGlow)"/>
    <ellipse cx="512.04" cy="476.94" rx="6.88" ry="1.96" fill="#E8C96A" opacity="0.500"/><line x1="554.33" y1="456.00" x2="554.72" y2="474.00" stroke="#C9A84C" stroke-width="1" opacity="0.700"/>
    <ellipse cx="554.72" cy="485.87" rx="9.83" ry="11.87" fill="url(#petalGrad)" opacity="1.000" filter="url(#softGlow)"/>
    <ellipse cx="554.72" cy="477.56" rx="6.88" ry="2.37" fill="#E8C96A" opacity="0.500"/><line x1="594.76" y1="456.00" x2="597.16" y2="474.00" stroke="#C9A84C" stroke-width="1" opacity="0.700"/>
    <ellipse cx="597.16" cy="487.00" rx="9.83" ry="13.00" fill="url(#petalGrad)" opacity="1.000" filter="url(#softGlow)"/>
    <ellipse cx="597.16" cy="477.90" rx="6.88" ry="2.60" fill="#E8C96A" opacity="0.500"/><line x1="635.19" y1="456.00" x2="638.15" y2="474.00" stroke="#C9A84C" stroke-width="1" opacity="0.700"/>
    <ellipse cx="638.15" cy="485.95" rx="9.83" ry="11.95" fill="url(#petalGrad)" opacity="1.000" filter="url(#softGlow)"/>
    <ellipse cx="638.15" cy="477.58" rx="6.88" ry="2.39" fill="#E8C96A" opacity="0.500"/><line x1="675.62" y1="456.00" x2="677.34" y2="474.00" stroke="#C9A84C" stroke-width="1" opacity="0.700"/>
    <ellipse cx="677.34" cy="483.86" rx="9.83" ry="9.86" fill="url(#petalGrad)" opacity="1.000" filter="url(#softGlow)"/>
    <ellipse cx="677.34" cy="476.96" rx="6.88" ry="1.97" fill="#E8C96A" opacity="0.500"/><line x1="716.05" y1="456.00" x2="715.49" y2="474.00" stroke="#C9A84C" stroke-width="1" opacity="0.700"/>
    <ellipse cx="715.49" cy="483.02" rx="9.83" ry="9.02" fill="url(#petalGrad)" opacity="1.000" filter="url(#softGlow)"/>
    <ellipse cx="715.49" cy="476.71" rx="6.88" ry="1.80" fill="#E8C96A" opacity="0.500"/><line x1="756.48" y1="456.00" x2="753.97" y2="474.00" stroke="#C9A84C" stroke-width="1" opacity="0.700"/>
    <ellipse cx="753.97" cy="484.34" rx="9.83" ry="10.34" fill="url(#petalGrad)" opacity="1.000" filter="url(#softGlow)"/>
    <ellipse cx="753.97" cy="477.10" rx="6.88" ry="2.07" fill="#E8C96A" opacity="0.500"/><line x1="796.91" y1="456.00" x2="793.98" y2="474.00" stroke="#C9A84C" stroke-width="1" opacity="0.700"/>
    <ellipse cx="793.98" cy="486.39" rx="9.83" ry="12.39" fill="url(#petalGrad)" opacity="1.000" filter="url(#softGlow)"/>
    <ellipse cx="793.98" cy="477.72" rx="6.88" ry="2.48" fill="#E8C96A" opacity="0.500"/><line x1="837.34" y1="456.00" x2="835.76" y2="474.00" stroke="#C9A84C" stroke-width="1" opacity="0.700"/>
    <ellipse cx="835.76" cy="486.91" rx="9.83" ry="12.91" fill="url(#petalGrad)" opacity="1.000" filter="url(#softGlow)"/>
    <ellipse cx="835.76" cy="477.87" rx="6.88" ry="2.58" fill="#E8C96A" opacity="0.500"/>
<ellipse cx="494.48" cy="370.00" rx="15.73" ry="13.37" fill="none" stroke="#C9A84C" stroke-width="1.5" opacity="0.700"/>
      <ellipse cx="494.48" cy="370.00" rx="8.65" ry="7.87" fill="#C9A84C" opacity="0.400"/><ellipse cx="784.52" cy="370.00" rx="15.73" ry="13.37" fill="none" stroke="#C9A84C" stroke-width="1.5" opacity="0.700"/>
      <ellipse cx="784.52" cy="370.00" rx="8.65" ry="7.87" fill="#C9A84C" opacity="0.400"/>
<ellipse cx="641.00" cy="340.00" rx="50.34" ry="44.80" fill="#C9A84C" opacity="0.109" filter="url(#glow)"/>
    <ellipse cx="641.00" cy="340.00" rx="31.46" ry="28.00" fill="url(#centerGem)" opacity="1.000" filter="url(#glow)" stroke="#E8C96A" stroke-width="2"/>
    <ellipse cx="633.14" cy="331.60" rx="7.87" ry="5.60" fill="white" opacity="0.350"/>

</svg>