<svg xmlns="http://www.w3.org/2000/svg" width="1280" height="720" viewBox="0 0 1280 720">
<defs>
    <radialGradient id="bgGrad" cx="50%" cy="50%" r="60%">
      <stop offset="0%" stop-color="#2A1200"/>
      <stop offset="100%" stop-color="#1A0A00"/>
    </radialGradient>
    <radialGradient id="glowGrad" cx="50%" cy="50%" r="50%">
      <stop offset="0%" stop-color="#C9A84C" stop-opacity="0.143"/>
      <stop offset="100%" stop-color="#C9A84C" stop-opacity="0"/>
    </radialGradient>
    <radialGradient id="centerGem" cx="50%" cy="50%" r="50%">
      <stop offset="0%" stop-color="#FFE8A0"/>
      <stop offset="40%" stop-color="#C9A84C"/>
      <stop offset="100%" stop-color="#8B6914"/>
    </radialGradient>
    <radialGradient id="petalGrad" cx="50%" cy="30%" r="70%">
      <stop offset="0%" stop-color="#E8C96A"/>
      <stop offset="60%" stop-color="#C9A84C"/>
      <stop offset="100%" stop-color="#8B6914"/>
    </radialGradient>
    <filter id="glow" x="-50%" y="-50%" width="200%" height="200%">
      <feGaussianBlur stdDeviation="4.57" result="coloredBlur"/>
      <feMerge><feMergeNode in="coloredBlur"/><feMergeNode in="SourceGraphic"/></feMerge>
    </filter>
    <filter id="softGlow" x="-30%" y="-30%" width="160%" height="160%">
      <feGaussianBlur stdDeviation="3" result="coloredBlur"/>
      <feMerge><feMergeNode in="coloredBlur"/><feMergeNode in="SourceGraphic"/></feMerge>
    </filter>
    <linearGradient id="plateGrad" x1="0%" y1="0%" x2="100%" y2="100%">
      <stop offset="0%" stop-color="#E8C96A"/>
      <stop offset="50%" stop-color="#C9A84C"/>
      <stop offset="100%" stop-color="#8B6914"/>
    </linearGradient>
  </defs>
<rect width="1280" height="720" fill="url(#bgGrad)"/>
<ellipse cx="640" cy="360" rx="169.45" ry="101.67" fill="url(#glowGrad)"/>
<circle cx="469.33" cy="258.54" r="1.98" fill="#C9A84C" opacity="0.516"/><circle cx="647.68" cy="312.70" r="1.75" fill="#C9A84C" opacity="0.574"/><circle cx="803.63" cy="445.20" r="0.68" fill="#C9A84C" opacity="0.620"/><circle cx="482.25" cy="436.58" r="0.34" fill="#C9A84C" opacity="0.654"/><circle cx="621.06" cy="301.11" r="1.22" fill="#C9A84C" opacity="0.675"/><circle cx="815.13" cy="263.19" r="2.04" fill="#C9A84C" opacity="0.681"/><circle cx="498.32" cy="385.62" r="1.59" fill="#C9A84C" opacity="0.672"/><circle cx="594.82" cy="465.62" r="0.54" fill="#C9A84C" opacity="0.649"/><circle cx="823.12" cy="370.67" r="0.42" fill="#C9A84C" opacity="0.613"/><circle cx="517.23" cy="258.05" r="1.41" fill="#C9A84C" opacity="0.565"/><circle cx="569.48" cy="314.30" r="2.06" fill="#C9A84C" opacity="0.505"/><circle cx="827.45" cy="446.25" r="1.41" fill="#C9A84C" opacity="0.436"/><circle cx="538.60" cy="435.34" r="0.42" fill="#C9A84C" opacity="0.361"/><circle cx="545.55" cy="299.64" r="0.53" fill="#C9A84C" opacity="0.280"/><circle cx="828.02" cy="263.92" r="1.59" fill="#C9A84C" opacity="0.211"/><circle cx="562.00" cy="387.35" r="2.04" fill="#C9A84C" opacity="0.294"/><circle cx="523.52" cy="465.48" r="1.23" fill="#C9A84C" opacity="0.374"/><circle cx="824.84" cy="368.90" r="0.34" fill="#C9A84C" opacity="0.448"/>
<path d="M 555.97,242.34 L 556.88,245.80 L 558.39,249.23 L 560.49,252.59 L 563.16,255.85 L 566.37,258.98 L 570.10,261.95 L 574.30,264.74 L 578.94,267.30 L 583.97,269.63 L 589.35,271.69 L 595.01,273.47 L 600.91,274.95 L 607.00,276.12 L 613.20,276.96 L 619.47,277.47 L 625.74,277.64 L 631.95,277.47 L 638.04,276.96 L 643.95,276.12 L 649.63,274.95 L 655.02,273.47 L 660.07,271.69 L 664.73,269.63 L 668.96,267.30 L 672.71,264.74 L 675.95,261.95 L 678.64,258.98 L 680.77,255.85 L 682.31,252.59 L 683.25,249.23 L 683.57,245.80 L 683.28,242.34 L 713.43,416.48 L 586.13,416.48 Z" fill="url(#plateGrad)" opacity="0.681" filter="url(#softGlow)" stroke="#E8C96A" stroke-width="1.5" stroke-opacity="0.6"/>
<polyline points="567.79,251.76 568.91,255.59 570.93,259.37 573.81,263.01 577.50,266.46 581.94,269.66 587.05,272.55 592.75,275.09 598.93,277.23 605.50,278.93 612.34,280.17 619.33,280.92 626.35,281.17 633.29,280.92 640.01,280.17 646.42,278.93 652.40,277.23 657.85,275.09 662.67,272.55 666.78,269.66 670.11,266.46 672.60,263.01 674.22,259.37 674.93,255.59 674.72,251.76" fill="none" stroke="#E8C96A" stroke-width="1" stroke-opacity="0.340"/>
<ellipse cx="562.95" cy="248.06" rx="5.42" ry="5.29" fill="url(#petalGrad)" opacity="0.613" filter="url(#softGlow)" stroke="#E8C96A" stroke-width="0.8"/><ellipse cx="571.76" cy="258.82" rx="5.42" ry="5.29" fill="url(#petalGrad)" opacity="0.613" filter="url(#softGlow)" stroke="#E8C96A" stroke-width="0.8"/><ellipse cx="586.35" cy="267.58" rx="5.42" ry="5.29" fill="url(#petalGrad)" opacity="0.613" filter="url(#softGlow)" stroke="#E8C96A" stroke-width="0.8"/><ellipse cx="604.96" cy="273.30" rx="5.42" ry="5.29" fill="url(#petalGrad)" opacity="0.613" filter="url(#softGlow)" stroke="#E8C96A" stroke-width="0.8"/><ellipse cx="625.33" cy="275.29" rx="5.42" ry="5.29" fill="url(#petalGrad)" opacity="0.613" filter="url(#softGlow)" stroke="#E8C96A" stroke-width="0.8"/><ellipse cx="645.02" cy="273.30" rx="5.42" ry="5.29" fill="url(#petalGrad)" opacity="0.613" filter="url(#softGlow)" stroke="#E8C96A" stroke-width="0.8"/><ellipse cx="661.64" cy="267.58" rx="5.42" ry="5.29" fill="url(#petalGrad)" opacity="0.613" filter="url(#softGlow)" stroke="#E8C96A" stroke-width="0.8"/><ellipse cx="673.19" cy="258.82" rx="5.42" ry="5.29" fill="url(#petalGrad)" opacity="0.613" filter="url(#softGlow)" stroke="#E8C96A" stroke-width="0.8"/><ellipse cx="678.29" cy="248.06" rx="5.42" ry="5.29" fill="url(#petalGrad)" opacity="0.613" filter="url(#softGlow)" stroke="#E8C96A" stroke-width="0.8"/>
<line x1="596.54" y1="416.48" x2="594.94" y2="427.06" stroke="#C9A84C" stroke-width="1" opacity="0.476"/>
    <ellipse cx="594.94" cy="434.70" rx="3.87" ry="7.64" fill="url(#petalGrad)" opacity="0.681" filter="url(#softGlow)"/>
    <ellipse cx="594.94" cy="429.36" rx="2.71" ry="1.53" fill="#E8C96A" opacity="0.340"/><line x1="607.19" y1="416.48" x2="605.54" y2="427.06" stroke="#C9A84C" stroke-width="1" opacity="0.476"/>
    <ellipse cx="605.54" cy="434.22" rx="3.87" ry="7.15" fill="url(#petalGrad)" opacity="0.681" filter="url(#softGlow)"/>
    <ellipse cx="605.54" cy="429.21" rx="2.71" ry="1.43" fill="#E8C96A" opacity="0.340"/><line x1="617.84" y1="416.48" x2="617.14" y2="427.06" stroke="#C9A84C" stroke-width="1" opacity="0.476"/>
    <ellipse cx="617.14" cy="432.99" rx="3.87" ry="5.92" fill="url(#petalGrad)" opacity="0.681" filter="url(#softGlow)"/>
    <ellipse cx="617.14" cy="428.84" rx="2.71" ry="1.18" fill="#E8C96A" opacity="0.340"/><line x1="628.48" y1="416.48" x2="629.16" y2="427.06" stroke="#C9A84C" stroke-width="1" opacity="0.476"/>
    <ellipse cx="629.16" cy="432.36" rx="3.87" ry="5.29" fill="url(#petalGrad)" opacity="0.681" filter="url(#softGlow)"/>
    <ellipse cx="629.16" cy="428.65" rx="2.71" ry="1.06" fill="#E8C96A" opacity="0.340"/><line x1="639.13" y1="416.48" x2="640.77" y2="427.06" stroke="#C9A84C" stroke-width="1" opacity="0.476"/>
    <ellipse cx="640.77" cy="433.02" rx="3.87" ry="5.95" fill="url(#petalGrad)" opacity="0.681" filter="url(#softGlow)"/>
    <ellipse cx="640.77" cy="428.85" rx="2.71" ry="1.19" fill="#E8C96A" opacity="0.340"/><line x1="649.78" y1="416.48" x2="651.39" y2="427.06" stroke="#C9A84C" stroke-width="1" opacity="0.476"/>
    <ellipse cx="651.39" cy="434.24" rx="3.87" ry="7.18" fill="url(#petalGrad)" opacity="0.681" filter="url(#softGlow)"/>
    <ellipse cx="651.39" cy="429.22" rx="2.71" ry="1.44" fill="#E8C96A" opacity="0.340"/><line x1="660.43" y1="416.48" x2="661.03" y2="427.06" stroke="#C9A84C" stroke-width="1" opacity="0.476"/>
    <ellipse cx="661.03" cy="434.69" rx="3.87" ry="7.63" fill="url(#petalGrad)" opacity="0.681" filter="url(#softGlow)"/>
    <ellipse cx="661.03" cy="429.35" rx="2.71" ry="1.53" fill="#E8C96A" opacity="0.340"/><line x1="671.07" y1="416.48" x2="670.30" y2="427.06" stroke="#C9A84C" stroke-width="1" opacity="0.476"/>
    <ellipse cx="670.30" cy="433.88" rx="3.87" ry="6.82" fill="url(#petalGrad)" opacity="0.681" filter="url(#softGlow)"/>
    <ellipse cx="670.30" cy="429.11" rx="2.71" ry="1.36" fill="#E8C96A" opacity="0.340"/><line x1="681.72" y1="416.48" x2="680.05" y2="427.06" stroke="#C9A84C" stroke-width="1" opacity="0.476"/>
    <ellipse cx="680.05" cy="432.69" rx="3.87" ry="5.63" fill="url(#petalGrad)" opacity="0.681" filter="url(#softGlow)"/>
    <ellipse cx="680.05" cy="428.75" rx="2.71" ry="1.13" fill="#E8C96A" opacity="0.340"/><line x1="692.37" y1="416.48" x2="690.80" y2="427.06" stroke="#C9A84C" stroke-width="1" opacity="0.476"/>
    <ellipse cx="690.80" cy="432.42" rx="3.87" ry="5.36" fill="url(#petalGrad)" opacity="0.681" filter="url(#softGlow)"/>
    <ellipse cx="690.80" cy="428.67" rx="2.71" ry="1.07" fill="#E8C96A" opacity="0.340"/><line x1="703.02" y1="416.48" x2="702.51" y2="427.06" stroke="#C9A84C" stroke-width="1" opacity="0.476"/>
    <ellipse cx="702.51" cy="433.37" rx="3.87" ry="6.31" fill="url(#petalGrad)" opacity="0.681" filter="url(#softGlow)"/>
    <ellipse cx="702.51" cy="428.96" rx="2.71" ry="1.26" fill="#E8C96A" opacity="0.340"/>
<ellipse cx="602.83" cy="365.88" rx="6.19" ry="5.26" fill="none" stroke="#C9A84C" stroke-width="1.5" opacity="0.476"/>
      <ellipse cx="602.83" cy="365.88" rx="3.41" ry="3.10" fill="#C9A84C" opacity="0.272"/><ellipse cx="679.21" cy="365.88" rx="6.19" ry="5.26" fill="none" stroke="#C9A84C" stroke-width="1.5" opacity="0.476"/>
      <ellipse cx="679.21" cy="365.88" rx="3.41" ry="3.10" fill="#C9A84C" opacity="0.272"/>
<ellipse cx="637.96" cy="348.23" rx="19.82" ry="26.36" fill="#C9A84C" opacity="0.058" filter="url(#glow)"/>
    <ellipse cx="637.96" cy="348.23" rx="12.38" ry="16.47" fill="url(#centerGem)" opacity="0.681" filter="url(#glow)" stroke="#E8C96A" stroke-width="2"/>
    <ellipse cx="634.87" cy="343.29" rx="3.10" ry="3.29" fill="white" opacity="0.238"/>

</svg>