<svg xmlns="http://www.w3.org/2000/svg" width="1280" height="720" viewBox="0 0 1280 720">
<defs>
    <radialGradient id="bgGrad" cx="50%" cy="50%" r="60%">
      <stop offset="0%" stop-color="#2A1200"/>
      <stop offset="100%" stop-color="#1A0A00"/>
    </radialGradient>
    <radialGradient id="glowGrad" cx="50%" cy="50%" r="50%">
      <stop offset="0%" stop-color="#C9A84C" stop-opacity="0.131"/>
      <stop offset="100%" stop-color="#C9A84C" stop-opacity="0"/>
    </radialGradient>
    <radialGradient id="centerGem" cx="50%" cy="50%" r="50%">
      <stop offset="0%" stop-color="#FFE8A0"/>
      <stop offset="40%" stop-color="#C9A84C"/>
      <stop offset="100%" stop-color="#8B6914"/>
    </radialGradient>
    <radialGradient id="petalGrad" cx="50%" cy="30%" r="70%">
      <stop offset="0%" stop-color="#E8C96A"/>
      <stop offset="60%" stop-color="#C9A84C"/>
      <stop offset="100%" stop-color="#8B6914"/>
    </radialGradient>
    <filter id="glow" x="-50%" y="-50%" width="200%" height="200%">
      <feGaussianBlur stdDeviation="4.21" result="coloredBlur"/>
      <feMerge><feMergeNode in="coloredBlur"/><feMergeNode in="SourceGraphic"/></feMerge>
    </filter>
    <filter id="softGlow" x="-30%" y="-30%" width="160%" height="160%">
      <feGaussianBlur stdDeviation="3" result="coloredBlur"/>
      <feMerge><feMergeNode in="coloredBlur"/><feMergeNode in="SourceGraphic"/></feMerge>
    </filter>
    <linearGradient id="plateGrad" x1="0%" y1="0%" x2="100%" y2="100%">
      <stop offset="0%" stop-color="#E8C96A"/>
      <stop offset="50%" stop-color="#C9A84C"/>
      <stop offset="100%" stop-color="#8B6914"/>
    </linearGradient>
  </defs>
<rect width="1280" height="720" fill="url(#bgGrad)"/>
<ellipse cx="640" cy="360" rx="85.31" ry="51.19" fill="url(#glowGrad)"/>
<circle cx="670.06" cy="413.08" r="0.64" fill="#C9A84C" opacity="0.017"/><circle cx="707.71" cy="357.91" r="1.05" fill="#C9A84C" opacity="0.023"/><circle cx="547.84" cy="306.20" r="0.80" fill="#C9A84C" opacity="0.029"/><circle cx="656.82" cy="343.61" r="0.27" fill="#C9A84C" opacity="0.034"/><circle cx="716.73" cy="408.16" r="0.22" fill="#C9A84C" opacity="0.039"/><circle cx="552.80" cy="392.94" r="0.74" fill="#C9A84C" opacity="0.043"/><circle cx="643.24" cy="323.16" r="1.06" fill="#C9A84C" opacity="0.047"/><circle cx="724.22" cy="314.40" r="0.71" fill="#C9A84C" opacity="0.049"/><circle cx="559.51" cy="381.17" r="0.21" fill="#C9A84C" opacity="0.050"/><circle cx="629.60" cy="412.88" r="0.28" fill="#C9A84C" opacity="0.050"/><circle cx="730.03" cy="357.00" r="0.83" fill="#C9A84C" opacity="0.050"/><circle cx="567.83" cy="306.09" r="1.04" fill="#C9A84C" opacity="0.048"/><circle cx="616.16" cy="344.48" r="0.61" fill="#C9A84C" opacity="0.045"/><circle cx="734.03" cy="408.58" r="0.17" fill="#C9A84C" opacity="0.041"/><circle cx="577.59" cy="392.21" r="0.36" fill="#C9A84C" opacity="0.036"/><circle cx="603.21" cy="322.49" r="0.91" fill="#C9A84C" opacity="0.031"/><circle cx="736.16" cy="314.90" r="1.01" fill="#C9A84C" opacity="0.025"/><circle cx="588.60" cy="382.01" r="0.52" fill="#C9A84C" opacity="0.019"/>
<path d="M 563.83,299.68 L 564.22,301.46 L 565.33,303.21 L 567.16,304.94 L 569.67,306.61 L 572.85,308.21 L 576.66,309.74 L 581.08,311.16 L 586.05,312.48 L 591.53,313.67 L 597.46,314.73 L 603.80,315.64 L 610.47,316.40 L 617.42,317.00 L 624.57,317.43 L 631.86,317.69 L 639.22,317.78 L 646.58,317.69 L 653.86,317.43 L 661.00,317.00 L 667.92,316.40 L 674.56,315.64 L 680.87,314.73 L 686.76,313.67 L 692.20,312.48 L 697.12,311.16 L 701.48,309.74 L 705.24,308.21 L 708.36,306.61 L 710.81,304.94 L 712.57,303.21 L 713.62,301.46 L 713.95,299.68 L 715.59,388.95 L 565.47,388.95 Z" fill="url(#plateGrad)" opacity="0.050" filter="url(#softGlow)" stroke="#E8C96A" stroke-width="1.5" stroke-opacity="0.6"/>
<polyline points="575.93,304.51 576.50,306.48 578.15,308.41 580.83,310.28 584.51,312.05 589.12,313.69 594.59,315.17 600.81,316.47 607.69,317.57 615.11,318.44 622.93,319.07 631.02,319.46 639.25,319.59 647.48,319.46 655.56,319.07 663.36,318.44 670.74,317.57 677.58,316.47 683.76,315.17 689.17,313.69 693.72,312.05 697.33,310.28 699.95,308.41 701.52,306.48 702.03,304.51" fill="none" stroke="#E8C96A" stroke-width="1" stroke-opacity="0.025"/>
<ellipse cx="570.94" cy="302.62" rx="4.21" ry="2.71" fill="url(#petalGrad)" opacity="0.045" filter="url(#softGlow)" stroke="#E8C96A" stroke-width="0.8"/><ellipse cx="579.24" cy="308.13" rx="4.21" ry="2.71" fill="url(#petalGrad)" opacity="0.045" filter="url(#softGlow)" stroke="#E8C96A" stroke-width="0.8"/><ellipse cx="594.74" cy="312.62" rx="4.21" ry="2.71" fill="url(#petalGrad)" opacity="0.045" filter="url(#softGlow)" stroke="#E8C96A" stroke-width="0.8"/><ellipse cx="615.56" cy="315.55" rx="4.21" ry="2.71" fill="url(#petalGrad)" opacity="0.045" filter="url(#softGlow)" stroke="#E8C96A" stroke-width="0.8"/><ellipse cx="639.20" cy="316.57" rx="4.21" ry="2.71" fill="url(#petalGrad)" opacity="0.045" filter="url(#softGlow)" stroke="#E8C96A" stroke-width="0.8"/><ellipse cx="662.80" cy="315.55" rx="4.21" ry="2.71" fill="url(#petalGrad)" opacity="0.045" filter="url(#softGlow)" stroke="#E8C96A" stroke-width="0.8"/><ellipse cx="683.51" cy="312.62" rx="4.21" ry="2.71" fill="url(#petalGrad)" opacity="0.045" filter="url(#softGlow)" stroke="#E8C96A" stroke-width="0.8"/><ellipse cx="698.85" cy="308.13" rx="4.21" ry="2.71" fill="url(#petalGrad)" opacity="0.045" filter="url(#softGlow)" stroke="#E8C96A" stroke-width="0.8"/><ellipse cx="706.95" cy="302.62" rx="4.21" ry="2.71" fill="url(#petalGrad)" opacity="0.045" filter="url(#softGlow)" stroke="#E8C96A" stroke-width="0.8"/>
<line x1="577.76" y1="388.95" x2="578.04" y2="394.38" stroke="#C9A84C" stroke-width="1" opacity="0.035"/>
    <ellipse cx="578.04" cy="397.76" rx="3.01" ry="3.38" fill="url(#petalGrad)" opacity="0.050" filter="url(#softGlow)"/>
    <ellipse cx="578.04" cy="395.39" rx="2.11" ry="0.68" fill="#E8C96A" opacity="0.025"/><line x1="590.31" y1="388.95" x2="591.13" y2="394.38" stroke="#C9A84C" stroke-width="1" opacity="0.035"/>
    <ellipse cx="591.13" cy="398.26" rx="3.01" ry="3.88" fill="url(#petalGrad)" opacity="0.050" filter="url(#softGlow)"/>
    <ellipse cx="591.13" cy="395.54" rx="2.11" ry="0.78" fill="#E8C96A" opacity="0.025"/><line x1="602.87" y1="388.95" x2="603.72" y2="394.38" stroke="#C9A84C" stroke-width="1" opacity="0.035"/>
    <ellipse cx="603.72" cy="398.15" rx="3.01" ry="3.76" fill="url(#petalGrad)" opacity="0.050" filter="url(#softGlow)"/>
    <ellipse cx="603.72" cy="395.51" rx="2.11" ry="0.75" fill="#E8C96A" opacity="0.025"/><line x1="615.42" y1="388.95" x2="615.80" y2="394.38" stroke="#C9A84C" stroke-width="1" opacity="0.035"/>
    <ellipse cx="615.80" cy="397.54" rx="3.01" ry="3.16" fill="url(#petalGrad)" opacity="0.050" filter="url(#softGlow)"/>
    <ellipse cx="615.80" cy="395.33" rx="2.11" ry="0.63" fill="#E8C96A" opacity="0.025"/><line x1="627.98" y1="388.95" x2="627.65" y2="394.38" stroke="#C9A84C" stroke-width="1" opacity="0.035"/>
    <ellipse cx="627.65" cy="397.11" rx="3.01" ry="2.73" fill="url(#petalGrad)" opacity="0.050" filter="url(#softGlow)"/>
    <ellipse cx="627.65" cy="395.20" rx="2.11" ry="0.55" fill="#E8C96A" opacity="0.025"/><line x1="640.53" y1="388.95" x2="639.70" y2="394.38" stroke="#C9A84C" stroke-width="1" opacity="0.035"/>
    <ellipse cx="639.70" cy="397.32" rx="3.01" ry="2.94" fill="url(#petalGrad)" opacity="0.050" filter="url(#softGlow)"/>
    <ellipse cx="639.70" cy="395.26" rx="2.11" ry="0.59" fill="#E8C96A" opacity="0.025"/><line x1="653.09" y1="388.95" x2="652.26" y2="394.38" stroke="#C9A84C" stroke-width="1" opacity="0.035"/>
    <ellipse cx="652.26" cy="397.95" rx="3.01" ry="3.56" fill="url(#petalGrad)" opacity="0.050" filter="url(#softGlow)"/>
    <ellipse cx="652.26" cy="395.45" rx="2.11" ry="0.71" fill="#E8C96A" opacity="0.025"/><line x1="665.64" y1="388.95" x2="665.32" y2="394.38" stroke="#C9A84C" stroke-width="1" opacity="0.035"/>
    <ellipse cx="665.32" cy="398.30" rx="3.01" ry="3.92" fill="url(#petalGrad)" opacity="0.050" filter="url(#softGlow)"/>
    <ellipse cx="665.32" cy="395.56" rx="2.11" ry="0.78" fill="#E8C96A" opacity="0.025"/><line x1="678.20" y1="388.95" x2="678.58" y2="394.38" stroke="#C9A84C" stroke-width="1" opacity="0.035"/>
    <ellipse cx="678.58" cy="398.00" rx="3.01" ry="3.62" fill="url(#petalGrad)" opacity="0.050" filter="url(#softGlow)"/>
    <ellipse cx="678.58" cy="395.47" rx="2.11" ry="0.72" fill="#E8C96A" opacity="0.025"/><line x1="690.76" y1="388.95" x2="691.61" y2="394.38" stroke="#C9A84C" stroke-width="1" opacity="0.035"/>
    <ellipse cx="691.61" cy="397.37" rx="3.01" ry="2.99" fill="url(#petalGrad)" opacity="0.050" filter="url(#softGlow)"/>
    <ellipse cx="691.61" cy="395.28" rx="2.11" ry="0.60" fill="#E8C96A" opacity="0.025"/><line x1="703.31" y1="388.95" x2="704.12" y2="394.38" stroke="#C9A84C" stroke-width="1" opacity="0.035"/>
    <ellipse cx="704.12" cy="397.10" rx="3.01" ry="2.72" fill="url(#petalGrad)" opacity="0.050" filter="url(#softGlow)"/>
    <ellipse cx="704.12" cy="395.20" rx="2.11" ry="0.54" fill="#E8C96A" opacity="0.025"/>
<ellipse cx="595.02" cy="363.02" rx="4.81" ry="4.09" fill="none" stroke="#C9A84C" stroke-width="1.5" opacity="0.035"/>
      <ellipse cx="595.02" cy="363.02" rx="2.65" ry="2.41" fill="#C9A84C" opacity="0.020"/><ellipse cx="685.09" cy="363.02" rx="4.81" ry="4.09" fill="none" stroke="#C9A84C" stroke-width="1.5" opacity="0.035"/>
      <ellipse cx="685.09" cy="363.02" rx="2.65" ry="2.41" fill="#C9A84C" opacity="0.020"/>
<ellipse cx="639.89" cy="353.97" rx="15.41" ry="13.51" fill="#C9A84C" opacity="0.004" filter="url(#glow)"/>
    <ellipse cx="639.89" cy="353.97" rx="9.63" ry="8.44" fill="url(#centerGem)" opacity="0.050" filter="url(#glow)" stroke="#E8C96A" stroke-width="2"/>
    <ellipse cx="637.48" cy="351.44" rx="2.41" ry="1.69" fill="white" opacity="0.018"/>

</svg>