<svg xmlns="http://www.w3.org/2000/svg" width="1280" height="720" viewBox="0 0 1280 720">
<defs>
    <radialGradient id="bgGrad" cx="50%" cy="50%" r="60%">
      <stop offset="0%" stop-color="#2A1200"/>
      <stop offset="100%" stop-color="#1A0A00"/>
    </radialGradient>
    <radialGradient id="glowGrad" cx="50%" cy="50%" r="50%">
      <stop offset="0%" stop-color="#C9A84C" stop-opacity="0.236"/>
      <stop offset="100%" stop-color="#C9A84C" stop-opacity="0"/>
    </radialGradient>
    <radialGradient id="centerGem" cx="50%" cy="50%" r="50%">
      <stop offset="0%" stop-color="#FFE8A0"/>
      <stop offset="40%" stop-color="#C9A84C"/>
      <stop offset="100%" stop-color="#8B6914"/>
    </radialGradient>
    <radialGradient id="petalGrad" cx="50%" cy="30%" r="70%">
      <stop offset="0%" stop-color="#E8C96A"/>
      <stop offset="60%" stop-color="#C9A84C"/>
      <stop offset="100%" stop-color="#8B6914"/>
    </radialGradient>
    <filter id="glow" x="-50%" y="-50%" width="200%" height="200%">
      <feGaussianBlur stdDeviation="7.55" result="coloredBlur"/>
      <feMerge><feMergeNode in="coloredBlur"/><feMergeNode in="SourceGraphic"/></feMerge>
    </filter>
    <filter id="softGlow" x="-30%" y="-30%" width="160%" height="160%">
      <feGaussianBlur stdDeviation="3" result="coloredBlur"/>
      <feMerge><feMergeNode in="coloredBlur"/><feMergeNode in="SourceGraphic"/></feMerge>
    </filter>
    <linearGradient id="plateGrad" x1="0%" y1="0%" x2="100%" y2="100%">
      <stop offset="0%" stop-color="#E8C96A"/>
      <stop offset="50%" stop-color="#C9A84C"/>
      <stop offset="100%" stop-color="#8B6914"/>
    </linearGradient>
  </defs>
<rect width="1280" height="720" fill="url(#bgGrad)"/>
<ellipse cx="640" cy="360" rx="145.99" ry="87.59" fill="url(#glowGrad)"/>
<circle cx="658.65" cy="326.37" r="1.36" fill="#C9A84C" opacity="0.305"/><circle cx="506.64" cy="283.04" r="1.46" fill="#C9A84C" opacity="0.354"/><circle cx="743.67" cy="367.18" r="0.72" fill="#C9A84C" opacity="0.396"/><circle cx="678.28" cy="439.43" r="0.22" fill="#C9A84C" opacity="0.430"/><circle cx="501.22" cy="380.11" r="0.70" fill="#C9A84C" opacity="0.456"/><circle cx="729.00" cy="287.48" r="1.45" fill="#C9A84C" opacity="0.473"/><circle cx="697.15" cy="314.97" r="1.37" fill="#C9A84C" opacity="0.479"/><circle cx="498.58" cy="417.05" r="0.58" fill="#C9A84C" opacity="0.475"/><circle cx="712.55" cy="424.63" r="0.23" fill="#C9A84C" opacity="0.461"/><circle cx="714.87" cy="325.16" r="0.84" fill="#C9A84C" opacity="0.438"/><circle cx="498.77" cy="283.40" r="1.51" fill="#C9A84C" opacity="0.405"/><circle cx="694.65" cy="368.52" r="1.27" fill="#C9A84C" opacity="0.365"/><circle cx="731.10" cy="439.53" r="0.46" fill="#C9A84C" opacity="0.318"/><circle cx="501.79" cy="378.81" r="0.28" fill="#C9A84C" opacity="0.265"/><circle cx="675.66" cy="286.94" r="0.98" fill="#C9A84C" opacity="0.209"/><circle cx="745.50" cy="316.09" r="1.54" fill="#C9A84C" opacity="0.151"/><circle cx="507.58" cy="417.97" r="1.14" fill="#C9A84C" opacity="0.195"/><circle cx="655.95" cy="423.83" r="0.36" fill="#C9A84C" opacity="0.251"/>
<path d="M 553.40,271.45 L 554.14,274.05 L 555.58,276.63 L 557.71,279.16 L 560.50,281.61 L 563.93,283.97 L 567.97,286.21 L 572.58,288.30 L 577.71,290.23 L 583.32,291.98 L 589.34,293.54 L 595.73,294.88 L 602.42,295.99 L 609.34,296.87 L 616.43,297.50 L 623.63,297.89 L 630.85,298.01 L 638.04,297.89 L 645.12,297.50 L 652.03,296.87 L 658.69,295.99 L 665.05,294.88 L 671.04,293.54 L 676.61,291.98 L 681.70,290.23 L 686.26,288.30 L 690.25,286.21 L 693.63,283.97 L 696.37,281.61 L 698.44,279.16 L 699.82,276.63 L 700.49,274.05 L 700.46,271.45 L 719.80,402.50 L 572.74,402.50 Z" fill="url(#plateGrad)" opacity="0.479" filter="url(#softGlow)" stroke="#E8C96A" stroke-width="1.5" stroke-opacity="0.6"/>
<polyline points="566.21,278.53 567.17,281.42 569.16,284.26 572.16,287.00 576.12,289.60 580.97,292.01 586.61,294.19 592.97,296.10 599.92,297.70 607.36,298.99 615.15,299.92 623.16,300.48 631.25,300.67 639.28,300.48 647.12,299.92 654.63,298.99 661.69,297.70 668.17,296.10 673.96,294.19 678.97,292.01 683.10,289.60 686.29,287.00 688.49,284.26 689.64,281.42 689.74,278.53" fill="none" stroke="#E8C96A" stroke-width="1" stroke-opacity="0.239"/>
<ellipse cx="560.95" cy="275.75" rx="5.05" ry="3.98" fill="url(#petalGrad)" opacity="0.431" filter="url(#softGlow)" stroke="#E8C96A" stroke-width="0.8"/><ellipse cx="570.18" cy="283.85" rx="5.05" ry="3.98" fill="url(#petalGrad)" opacity="0.431" filter="url(#softGlow)" stroke="#E8C96A" stroke-width="0.8"/><ellipse cx="586.25" cy="290.44" rx="5.05" ry="3.98" fill="url(#petalGrad)" opacity="0.431" filter="url(#softGlow)" stroke="#E8C96A" stroke-width="0.8"/><ellipse cx="607.23" cy="294.75" rx="5.05" ry="3.98" fill="url(#petalGrad)" opacity="0.431" filter="url(#softGlow)" stroke="#E8C96A" stroke-width="0.8"/><ellipse cx="630.59" cy="296.24" rx="5.05" ry="3.98" fill="url(#petalGrad)" opacity="0.431" filter="url(#softGlow)" stroke="#E8C96A" stroke-width="0.8"/><ellipse cx="653.51" cy="294.75" rx="5.05" ry="3.98" fill="url(#petalGrad)" opacity="0.431" filter="url(#softGlow)" stroke="#E8C96A" stroke-width="0.8"/><ellipse cx="673.22" cy="290.44" rx="5.05" ry="3.98" fill="url(#petalGrad)" opacity="0.431" filter="url(#softGlow)" stroke="#E8C96A" stroke-width="0.8"/><ellipse cx="687.35" cy="283.85" rx="5.05" ry="3.98" fill="url(#petalGrad)" opacity="0.431" filter="url(#softGlow)" stroke="#E8C96A" stroke-width="0.8"/><ellipse cx="694.19" cy="275.75" rx="5.05" ry="3.98" fill="url(#petalGrad)" opacity="0.431" filter="url(#softGlow)" stroke="#E8C96A" stroke-width="0.8"/>
<line x1="584.77" y1="402.50" x2="584.95" y2="410.47" stroke="#C9A84C" stroke-width="1" opacity="0.335"/>
    <ellipse cx="584.95" cy="416.09" rx="3.61" ry="5.62" fill="url(#petalGrad)" opacity="0.479" filter="url(#softGlow)"/>
    <ellipse cx="584.95" cy="412.16" rx="2.53" ry="1.12" fill="#E8C96A" opacity="0.239"/><line x1="597.07" y1="402.50" x2="596.25" y2="410.47" stroke="#C9A84C" stroke-width="1" opacity="0.335"/>
    <ellipse cx="596.25" cy="416.11" rx="3.61" ry="5.63" fill="url(#petalGrad)" opacity="0.479" filter="url(#softGlow)"/>
    <ellipse cx="596.25" cy="412.16" rx="2.53" ry="1.13" fill="#E8C96A" opacity="0.239"/><line x1="609.37" y1="402.50" x2="608.05" y2="410.47" stroke="#C9A84C" stroke-width="1" opacity="0.335"/>
    <ellipse cx="608.05" cy="415.29" rx="3.61" ry="4.82" fill="url(#petalGrad)" opacity="0.479" filter="url(#softGlow)"/>
    <ellipse cx="608.05" cy="411.92" rx="2.53" ry="0.96" fill="#E8C96A" opacity="0.239"/><line x1="621.67" y1="402.50" x2="620.65" y2="410.47" stroke="#C9A84C" stroke-width="1" opacity="0.335"/>
    <ellipse cx="620.65" cy="414.53" rx="3.61" ry="4.06" fill="url(#petalGrad)" opacity="0.479" filter="url(#softGlow)"/>
    <ellipse cx="620.65" cy="411.69" rx="2.53" ry="0.81" fill="#E8C96A" opacity="0.239"/><line x1="633.97" y1="402.50" x2="633.87" y2="410.47" stroke="#C9A84C" stroke-width="1" opacity="0.335"/>
    <ellipse cx="633.87" cy="414.66" rx="3.61" ry="4.19" fill="url(#petalGrad)" opacity="0.479" filter="url(#softGlow)"/>
    <ellipse cx="633.87" cy="411.73" rx="2.53" ry="0.84" fill="#E8C96A" opacity="0.239"/><line x1="646.27" y1="402.50" x2="647.15" y2="410.47" stroke="#C9A84C" stroke-width="1" opacity="0.335"/>
    <ellipse cx="647.15" cy="415.54" rx="3.61" ry="5.06" fill="url(#petalGrad)" opacity="0.479" filter="url(#softGlow)"/>
    <ellipse cx="647.15" cy="411.99" rx="2.53" ry="1.01" fill="#E8C96A" opacity="0.239"/><line x1="658.57" y1="402.50" x2="659.90" y2="410.47" stroke="#C9A84C" stroke-width="1" opacity="0.335"/>
    <ellipse cx="659.90" cy="416.20" rx="3.61" ry="5.73" fill="url(#petalGrad)" opacity="0.479" filter="url(#softGlow)"/>
    <ellipse cx="659.90" cy="412.19" rx="2.53" ry="1.15" fill="#E8C96A" opacity="0.239"/><line x1="670.87" y1="402.50" x2="671.84" y2="410.47" stroke="#C9A84C" stroke-width="1" opacity="0.335"/>
    <ellipse cx="671.84" cy="415.93" rx="3.61" ry="5.46" fill="url(#petalGrad)" opacity="0.479" filter="url(#softGlow)"/>
    <ellipse cx="671.84" cy="412.11" rx="2.53" ry="1.09" fill="#E8C96A" opacity="0.239"/><line x1="683.17" y1="402.50" x2="683.19" y2="410.47" stroke="#C9A84C" stroke-width="1" opacity="0.335"/>
    <ellipse cx="683.19" cy="415.02" rx="3.61" ry="4.54" fill="url(#petalGrad)" opacity="0.479" filter="url(#softGlow)"/>
    <ellipse cx="683.19" cy="411.84" rx="2.53" ry="0.91" fill="#E8C96A" opacity="0.239"/><line x1="695.47" y1="402.50" x2="694.53" y2="410.47" stroke="#C9A84C" stroke-width="1" opacity="0.335"/>
    <ellipse cx="694.53" cy="414.46" rx="3.61" ry="3.99" fill="url(#petalGrad)" opacity="0.479" filter="url(#softGlow)"/>
    <ellipse cx="694.53" cy="411.67" rx="2.53" ry="0.80" fill="#E8C96A" opacity="0.239"/><line x1="707.77" y1="402.50" x2="706.44" y2="410.47" stroke="#C9A84C" stroke-width="1" opacity="0.335"/>
    <ellipse cx="706.44" cy="414.87" rx="3.61" ry="4.40" fill="url(#petalGrad)" opacity="0.479" filter="url(#softGlow)"/>
    <ellipse cx="706.44" cy="411.79" rx="2.53" ry="0.88" fill="#E8C96A" opacity="0.239"/>
<ellipse cx="596.53" cy="364.43" rx="5.77" ry="4.91" fill="none" stroke="#C9A84C" stroke-width="1.5" opacity="0.335"/>
      <ellipse cx="596.53" cy="364.43" rx="3.18" ry="2.89" fill="#C9A84C" opacity="0.192"/><ellipse cx="684.77" cy="364.43" rx="5.77" ry="4.91" fill="none" stroke="#C9A84C" stroke-width="1.5" opacity="0.335"/>
      <ellipse cx="684.77" cy="364.43" rx="3.18" ry="2.89" fill="#C9A84C" opacity="0.192"/>
<ellipse cx="638.69" cy="351.14" rx="18.48" ry="19.84" fill="#C9A84C" opacity="0.068" filter="url(#glow)"/>
    <ellipse cx="638.69" cy="351.14" rx="11.55" ry="12.40" fill="url(#centerGem)" opacity="0.479" filter="url(#glow)" stroke="#E8C96A" stroke-width="2"/>
    <ellipse cx="635.81" cy="347.43" rx="2.89" ry="2.48" fill="white" opacity="0.168"/>

</svg>