<svg xmlns="http://www.w3.org/2000/svg" width="1280" height="720" viewBox="0 0 1280 720">
<defs>
    <radialGradient id="bgGrad" cx="50%" cy="50%" r="60%">
      <stop offset="0%" stop-color="#2A1200"/>
      <stop offset="100%" stop-color="#1A0A00"/>
    </radialGradient>
    <radialGradient id="glowGrad" cx="50%" cy="50%" r="50%">
      <stop offset="0%" stop-color="#C9A84C" stop-opacity="0.014"/>
      <stop offset="100%" stop-color="#C9A84C" stop-opacity="0"/>
    </radialGradient>
    <radialGradient id="centerGem" cx="50%" cy="50%" r="50%">
      <stop offset="0%" stop-color="#FFE8A0"/>
      <stop offset="40%" stop-color="#C9A84C"/>
      <stop offset="100%" stop-color="#8B6914"/>
    </radialGradient>
    <radialGradient id="petalGrad" cx="50%" cy="30%" r="70%">
      <stop offset="0%" stop-color="#E8C96A"/>
      <stop offset="60%" stop-color="#C9A84C"/>
      <stop offset="100%" stop-color="#8B6914"/>
    </radialGradient>
    <filter id="glow" x="-50%" y="-50%" width="200%" height="200%">
      <feGaussianBlur stdDeviation="0.46" result="coloredBlur"/>
      <feMerge><feMergeNode in="coloredBlur"/><feMergeNode in="SourceGraphic"/></feMerge>
    </filter>
    <filter id="softGlow" x="-30%" y="-30%" width="160%" height="160%">
      <feGaussianBlur stdDeviation="3" result="coloredBlur"/>
      <feMerge><feMergeNode in="coloredBlur"/><feMergeNode in="SourceGraphic"/></feMerge>
    </filter>
    <linearGradient id="plateGrad" x1="0%" y1="0%" x2="100%" y2="100%">
      <stop offset="0%" stop-color="#E8C96A"/>
      <stop offset="50%" stop-color="#C9A84C"/>
      <stop offset="100%" stop-color="#8B6914"/>
    </linearGradient>
  </defs>
<rect width="1280" height="720" fill="url(#bgGrad)"/>
<ellipse cx="640" cy="360" rx="230.46" ry="138.27" fill="url(#glowGrad)"/>
<circle cx="836.20" cy="212.18" r="0.87" fill="#C9A84C" opacity="0.714"/><circle cx="325.38" cy="435.78" r="0.74" fill="#C9A84C" opacity="0.610"/><circle cx="732.36" cy="533.86" r="2.46" fill="#C9A84C" opacity="0.496"/><circle cx="869.91" cy="343.96" r="3.50" fill="#C9A84C" opacity="0.377"/><circle cx="336.77" cy="180.63" r="2.35" fill="#C9A84C" opacity="0.345"/><circle cx="688.20" cy="314.40" r="0.69" fill="#C9A84C" opacity="0.466"/><circle cx="899.02" cy="523.70" r="0.95" fill="#C9A84C" opacity="0.581"/><circle cx="354.23" cy="461.85" r="2.75" fill="#C9A84C" opacity="0.688"/><circle cx="643.08" cy="231.29" r="3.45" fill="#C9A84C" opacity="0.784"/><circle cx="922.94" cy="213.92" r="2.02" fill="#C9A84C" opacity="0.864"/><circle cx="377.42" cy="438.51" r="0.56" fill="#C9A84C" opacity="0.928"/><circle cx="597.89" cy="533.06" r="1.21" fill="#C9A84C" opacity="0.972"/><circle cx="941.21" cy="340.95" r="3.01" fill="#C9A84C" opacity="0.996"/><circle cx="405.85" cy="180.40" r="3.34" fill="#C9A84C" opacity="0.999"/><circle cx="553.55" cy="317.33" r="1.70" fill="#C9A84C" opacity="0.980"/><circle cx="953.44" cy="524.94" r="0.50" fill="#C9A84C" opacity="0.941"/><circle cx="438.98" cy="459.34" r="1.50" fill="#C9A84C" opacity="0.882"/><circle cx="510.93" cy="229.20" r="3.23" fill="#C9A84C" opacity="0.806"/>
<path d="M 543.95,160.00 L 543.59,165.88 L 544.48,171.71 L 546.61,177.42 L 549.97,182.96 L 554.51,188.28 L 560.20,193.33 L 566.98,198.06 L 574.78,202.43 L 583.53,206.38 L 593.15,209.89 L 603.54,212.92 L 614.60,215.43 L 626.23,217.42 L 638.32,218.85 L 650.74,219.71 L 663.38,220.00 L 676.12,219.71 L 688.83,218.85 L 701.39,217.42 L 713.68,215.43 L 725.58,212.92 L 736.99,209.89 L 747.78,206.38 L 757.85,202.43 L 767.11,198.06 L 775.47,193.33 L 782.84,188.28 L 789.16,182.96 L 794.37,177.42 L 798.41,171.71 L 801.24,165.88 L 802.85,160.00 L 753.42,456.00 L 494.52,456.00 Z" fill="url(#plateGrad)" opacity="1.000" filter="url(#softGlow)" stroke="#E8C96A" stroke-width="1.5" stroke-opacity="0.6"/>
<polyline points="561.99,176.00 561.83,182.53 563.53,188.94 567.07,195.13 572.38,201.00 579.38,206.44 587.93,211.36 597.91,215.67 609.13,219.30 621.40,222.19 634.52,224.30 648.26,225.57 662.38,226.00 676.64,225.57 690.81,224.30 704.63,222.19 717.87,219.30 730.30,215.67 741.71,211.36 751.91,206.44 760.72,201.00 767.99,195.13 773.60,188.94 777.45,182.53 779.47,176.00" fill="none" stroke="#E8C96A" stroke-width="1" stroke-opacity="0.500"/>
<ellipse cx="554.49" cy="169.72" rx="10.07" ry="9.00" fill="url(#petalGrad)" opacity="0.900" filter="url(#softGlow)" stroke="#E8C96A" stroke-width="0.8"/><ellipse cx="565.59" cy="188.00" rx="10.07" ry="9.00" fill="url(#petalGrad)" opacity="0.900" filter="url(#softGlow)" stroke="#E8C96A" stroke-width="0.8"/><ellipse cx="589.68" cy="202.90" rx="10.07" ry="9.00" fill="url(#petalGrad)" opacity="0.900" filter="url(#softGlow)" stroke="#E8C96A" stroke-width="0.8"/><ellipse cx="623.88" cy="212.62" rx="10.07" ry="9.00" fill="url(#petalGrad)" opacity="0.900" filter="url(#softGlow)" stroke="#E8C96A" stroke-width="0.8"/><ellipse cx="664.05" cy="216.00" rx="10.07" ry="9.00" fill="url(#petalGrad)" opacity="0.900" filter="url(#softGlow)" stroke="#E8C96A" stroke-width="0.8"/><ellipse cx="705.34" cy="212.62" rx="10.07" ry="9.00" fill="url(#petalGrad)" opacity="0.900" filter="url(#softGlow)" stroke="#E8C96A" stroke-width="0.8"/><ellipse cx="742.79" cy="202.90" rx="10.07" ry="9.00" fill="url(#petalGrad)" opacity="0.900" filter="url(#softGlow)" stroke="#E8C96A" stroke-width="0.8"/><ellipse cx="771.86" cy="188.00" rx="10.07" ry="9.00" fill="url(#petalGrad)" opacity="0.900" filter="url(#softGlow)" stroke="#E8C96A" stroke-width="0.8"/><ellipse cx="789.06" cy="169.72" rx="10.07" ry="9.00" fill="url(#petalGrad)" opacity="0.900" filter="url(#softGlow)" stroke="#E8C96A" stroke-width="0.8"/>
<line x1="515.70" y1="456.00" x2="517.54" y2="474.00" stroke="#C9A84C" stroke-width="1" opacity="0.700"/>
    <ellipse cx="517.54" cy="483.09" rx="7.20" ry="9.09" fill="url(#petalGrad)" opacity="1.000" filter="url(#softGlow)"/>
    <ellipse cx="517.54" cy="476.73" rx="5.04" ry="1.82" fill="#E8C96A" opacity="0.500"/><line x1="537.35" y1="456.00" x2="536.94" y2="474.00" stroke="#C9A84C" stroke-width="1" opacity="0.700"/>
    <ellipse cx="536.94" cy="484.67" rx="7.20" ry="10.67" fill="url(#petalGrad)" opacity="1.000" filter="url(#softGlow)"/>
    <ellipse cx="536.94" cy="477.20" rx="5.04" ry="2.13" fill="#E8C96A" opacity="0.500"/><line x1="559.01" y1="456.00" x2="556.59" y2="474.00" stroke="#C9A84C" stroke-width="1" opacity="0.700"/>
    <ellipse cx="556.59" cy="486.61" rx="7.20" ry="12.61" fill="url(#petalGrad)" opacity="1.000" filter="url(#softGlow)"/>
    <ellipse cx="556.59" cy="477.78" rx="5.04" ry="2.52" fill="#E8C96A" opacity="0.500"/><line x1="580.66" y1="456.00" x2="577.70" y2="474.00" stroke="#C9A84C" stroke-width="1" opacity="0.700"/>
    <ellipse cx="577.70" cy="486.79" rx="7.20" ry="12.79" fill="url(#petalGrad)" opacity="1.000" filter="url(#softGlow)"/>
    <ellipse cx="577.70" cy="477.84" rx="5.04" ry="2.56" fill="#E8C96A" opacity="0.500"/><line x1="602.31" y1="456.00" x2="600.62" y2="474.00" stroke="#C9A84C" stroke-width="1" opacity="0.700"/>
    <ellipse cx="600.62" cy="485.02" rx="7.20" ry="11.02" fill="url(#petalGrad)" opacity="1.000" filter="url(#softGlow)"/>
    <ellipse cx="600.62" cy="477.31" rx="5.04" ry="2.20" fill="#E8C96A" opacity="0.500"/><line x1="623.97" y1="456.00" x2="624.56" y2="474.00" stroke="#C9A84C" stroke-width="1" opacity="0.700"/>
    <ellipse cx="624.56" cy="483.23" rx="7.20" ry="9.23" fill="url(#petalGrad)" opacity="1.000" filter="url(#softGlow)"/>
    <ellipse cx="624.56" cy="476.77" rx="5.04" ry="1.85" fill="#E8C96A" opacity="0.500"/><line x1="645.62" y1="456.00" x2="648.14" y2="474.00" stroke="#C9A84C" stroke-width="1" opacity="0.700"/>
    <ellipse cx="648.14" cy="483.37" rx="7.20" ry="9.37" fill="url(#petalGrad)" opacity="1.000" filter="url(#softGlow)"/>
    <ellipse cx="648.14" cy="476.81" rx="5.04" ry="1.87" fill="#E8C96A" opacity="0.500"/><line x1="667.28" y1="456.00" x2="670.20" y2="474.00" stroke="#C9A84C" stroke-width="1" opacity="0.700"/>
    <ellipse cx="670.20" cy="485.30" rx="7.20" ry="11.30" fill="url(#petalGrad)" opacity="1.000" filter="url(#softGlow)"/>
    <ellipse cx="670.20" cy="477.39" rx="5.04" ry="2.26" fill="#E8C96A" opacity="0.500"/><line x1="688.93" y1="456.00" x2="690.48" y2="474.00" stroke="#C9A84C" stroke-width="1" opacity="0.700"/>
    <ellipse cx="690.48" cy="486.90" rx="7.20" ry="12.90" fill="url(#petalGrad)" opacity="1.000" filter="url(#softGlow)"/>
    <ellipse cx="690.48" cy="477.87" rx="5.04" ry="2.58" fill="#E8C96A" opacity="0.500"/><line x1="710.58" y1="456.00" x2="709.82" y2="474.00" stroke="#C9A84C" stroke-width="1" opacity="0.700"/>
    <ellipse cx="709.82" cy="486.42" rx="7.20" ry="12.42" fill="url(#petalGrad)" opacity="1.000" filter="url(#softGlow)"/>
    <ellipse cx="709.82" cy="477.73" rx="5.04" ry="2.48" fill="#E8C96A" opacity="0.500"/><line x1="732.24" y1="456.00" x2="729.62" y2="474.00" stroke="#C9A84C" stroke-width="1" opacity="0.700"/>
    <ellipse cx="729.62" cy="484.39" rx="7.20" ry="10.39" fill="url(#petalGrad)" opacity="1.000" filter="url(#softGlow)"/>
    <ellipse cx="729.62" cy="477.12" rx="5.04" ry="2.08" fill="#E8C96A" opacity="0.500"/>
<ellipse cx="560.66" cy="370.00" rx="11.51" ry="9.79" fill="none" stroke="#C9A84C" stroke-width="1.5" opacity="0.700"/>
      <ellipse cx="560.66" cy="370.00" rx="6.33" ry="5.76" fill="#C9A84C" opacity="0.400"/><ellipse cx="716.00" cy="370.00" rx="11.51" ry="9.79" fill="none" stroke="#C9A84C" stroke-width="1.5" opacity="0.700"/>
      <ellipse cx="716.00" cy="370.00" rx="6.33" ry="5.76" fill="#C9A84C" opacity="0.400"/>
<ellipse cx="643.34" cy="340.00" rx="36.84" ry="44.80" fill="#C9A84C" opacity="0.009" filter="url(#glow)"/>
    <ellipse cx="643.34" cy="340.00" rx="23.03" ry="28.00" fill="url(#centerGem)" opacity="1.000" filter="url(#glow)" stroke="#E8C96A" stroke-width="2"/>
    <ellipse cx="637.58" cy="331.60" rx="5.76" ry="5.60" fill="white" opacity="0.350"/>
<text x="640" y="586.00" text-anchor="middle" font-family="Cormorant Garamond, Georgia, serif" font-size="28" fill="#C9A84C" opacity="0.328" letter-spacing="8">MALABAR ATELIER</text>
</svg>