<svg xmlns="http://www.w3.org/2000/svg" width="1280" height="720" viewBox="0 0 1280 720">
<defs>
    <radialGradient id="bgGrad" cx="50%" cy="50%" r="60%">
      <stop offset="0%" stop-color="#2A1200"/>
      <stop offset="100%" stop-color="#1A0A00"/>
    </radialGradient>
    <radialGradient id="glowGrad" cx="50%" cy="50%" r="50%">
      <stop offset="0%" stop-color="#C9A84C" stop-opacity="0.179"/>
      <stop offset="100%" stop-color="#C9A84C" stop-opacity="0"/>
    </radialGradient>
    <radialGradient id="centerGem" cx="50%" cy="50%" r="50%">
      <stop offset="0%" stop-color="#FFE8A0"/>
      <stop offset="40%" stop-color="#C9A84C"/>
      <stop offset="100%" stop-color="#8B6914"/>
    </radialGradient>
    <radialGradient id="petalGrad" cx="50%" cy="30%" r="70%">
      <stop offset="0%" stop-color="#E8C96A"/>
      <stop offset="60%" stop-color="#C9A84C"/>
      <stop offset="100%" stop-color="#8B6914"/>
    </radialGradient>
    <filter id="glow" x="-50%" y="-50%" width="200%" height="200%">
      <feGaussianBlur stdDeviation="5.73" result="coloredBlur"/>
      <feMerge><feMergeNode in="coloredBlur"/><feMergeNode in="SourceGraphic"/></feMerge>
    </filter>
    <filter id="softGlow" x="-30%" y="-30%" width="160%" height="160%">
      <feGaussianBlur stdDeviation="3" result="coloredBlur"/>
      <feMerge><feMergeNode in="coloredBlur"/><feMergeNode in="SourceGraphic"/></feMerge>
    </filter>
    <linearGradient id="plateGrad" x1="0%" y1="0%" x2="100%" y2="100%">
      <stop offset="0%" stop-color="#E8C96A"/>
      <stop offset="50%" stop-color="#C9A84C"/>
      <stop offset="100%" stop-color="#8B6914"/>
    </linearGradient>
  </defs>
<rect width="1280" height="720" fill="url(#bgGrad)"/>
<ellipse cx="640" cy="360" rx="304.18" ry="182.51" fill="url(#glowGrad)"/>
<circle cx="855.58" cy="206.96" r="1.43" fill="#C9A84C" opacity="0.859"/><circle cx="751.29" cy="240.36" r="0.51" fill="#C9A84C" opacity="0.777"/><circle cx="322.35" cy="471.93" r="1.77" fill="#C9A84C" opacity="0.681"/><circle cx="820.05" cy="518.10" r="3.37" fill="#C9A84C" opacity="0.573"/><circle cx="792.51" cy="302.40" r="2.96" fill="#C9A84C" opacity="0.457"/><circle cx="320.07" cy="182.10" r="1.15" fill="#C9A84C" opacity="0.336"/><circle cx="780.92" cy="356.47" r="0.58" fill="#C9A84C" opacity="0.386"/><circle cx="830.69" cy="536.68" r="2.09" fill="#C9A84C" opacity="0.505"/><circle cx="324.19" cy="424.24" r="3.47" fill="#C9A84C" opacity="0.618"/><circle cx="738.96" cy="205.39" r="2.69" fill="#C9A84C" opacity="0.722"/><circle cx="865.04" cy="242.64" r="0.90" fill="#C9A84C" opacity="0.812"/><circle cx="334.63" cy="474.28" r="0.72" fill="#C9A84C" opacity="0.887"/><circle cx="695.03" cy="516.63" r="2.41" fill="#C9A84C" opacity="0.945"/><circle cx="894.90" cy="299.54" r="3.50" fill="#C9A84C" opacity="0.982"/><circle cx="351.19" cy="182.59" r="2.39" fill="#C9A84C" opacity="0.999"/><circle cx="649.99" cy="359.50" r="0.71" fill="#C9A84C" opacity="0.995"/><circle cx="919.65" cy="537.24" r="0.92" fill="#C9A84C" opacity="0.969"/><circle cx="373.52" cy="421.40" r="2.71" fill="#C9A84C" opacity="0.923"/>
<path d="M 547.83,160.00 L 547.44,165.88 L 548.28,171.71 L 550.32,177.42 L 553.54,182.96 L 557.93,188.28 L 563.42,193.33 L 569.99,198.06 L 577.54,202.43 L 586.03,206.38 L 595.36,209.89 L 605.44,212.92 L 616.18,215.43 L 627.47,217.42 L 639.21,218.85 L 651.28,219.71 L 663.56,220.00 L 675.95,219.71 L 688.31,218.85 L 700.53,217.42 L 712.49,215.43 L 724.08,212.92 L 735.18,209.89 L 745.69,206.38 L 755.50,202.43 L 764.53,198.06 L 772.68,193.33 L 779.88,188.28 L 786.06,182.96 L 791.15,177.42 L 795.11,171.71 L 797.90,165.88 L 799.50,160.00 L 749.68,456.00 L 498.01,456.00 Z" fill="url(#plateGrad)" opacity="1.000" filter="url(#softGlow)" stroke="#E8C96A" stroke-width="1.5" stroke-opacity="0.6"/>
<polyline points="565.27,176.00 565.07,182.53 566.69,188.94 570.09,195.13 575.22,201.00 581.99,206.44 590.28,211.36 599.95,215.67 610.83,219.30 622.75,222.19 635.48,224.30 648.83,225.57 662.55,226.00 676.42,225.57 690.20,224.30 703.65,222.19 716.53,219.30 728.64,215.67 739.76,211.36 749.71,206.44 758.30,201.00 765.41,195.13 770.89,188.94 774.67,182.53 776.67,176.00" fill="none" stroke="#E8C96A" stroke-width="1" stroke-opacity="0.500"/>
<ellipse cx="558.02" cy="169.72" rx="9.93" ry="9.00" fill="url(#petalGrad)" opacity="0.900" filter="url(#softGlow)" stroke="#E8C96A" stroke-width="0.8"/><ellipse cx="568.69" cy="188.00" rx="9.93" ry="9.00" fill="url(#petalGrad)" opacity="0.900" filter="url(#softGlow)" stroke="#E8C96A" stroke-width="0.8"/><ellipse cx="592.03" cy="202.90" rx="9.93" ry="9.00" fill="url(#petalGrad)" opacity="0.900" filter="url(#softGlow)" stroke="#E8C96A" stroke-width="0.8"/><ellipse cx="625.21" cy="212.62" rx="9.93" ry="9.00" fill="url(#petalGrad)" opacity="0.900" filter="url(#softGlow)" stroke="#E8C96A" stroke-width="0.8"/><ellipse cx="664.24" cy="216.00" rx="9.93" ry="9.00" fill="url(#petalGrad)" opacity="0.900" filter="url(#softGlow)" stroke="#E8C96A" stroke-width="0.8"/><ellipse cx="704.40" cy="212.62" rx="9.93" ry="9.00" fill="url(#petalGrad)" opacity="0.900" filter="url(#softGlow)" stroke="#E8C96A" stroke-width="0.8"/><ellipse cx="740.86" cy="202.90" rx="9.93" ry="9.00" fill="url(#petalGrad)" opacity="0.900" filter="url(#softGlow)" stroke="#E8C96A" stroke-width="0.8"/><ellipse cx="769.21" cy="188.00" rx="9.93" ry="9.00" fill="url(#petalGrad)" opacity="0.900" filter="url(#softGlow)" stroke="#E8C96A" stroke-width="0.8"/><ellipse cx="786.04" cy="169.72" rx="9.93" ry="9.00" fill="url(#petalGrad)" opacity="0.900" filter="url(#softGlow)" stroke="#E8C96A" stroke-width="0.8"/>
<line x1="518.60" y1="456.00" x2="520.62" y2="474.00" stroke="#C9A84C" stroke-width="1" opacity="0.700"/>
    <ellipse cx="520.62" cy="483.08" rx="7.09" ry="9.08" fill="url(#petalGrad)" opacity="1.000" filter="url(#softGlow)"/>
    <ellipse cx="520.62" cy="476.72" rx="4.97" ry="1.82" fill="#E8C96A" opacity="0.500"/><line x1="539.65" y1="456.00" x2="542.64" y2="474.00" stroke="#C9A84C" stroke-width="1" opacity="0.700"/>
    <ellipse cx="542.64" cy="483.64" rx="7.09" ry="9.64" fill="url(#petalGrad)" opacity="1.000" filter="url(#softGlow)"/>
    <ellipse cx="542.64" cy="476.89" rx="4.97" ry="1.93" fill="#E8C96A" opacity="0.500"/><line x1="560.69" y1="456.00" x2="562.85" y2="474.00" stroke="#C9A84C" stroke-width="1" opacity="0.700"/>
    <ellipse cx="562.85" cy="485.69" rx="7.09" ry="11.69" fill="url(#petalGrad)" opacity="1.000" filter="url(#softGlow)"/>
    <ellipse cx="562.85" cy="477.51" rx="4.97" ry="2.34" fill="#E8C96A" opacity="0.500"/><line x1="581.74" y1="456.00" x2="581.75" y2="474.00" stroke="#C9A84C" stroke-width="1" opacity="0.700"/>
    <ellipse cx="581.75" cy="486.99" rx="7.09" ry="12.99" fill="url(#petalGrad)" opacity="1.000" filter="url(#softGlow)"/>
    <ellipse cx="581.75" cy="477.90" rx="4.97" ry="2.60" fill="#E8C96A" opacity="0.500"/><line x1="602.79" y1="456.00" x2="600.65" y2="474.00" stroke="#C9A84C" stroke-width="1" opacity="0.700"/>
    <ellipse cx="600.65" cy="486.11" rx="7.09" ry="12.11" fill="url(#petalGrad)" opacity="1.000" filter="url(#softGlow)"/>
    <ellipse cx="600.65" cy="477.63" rx="4.97" ry="2.42" fill="#E8C96A" opacity="0.500"/><line x1="623.84" y1="456.00" x2="620.84" y2="474.00" stroke="#C9A84C" stroke-width="1" opacity="0.700"/>
    <ellipse cx="620.84" cy="484.02" rx="7.09" ry="10.02" fill="url(#petalGrad)" opacity="1.000" filter="url(#softGlow)"/>
    <ellipse cx="620.84" cy="477.01" rx="4.97" ry="2.00" fill="#E8C96A" opacity="0.500"/><line x1="644.89" y1="456.00" x2="642.86" y2="474.00" stroke="#C9A84C" stroke-width="1" opacity="0.700"/>
    <ellipse cx="642.86" cy="483.00" rx="7.09" ry="9.00" fill="url(#petalGrad)" opacity="1.000" filter="url(#softGlow)"/>
    <ellipse cx="642.86" cy="476.70" rx="4.97" ry="1.80" fill="#E8C96A" opacity="0.500"/><line x1="665.94" y1="456.00" x2="666.11" y2="474.00" stroke="#C9A84C" stroke-width="1" opacity="0.700"/>
    <ellipse cx="666.11" cy="484.16" rx="7.09" ry="10.16" fill="url(#petalGrad)" opacity="1.000" filter="url(#softGlow)"/>
    <ellipse cx="666.11" cy="477.05" rx="4.97" ry="2.03" fill="#E8C96A" opacity="0.500"/><line x1="686.99" y1="456.00" x2="689.25" y2="474.00" stroke="#C9A84C" stroke-width="1" opacity="0.700"/>
    <ellipse cx="689.25" cy="486.24" rx="7.09" ry="12.24" fill="url(#petalGrad)" opacity="1.000" filter="url(#softGlow)"/>
    <ellipse cx="689.25" cy="477.67" rx="4.97" ry="2.45" fill="#E8C96A" opacity="0.500"/><line x1="708.04" y1="456.00" x2="711.03" y2="474.00" stroke="#C9A84C" stroke-width="1" opacity="0.700"/>
    <ellipse cx="711.03" cy="486.96" rx="7.09" ry="12.96" fill="url(#petalGrad)" opacity="1.000" filter="url(#softGlow)"/>
    <ellipse cx="711.03" cy="477.89" rx="4.97" ry="2.59" fill="#E8C96A" opacity="0.500"/><line x1="729.09" y1="456.00" x2="730.98" y2="474.00" stroke="#C9A84C" stroke-width="1" opacity="0.700"/>
    <ellipse cx="730.98" cy="485.54" rx="7.09" ry="11.54" fill="url(#petalGrad)" opacity="1.000" filter="url(#softGlow)"/>
    <ellipse cx="730.98" cy="477.46" rx="4.97" ry="2.31" fill="#E8C96A" opacity="0.500"/>
<ellipse cx="562.82" cy="370.00" rx="11.35" ry="9.65" fill="none" stroke="#C9A84C" stroke-width="1.5" opacity="0.700"/>
      <ellipse cx="562.82" cy="370.00" rx="6.24" ry="5.68" fill="#C9A84C" opacity="0.400"/><ellipse cx="713.82" cy="370.00" rx="11.35" ry="9.65" fill="none" stroke="#C9A84C" stroke-width="1.5" opacity="0.700"/>
      <ellipse cx="713.82" cy="370.00" rx="6.24" ry="5.68" fill="#C9A84C" opacity="0.400"/>
<ellipse cx="643.37" cy="340.00" rx="36.32" ry="44.80" fill="#C9A84C" opacity="0.107" filter="url(#glow)"/>
    <ellipse cx="643.37" cy="340.00" rx="22.70" ry="28.00" fill="url(#centerGem)" opacity="1.000" filter="url(#glow)" stroke="#E8C96A" stroke-width="2"/>
    <ellipse cx="637.69" cy="331.60" rx="5.68" ry="5.60" fill="white" opacity="0.350"/>
<text x="640" y="586.00" text-anchor="middle" font-family="Cormorant Garamond, Georgia, serif" font-size="28" fill="#C9A84C" opacity="0.020" letter-spacing="8">MALABAR ATELIER</text>
</svg>