<svg xmlns="http://www.w3.org/2000/svg" width="1280" height="720" viewBox="0 0 1280 720">
<defs>
    <radialGradient id="bgGrad" cx="50%" cy="50%" r="60%">
      <stop offset="0%" stop-color="#2A1200"/>
      <stop offset="100%" stop-color="#1A0A00"/>
    </radialGradient>
    <radialGradient id="glowGrad" cx="50%" cy="50%" r="50%">
      <stop offset="0%" stop-color="#C9A84C" stop-opacity="0.176"/>
      <stop offset="100%" stop-color="#C9A84C" stop-opacity="0"/>
    </radialGradient>
    <radialGradient id="centerGem" cx="50%" cy="50%" r="50%">
      <stop offset="0%" stop-color="#FFE8A0"/>
      <stop offset="40%" stop-color="#C9A84C"/>
      <stop offset="100%" stop-color="#8B6914"/>
    </radialGradient>
    <radialGradient id="petalGrad" cx="50%" cy="30%" r="70%">
      <stop offset="0%" stop-color="#E8C96A"/>
      <stop offset="60%" stop-color="#C9A84C"/>
      <stop offset="100%" stop-color="#8B6914"/>
    </radialGradient>
    <filter id="glow" x="-50%" y="-50%" width="200%" height="200%">
      <feGaussianBlur stdDeviation="5.62" result="coloredBlur"/>
      <feMerge><feMergeNode in="coloredBlur"/><feMergeNode in="SourceGraphic"/></feMerge>
    </filter>
    <filter id="softGlow" x="-30%" y="-30%" width="160%" height="160%">
      <feGaussianBlur stdDeviation="3" result="coloredBlur"/>
      <feMerge><feMergeNode in="coloredBlur"/><feMergeNode in="SourceGraphic"/></feMerge>
    </filter>
    <linearGradient id="plateGrad" x1="0%" y1="0%" x2="100%" y2="100%">
      <stop offset="0%" stop-color="#E8C96A"/>
      <stop offset="50%" stop-color="#C9A84C"/>
      <stop offset="100%" stop-color="#8B6914"/>
    </linearGradient>
  </defs>
<rect width="1280" height="720" fill="url(#bgGrad)"/>
<ellipse cx="640" cy="360" rx="93.79" ry="56.27" fill="url(#glowGrad)"/>
<circle cx="710.58" cy="408.18" r="0.72" fill="#C9A84C" opacity="0.049"/><circle cx="669.53" cy="340.59" r="1.08" fill="#C9A84C" opacity="0.064"/><circle cx="542.33" cy="305.15" r="0.77" fill="#C9A84C" opacity="0.079"/><circle cx="700.04" cy="360.56" r="0.24" fill="#C9A84C" opacity="0.092"/><circle cx="682.60" cy="415.04" r="0.26" fill="#C9A84C" opacity="0.103"/><circle cx="540.89" cy="378.36" r="0.81" fill="#C9A84C" opacity="0.112"/><circle cx="688.31" cy="311.26" r="1.08" fill="#C9A84C" opacity="0.119"/><circle cx="694.81" cy="324.90" r="0.67" fill="#C9A84C" opacity="0.124"/><circle cx="541.43" cy="396.67" r="0.19" fill="#C9A84C" opacity="0.126"/><circle cx="675.60" cy="407.70" r="0.34" fill="#C9A84C" opacity="0.125"/><circle cx="705.92" cy="339.72" r="0.90" fill="#C9A84C" opacity="0.122"/><circle cx="543.94" cy="305.33" r="1.05" fill="#C9A84C" opacity="0.116"/><circle cx="662.18" cy="361.50" r="0.57" fill="#C9A84C" opacity="0.108"/><circle cx="715.71" cy="415.19" r="0.16" fill="#C9A84C" opacity="0.097"/><circle cx="548.37" cy="377.47" r="0.42" fill="#C9A84C" opacity="0.085"/><circle cx="648.32" cy="310.81" r="0.97" fill="#C9A84C" opacity="0.071"/><circle cx="723.99" cy="325.63" r="1.01" fill="#C9A84C" opacity="0.057"/><circle cx="554.64" cy="397.38" r="0.47" fill="#C9A84C" opacity="0.042"/>
<path d="M 561.83,298.02 L 562.28,299.85 L 563.44,301.65 L 565.32,303.42 L 567.89,305.14 L 571.13,306.79 L 575.00,308.35 L 579.47,309.82 L 584.50,311.17 L 590.03,312.40 L 596.02,313.48 L 602.40,314.42 L 609.12,315.20 L 616.11,315.82 L 623.30,316.26 L 630.63,316.53 L 638.02,316.62 L 645.40,316.53 L 652.70,316.26 L 659.85,315.82 L 666.79,315.20 L 673.43,314.42 L 679.73,313.48 L 685.62,312.40 L 691.04,311.17 L 695.95,309.82 L 700.28,308.35 L 704.01,306.79 L 707.10,305.14 L 709.51,303.42 L 711.23,301.65 L 712.23,299.85 L 712.51,298.02 L 716.70,389.75 L 566.02,389.75 Z" fill="url(#plateGrad)" opacity="0.126" filter="url(#softGlow)" stroke="#E8C96A" stroke-width="1.5" stroke-opacity="0.6"/>
<polyline points="574.11,302.98 574.75,305.00 576.45,306.99 579.20,308.91 582.94,310.73 587.62,312.41 593.15,313.94 599.43,315.27 606.37,316.40 613.83,317.30 621.70,317.95 629.84,318.34 638.10,318.48 646.36,318.34 654.46,317.95 662.27,317.30 669.65,316.40 676.48,315.27 682.65,313.94 688.03,312.41 692.56,310.73 696.13,308.91 698.71,306.99 700.23,305.00 700.68,302.98" fill="none" stroke="#E8C96A" stroke-width="1" stroke-opacity="0.063"/>
<ellipse cx="569.05" cy="301.04" rx="4.28" ry="2.79" fill="url(#petalGrad)" opacity="0.113" filter="url(#softGlow)" stroke="#E8C96A" stroke-width="0.8"/><ellipse cx="577.54" cy="306.70" rx="4.28" ry="2.79" fill="url(#petalGrad)" opacity="0.113" filter="url(#softGlow)" stroke="#E8C96A" stroke-width="0.8"/><ellipse cx="593.22" cy="311.32" rx="4.28" ry="2.79" fill="url(#petalGrad)" opacity="0.113" filter="url(#softGlow)" stroke="#E8C96A" stroke-width="0.8"/><ellipse cx="614.21" cy="314.33" rx="4.28" ry="2.79" fill="url(#petalGrad)" opacity="0.113" filter="url(#softGlow)" stroke="#E8C96A" stroke-width="0.8"/><ellipse cx="637.96" cy="315.38" rx="4.28" ry="2.79" fill="url(#petalGrad)" opacity="0.113" filter="url(#softGlow)" stroke="#E8C96A" stroke-width="0.8"/><ellipse cx="661.62" cy="314.33" rx="4.28" ry="2.79" fill="url(#petalGrad)" opacity="0.113" filter="url(#softGlow)" stroke="#E8C96A" stroke-width="0.8"/><ellipse cx="682.33" cy="311.32" rx="4.28" ry="2.79" fill="url(#petalGrad)" opacity="0.113" filter="url(#softGlow)" stroke="#E8C96A" stroke-width="0.8"/><ellipse cx="697.59" cy="306.70" rx="4.28" ry="2.79" fill="url(#petalGrad)" opacity="0.113" filter="url(#softGlow)" stroke="#E8C96A" stroke-width="0.8"/><ellipse cx="705.57" cy="301.04" rx="4.28" ry="2.79" fill="url(#petalGrad)" opacity="0.113" filter="url(#softGlow)" stroke="#E8C96A" stroke-width="0.8"/>
<line x1="578.35" y1="389.75" x2="579.01" y2="395.33" stroke="#C9A84C" stroke-width="1" opacity="0.088"/>
    <ellipse cx="579.01" cy="398.90" rx="3.06" ry="3.57" fill="url(#petalGrad)" opacity="0.126" filter="url(#softGlow)"/>
    <ellipse cx="579.01" cy="396.40" rx="2.14" ry="0.71" fill="#E8C96A" opacity="0.063"/><line x1="590.95" y1="389.75" x2="591.88" y2="395.33" stroke="#C9A84C" stroke-width="1" opacity="0.088"/>
    <ellipse cx="591.88" cy="399.34" rx="3.06" ry="4.02" fill="url(#petalGrad)" opacity="0.126" filter="url(#softGlow)"/>
    <ellipse cx="591.88" cy="396.53" rx="2.14" ry="0.80" fill="#E8C96A" opacity="0.063"/><line x1="603.55" y1="389.75" x2="604.19" y2="395.33" stroke="#C9A84C" stroke-width="1" opacity="0.088"/>
    <ellipse cx="604.19" cy="399.12" rx="3.06" ry="3.80" fill="url(#petalGrad)" opacity="0.126" filter="url(#softGlow)"/>
    <ellipse cx="604.19" cy="396.47" rx="2.14" ry="0.76" fill="#E8C96A" opacity="0.063"/><line x1="616.15" y1="389.75" x2="616.11" y2="395.33" stroke="#C9A84C" stroke-width="1" opacity="0.088"/>
    <ellipse cx="616.11" cy="398.48" rx="3.06" ry="3.15" fill="url(#petalGrad)" opacity="0.126" filter="url(#softGlow)"/>
    <ellipse cx="616.11" cy="396.27" rx="2.14" ry="0.63" fill="#E8C96A" opacity="0.063"/><line x1="628.76" y1="389.75" x2="628.06" y2="395.33" stroke="#C9A84C" stroke-width="1" opacity="0.088"/>
    <ellipse cx="628.06" cy="398.12" rx="3.06" ry="2.79" fill="url(#petalGrad)" opacity="0.126" filter="url(#softGlow)"/>
    <ellipse cx="628.06" cy="396.16" rx="2.14" ry="0.56" fill="#E8C96A" opacity="0.063"/><line x1="641.36" y1="389.75" x2="640.43" y2="395.33" stroke="#C9A84C" stroke-width="1" opacity="0.088"/>
    <ellipse cx="640.43" cy="398.43" rx="3.06" ry="3.10" fill="url(#petalGrad)" opacity="0.126" filter="url(#softGlow)"/>
    <ellipse cx="640.43" cy="396.26" rx="2.14" ry="0.62" fill="#E8C96A" opacity="0.063"/><line x1="653.96" y1="389.75" x2="653.37" y2="395.33" stroke="#C9A84C" stroke-width="1" opacity="0.088"/>
    <ellipse cx="653.37" cy="399.08" rx="3.06" ry="3.75" fill="url(#petalGrad)" opacity="0.126" filter="url(#softGlow)"/>
    <ellipse cx="653.37" cy="396.45" rx="2.14" ry="0.75" fill="#E8C96A" opacity="0.063"/><line x1="666.56" y1="389.75" x2="666.66" y2="395.33" stroke="#C9A84C" stroke-width="1" opacity="0.088"/>
    <ellipse cx="666.66" cy="399.35" rx="3.06" ry="4.02" fill="url(#petalGrad)" opacity="0.126" filter="url(#softGlow)"/>
    <ellipse cx="666.66" cy="396.53" rx="2.14" ry="0.80" fill="#E8C96A" opacity="0.063"/><line x1="679.17" y1="389.75" x2="679.90" y2="395.33" stroke="#C9A84C" stroke-width="1" opacity="0.088"/>
    <ellipse cx="679.90" cy="398.95" rx="3.06" ry="3.63" fill="url(#petalGrad)" opacity="0.126" filter="url(#softGlow)"/>
    <ellipse cx="679.90" cy="396.42" rx="2.14" ry="0.73" fill="#E8C96A" opacity="0.063"/><line x1="691.77" y1="389.75" x2="692.69" y2="395.33" stroke="#C9A84C" stroke-width="1" opacity="0.088"/>
    <ellipse cx="692.69" cy="398.32" rx="3.06" ry="2.99" fill="url(#petalGrad)" opacity="0.126" filter="url(#softGlow)"/>
    <ellipse cx="692.69" cy="396.22" rx="2.14" ry="0.60" fill="#E8C96A" opacity="0.063"/><line x1="704.37" y1="389.75" x2="704.92" y2="395.33" stroke="#C9A84C" stroke-width="1" opacity="0.088"/>
    <ellipse cx="704.92" cy="398.14" rx="3.06" ry="2.81" fill="url(#petalGrad)" opacity="0.126" filter="url(#softGlow)"/>
    <ellipse cx="704.92" cy="396.17" rx="2.14" ry="0.56" fill="#E8C96A" opacity="0.063"/>
<ellipse cx="594.94" cy="363.10" rx="4.89" ry="4.16" fill="none" stroke="#C9A84C" stroke-width="1.5" opacity="0.088"/>
      <ellipse cx="594.94" cy="363.10" rx="2.69" ry="2.44" fill="#C9A84C" opacity="0.050"/><ellipse cx="685.35" cy="363.10" rx="4.89" ry="4.16" fill="none" stroke="#C9A84C" stroke-width="1.5" opacity="0.088"/>
      <ellipse cx="685.35" cy="363.10" rx="2.69" ry="2.44" fill="#C9A84C" opacity="0.050"/>
<ellipse cx="639.72" cy="353.80" rx="15.65" ry="13.88" fill="#C9A84C" opacity="0.013" filter="url(#glow)"/>
    <ellipse cx="639.72" cy="353.80" rx="9.78" ry="8.68" fill="url(#centerGem)" opacity="0.126" filter="url(#glow)" stroke="#E8C96A" stroke-width="2"/>
    <ellipse cx="637.27" cy="351.20" rx="2.44" ry="1.74" fill="white" opacity="0.044"/>

</svg>