<svg xmlns="http://www.w3.org/2000/svg" width="1280" height="720" viewBox="0 0 1280 720">
<defs>
    <radialGradient id="bgGrad" cx="50%" cy="50%" r="60%">
      <stop offset="0%" stop-color="#2A1200"/>
      <stop offset="100%" stop-color="#1A0A00"/>
    </radialGradient>
    <radialGradient id="glowGrad" cx="50%" cy="50%" r="50%">
      <stop offset="0%" stop-color="#C9A84C" stop-opacity="0.250"/>
      <stop offset="100%" stop-color="#C9A84C" stop-opacity="0"/>
    </radialGradient>
    <radialGradient id="centerGem" cx="50%" cy="50%" r="50%">
      <stop offset="0%" stop-color="#FFE8A0"/>
      <stop offset="40%" stop-color="#C9A84C"/>
      <stop offset="100%" stop-color="#8B6914"/>
    </radialGradient>
    <radialGradient id="petalGrad" cx="50%" cy="30%" r="70%">
      <stop offset="0%" stop-color="#E8C96A"/>
      <stop offset="60%" stop-color="#C9A84C"/>
      <stop offset="100%" stop-color="#8B6914"/>
    </radialGradient>
    <filter id="glow" x="-50%" y="-50%" width="200%" height="200%">
      <feGaussianBlur stdDeviation="8.00" result="coloredBlur"/>
      <feMerge><feMergeNode in="coloredBlur"/><feMergeNode in="SourceGraphic"/></feMerge>
    </filter>
    <filter id="softGlow" x="-30%" y="-30%" width="160%" height="160%">
      <feGaussianBlur stdDeviation="3" result="coloredBlur"/>
      <feMerge><feMergeNode in="coloredBlur"/><feMergeNode in="SourceGraphic"/></feMerge>
    </filter>
    <linearGradient id="plateGrad" x1="0%" y1="0%" x2="100%" y2="100%">
      <stop offset="0%" stop-color="#E8C96A"/>
      <stop offset="50%" stop-color="#C9A84C"/>
      <stop offset="100%" stop-color="#8B6914"/>
    </linearGradient>
  </defs>
<rect width="1280" height="720" fill="url(#bgGrad)"/>
<ellipse cx="640" cy="360" rx="130.69" ry="78.42" fill="url(#glowGrad)"/>
<circle cx="726.26" cy="359.08" r="1.12" fill="#C9A84C" opacity="0.216"/><circle cx="520.70" cy="290.87" r="1.32" fill="#C9A84C" opacity="0.256"/><circle cx="663.17" cy="337.17" r="0.73" fill="#C9A84C" opacity="0.293"/><circle cx="738.06" cy="421.28" r="0.20" fill="#C9A84C" opacity="0.324"/><circle cx="526.90" cy="403.89" r="0.52" fill="#C9A84C" opacity="0.349"/><circle cx="645.68" cy="313.80" r="1.22" fill="#C9A84C" opacity="0.366"/><circle cx="747.89" cy="300.24" r="1.27" fill="#C9A84C" opacity="0.376"/><circle cx="535.37" cy="385.67" r="0.60" fill="#C9A84C" opacity="0.378"/><circle cx="628.07" cy="428.58" r="0.19" fill="#C9A84C" opacity="0.372"/><circle cx="755.57" cy="357.90" r="0.64" fill="#C9A84C" opacity="0.358"/><circle cx="545.93" cy="290.70" r="1.29" fill="#C9A84C" opacity="0.336"/><circle cx="610.71" cy="338.29" r="1.19" fill="#C9A84C" opacity="0.308"/><circle cx="760.94" cy="421.84" r="0.49" fill="#C9A84C" opacity="0.274"/><circle cx="558.37" cy="402.96" r="0.21" fill="#C9A84C" opacity="0.235"/><circle cx="593.93" cy="312.92" r="0.77" fill="#C9A84C" opacity="0.192"/><circle cx="763.88" cy="300.86" r="1.34" fill="#C9A84C" opacity="0.147"/><circle cx="572.45" cy="386.76" r="1.09" fill="#C9A84C" opacity="0.126"/><circle cx="578.07" cy="428.34" r="0.38" fill="#C9A84C" opacity="0.172"/>
<path d="M 554.84,282.20 L 555.49,284.49 L 556.86,286.76 L 558.93,288.98 L 561.70,291.14 L 565.12,293.21 L 569.17,295.17 L 573.81,297.01 L 579.00,298.71 L 584.68,300.25 L 590.80,301.61 L 597.30,302.79 L 604.11,303.77 L 611.18,304.54 L 618.44,305.09 L 625.81,305.43 L 633.22,305.54 L 640.60,305.43 L 647.88,305.09 L 655.00,304.54 L 661.88,303.77 L 668.45,302.79 L 674.66,301.61 L 680.44,300.25 L 685.73,298.71 L 690.49,297.01 L 694.68,295.17 L 698.24,293.21 L 701.15,291.14 L 703.38,288.98 L 704.90,286.76 L 705.70,284.49 L 705.78,282.20 L 720.12,397.34 L 569.18,397.34 Z" fill="url(#plateGrad)" opacity="0.378" filter="url(#softGlow)" stroke="#E8C96A" stroke-width="1.5" stroke-opacity="0.6"/>
<polyline points="567.69,288.43 568.55,290.97 570.48,293.46 573.44,295.87 577.39,298.15 582.26,300.27 587.97,302.18 594.41,303.86 601.48,305.27 609.06,306.40 617.02,307.21 625.21,307.71 633.51,307.88 641.76,307.71 649.83,307.21 657.58,306.40 664.88,305.27 671.60,303.86 677.63,302.18 682.86,300.27 687.20,298.15 690.58,295.87 692.95,293.46 694.26,290.97 694.48,288.43" fill="none" stroke="#E8C96A" stroke-width="1" stroke-opacity="0.189"/>
<ellipse cx="562.40" cy="285.99" rx="4.80" ry="3.50" fill="url(#petalGrad)" opacity="0.340" filter="url(#softGlow)" stroke="#E8C96A" stroke-width="0.8"/><ellipse cx="571.53" cy="293.10" rx="4.80" ry="3.50" fill="url(#petalGrad)" opacity="0.340" filter="url(#softGlow)" stroke="#E8C96A" stroke-width="0.8"/><ellipse cx="587.76" cy="298.89" rx="4.80" ry="3.50" fill="url(#petalGrad)" opacity="0.340" filter="url(#softGlow)" stroke="#E8C96A" stroke-width="0.8"/><ellipse cx="609.11" cy="302.67" rx="4.80" ry="3.50" fill="url(#petalGrad)" opacity="0.340" filter="url(#softGlow)" stroke="#E8C96A" stroke-width="0.8"/><ellipse cx="633.02" cy="303.99" rx="4.80" ry="3.50" fill="url(#petalGrad)" opacity="0.340" filter="url(#softGlow)" stroke="#E8C96A" stroke-width="0.8"/><ellipse cx="656.61" cy="302.67" rx="4.80" ry="3.50" fill="url(#petalGrad)" opacity="0.340" filter="url(#softGlow)" stroke="#E8C96A" stroke-width="0.8"/><ellipse cx="677.02" cy="298.89" rx="4.80" ry="3.50" fill="url(#petalGrad)" opacity="0.340" filter="url(#softGlow)" stroke="#E8C96A" stroke-width="0.8"/><ellipse cx="691.80" cy="293.10" rx="4.80" ry="3.50" fill="url(#petalGrad)" opacity="0.340" filter="url(#softGlow)" stroke="#E8C96A" stroke-width="0.8"/><ellipse cx="699.16" cy="285.99" rx="4.80" ry="3.50" fill="url(#petalGrad)" opacity="0.340" filter="url(#softGlow)" stroke="#E8C96A" stroke-width="0.8"/>
<line x1="581.53" y1="397.34" x2="582.34" y2="404.34" stroke="#C9A84C" stroke-width="1" opacity="0.265"/>
    <ellipse cx="582.34" cy="409.18" rx="3.43" ry="4.83" fill="url(#petalGrad)" opacity="0.378" filter="url(#softGlow)"/>
    <ellipse cx="582.34" cy="405.79" rx="2.40" ry="0.97" fill="#E8C96A" opacity="0.189"/><line x1="594.15" y1="397.34" x2="594.11" y2="404.34" stroke="#C9A84C" stroke-width="1" opacity="0.265"/>
    <ellipse cx="594.11" cy="409.36" rx="3.43" ry="5.02" fill="url(#petalGrad)" opacity="0.378" filter="url(#softGlow)"/>
    <ellipse cx="594.11" cy="405.85" rx="2.40" ry="1.00" fill="#E8C96A" opacity="0.189"/><line x1="606.78" y1="397.34" x2="605.91" y2="404.34" stroke="#C9A84C" stroke-width="1" opacity="0.265"/>
    <ellipse cx="605.91" cy="408.74" rx="3.43" ry="4.39" fill="url(#petalGrad)" opacity="0.378" filter="url(#softGlow)"/>
    <ellipse cx="605.91" cy="405.66" rx="2.40" ry="0.88" fill="#E8C96A" opacity="0.189"/><line x1="619.40" y1="397.34" x2="618.24" y2="404.34" stroke="#C9A84C" stroke-width="1" opacity="0.265"/>
    <ellipse cx="618.24" cy="407.99" rx="3.43" ry="3.65" fill="url(#petalGrad)" opacity="0.378" filter="url(#softGlow)"/>
    <ellipse cx="618.24" cy="405.44" rx="2.40" ry="0.73" fill="#E8C96A" opacity="0.189"/><line x1="632.03" y1="397.34" x2="631.27" y2="404.34" stroke="#C9A84C" stroke-width="1" opacity="0.265"/>
    <ellipse cx="631.27" cy="407.93" rx="3.43" ry="3.59" fill="url(#petalGrad)" opacity="0.378" filter="url(#softGlow)"/>
    <ellipse cx="631.27" cy="405.42" rx="2.40" ry="0.72" fill="#E8C96A" opacity="0.189"/><line x1="644.65" y1="397.34" x2="644.76" y2="404.34" stroke="#C9A84C" stroke-width="1" opacity="0.265"/>
    <ellipse cx="644.76" cy="408.63" rx="3.43" ry="4.29" fill="url(#petalGrad)" opacity="0.378" filter="url(#softGlow)"/>
    <ellipse cx="644.76" cy="405.63" rx="2.40" ry="0.86" fill="#E8C96A" opacity="0.189"/><line x1="657.28" y1="397.34" x2="658.18" y2="404.34" stroke="#C9A84C" stroke-width="1" opacity="0.265"/>
    <ellipse cx="658.18" cy="409.32" rx="3.43" ry="4.98" fill="url(#petalGrad)" opacity="0.378" filter="url(#softGlow)"/>
    <ellipse cx="658.18" cy="405.84" rx="2.40" ry="1.00" fill="#E8C96A" opacity="0.189"/><line x1="669.90" y1="397.34" x2="671.06" y2="404.34" stroke="#C9A84C" stroke-width="1" opacity="0.265"/>
    <ellipse cx="671.06" cy="409.25" rx="3.43" ry="4.90" fill="url(#petalGrad)" opacity="0.378" filter="url(#softGlow)"/>
    <ellipse cx="671.06" cy="405.81" rx="2.40" ry="0.98" fill="#E8C96A" opacity="0.189"/><line x1="682.52" y1="397.34" x2="683.23" y2="404.34" stroke="#C9A84C" stroke-width="1" opacity="0.265"/>
    <ellipse cx="683.23" cy="408.49" rx="3.43" ry="4.15" fill="url(#petalGrad)" opacity="0.378" filter="url(#softGlow)"/>
    <ellipse cx="683.23" cy="405.59" rx="2.40" ry="0.83" fill="#E8C96A" opacity="0.189"/><line x1="695.15" y1="397.34" x2="694.97" y2="404.34" stroke="#C9A84C" stroke-width="1" opacity="0.265"/>
    <ellipse cx="694.97" cy="407.88" rx="3.43" ry="3.54" fill="url(#petalGrad)" opacity="0.378" filter="url(#softGlow)"/>
    <ellipse cx="694.97" cy="405.40" rx="2.40" ry="0.71" fill="#E8C96A" opacity="0.189"/><line x1="707.77" y1="397.34" x2="706.82" y2="404.34" stroke="#C9A84C" stroke-width="1" opacity="0.265"/>
    <ellipse cx="706.82" cy="408.08" rx="3.43" ry="3.73" fill="url(#petalGrad)" opacity="0.378" filter="url(#softGlow)"/>
    <ellipse cx="706.82" cy="405.46" rx="2.40" ry="0.75" fill="#E8C96A" opacity="0.189"/>
<ellipse cx="595.20" cy="363.89" rx="5.48" ry="4.66" fill="none" stroke="#C9A84C" stroke-width="1.5" opacity="0.265"/>
      <ellipse cx="595.20" cy="363.89" rx="3.02" ry="2.74" fill="#C9A84C" opacity="0.151"/><ellipse cx="685.77" cy="363.89" rx="5.48" ry="4.66" fill="none" stroke="#C9A84C" stroke-width="1.5" opacity="0.265"/>
      <ellipse cx="685.77" cy="363.89" rx="3.02" ry="2.74" fill="#C9A84C" opacity="0.151"/>
<ellipse cx="639.03" cy="352.22" rx="17.55" ry="17.43" fill="#C9A84C" opacity="0.057" filter="url(#glow)"/>
    <ellipse cx="639.03" cy="352.22" rx="10.97" ry="10.89" fill="url(#centerGem)" opacity="0.378" filter="url(#glow)" stroke="#E8C96A" stroke-width="2"/>
    <ellipse cx="636.29" cy="348.95" rx="2.74" ry="2.18" fill="white" opacity="0.132"/>

</svg>