<svg xmlns="http://www.w3.org/2000/svg" width="1280" height="720" viewBox="0 0 1280 720">
<defs>
    <radialGradient id="bgGrad" cx="50%" cy="50%" r="60%">
      <stop offset="0%" stop-color="#2A1200"/>
      <stop offset="100%" stop-color="#1A0A00"/>
    </radialGradient>
    <radialGradient id="glowGrad" cx="50%" cy="50%" r="50%">
      <stop offset="0%" stop-color="#C9A84C" stop-opacity="0.210"/>
      <stop offset="100%" stop-color="#C9A84C" stop-opacity="0"/>
    </radialGradient>
    <radialGradient id="centerGem" cx="50%" cy="50%" r="50%">
      <stop offset="0%" stop-color="#FFE8A0"/>
      <stop offset="40%" stop-color="#C9A84C"/>
      <stop offset="100%" stop-color="#8B6914"/>
    </radialGradient>
    <radialGradient id="petalGrad" cx="50%" cy="30%" r="70%">
      <stop offset="0%" stop-color="#E8C96A"/>
      <stop offset="60%" stop-color="#C9A84C"/>
      <stop offset="100%" stop-color="#8B6914"/>
    </radialGradient>
    <filter id="glow" x="-50%" y="-50%" width="200%" height="200%">
      <feGaussianBlur stdDeviation="6.70" result="coloredBlur"/>
      <feMerge><feMergeNode in="coloredBlur"/><feMergeNode in="SourceGraphic"/></feMerge>
    </filter>
    <filter id="softGlow" x="-30%" y="-30%" width="160%" height="160%">
      <feGaussianBlur stdDeviation="3" result="coloredBlur"/>
      <feMerge><feMergeNode in="coloredBlur"/><feMergeNode in="SourceGraphic"/></feMerge>
    </filter>
    <linearGradient id="plateGrad" x1="0%" y1="0%" x2="100%" y2="100%">
      <stop offset="0%" stop-color="#E8C96A"/>
      <stop offset="50%" stop-color="#C9A84C"/>
      <stop offset="100%" stop-color="#8B6914"/>
    </linearGradient>
  </defs>
<rect width="1280" height="720" fill="url(#bgGrad)"/>
<ellipse cx="640" cy="360" rx="156.20" ry="93.72" fill="url(#glowGrad)"/>
<circle cx="587.09" cy="299.55" r="1.57" fill="#C9A84C" opacity="0.379"/><circle cx="532.68" cy="286.00" r="1.57" fill="#C9A84C" opacity="0.433"/><circle cx="791.35" cy="395.02" r="0.71" fill="#C9A84C" opacity="0.478"/><circle cx="608.51" cy="446.03" r="0.25" fill="#C9A84C" opacity="0.513"/><circle cx="517.53" cy="354.54" r="0.87" fill="#C9A84C" opacity="0.538"/><circle cx="783.81" cy="272.09" r="1.65" fill="#C9A84C" opacity="0.552"/><circle cx="630.57" cy="335.25" r="1.46" fill="#C9A84C" opacity="0.554"/><circle cx="504.84" cy="439.40" r="0.57" fill="#C9A84C" opacity="0.544"/><circle cx="773.40" cy="412.03" r="0.29" fill="#C9A84C" opacity="0.523"/><circle cx="652.81" cy="298.48" r="1.03" fill="#C9A84C" opacity="0.491"/><circle cx="494.85" cy="286.83" r="1.70" fill="#C9A84C" opacity="0.449"/><circle cx="760.31" cy="396.38" r="1.33" fill="#C9A84C" opacity="0.399"/><circle cx="674.80" cy="445.68" r="0.45" fill="#C9A84C" opacity="0.341"/><circle cx="487.77" cy="353.06" r="0.35" fill="#C9A84C" opacity="0.278"/><circle cx="744.82" cy="271.94" r="1.18" fill="#C9A84C" opacity="0.212"/><circle cx="696.09" cy="336.68" r="1.72" fill="#C9A84C" opacity="0.189"/><circle cx="483.73" cy="440.05" r="1.18" fill="#C9A84C" opacity="0.256"/><circle cx="727.23" cy="410.82" r="0.35" fill="#C9A84C" opacity="0.320"/>
<path d="M 553.42,261.72 L 554.23,264.61 L 555.71,267.47 L 557.84,270.28 L 560.62,273.00 L 564.01,275.62 L 567.98,278.10 L 572.50,280.42 L 577.51,282.57 L 582.97,284.51 L 588.82,286.24 L 595.02,287.72 L 601.50,288.96 L 608.20,289.93 L 615.05,290.64 L 621.99,291.06 L 628.95,291.20 L 635.87,291.06 L 642.68,290.64 L 649.30,289.93 L 655.69,288.96 L 661.77,287.72 L 667.49,286.24 L 672.79,284.51 L 677.63,282.57 L 681.95,280.42 L 685.72,278.10 L 688.89,275.62 L 691.44,273.00 L 693.35,270.28 L 694.58,267.47 L 695.14,264.61 L 695.02,261.72 L 718.37,407.17 L 576.77,407.17 Z" fill="url(#plateGrad)" opacity="0.555" filter="url(#softGlow)" stroke="#E8C96A" stroke-width="1.5" stroke-opacity="0.6"/>
<polyline points="566.01,269.58 567.04,272.79 569.06,275.94 572.05,278.99 575.95,281.87 580.70,284.54 586.22,286.96 592.41,289.08 599.16,290.86 606.37,292.28 613.90,293.32 621.63,293.94 629.43,294.15 637.16,293.94 644.69,293.32 651.89,292.28 658.64,290.86 664.82,289.08 670.33,286.96 675.07,284.54 678.96,281.87 681.94,278.99 683.95,275.94 684.96,272.79 684.95,269.58" fill="none" stroke="#E8C96A" stroke-width="1" stroke-opacity="0.277"/>
<ellipse cx="560.84" cy="266.50" rx="5.22" ry="4.42" fill="url(#petalGrad)" opacity="0.499" filter="url(#softGlow)" stroke="#E8C96A" stroke-width="0.8"/><ellipse cx="570.02" cy="275.48" rx="5.22" ry="4.42" fill="url(#petalGrad)" opacity="0.499" filter="url(#softGlow)" stroke="#E8C96A" stroke-width="0.8"/><ellipse cx="585.74" cy="282.80" rx="5.22" ry="4.42" fill="url(#petalGrad)" opacity="0.499" filter="url(#softGlow)" stroke="#E8C96A" stroke-width="0.8"/><ellipse cx="606.10" cy="287.58" rx="5.22" ry="4.42" fill="url(#petalGrad)" opacity="0.499" filter="url(#softGlow)" stroke="#E8C96A" stroke-width="0.8"/><ellipse cx="628.64" cy="289.24" rx="5.22" ry="4.42" fill="url(#petalGrad)" opacity="0.499" filter="url(#softGlow)" stroke="#E8C96A" stroke-width="0.8"/><ellipse cx="650.65" cy="287.58" rx="5.22" ry="4.42" fill="url(#petalGrad)" opacity="0.499" filter="url(#softGlow)" stroke="#E8C96A" stroke-width="0.8"/><ellipse cx="669.47" cy="282.80" rx="5.22" ry="4.42" fill="url(#petalGrad)" opacity="0.499" filter="url(#softGlow)" stroke="#E8C96A" stroke-width="0.8"/><ellipse cx="682.84" cy="275.48" rx="5.22" ry="4.42" fill="url(#petalGrad)" opacity="0.499" filter="url(#softGlow)" stroke="#E8C96A" stroke-width="0.8"/><ellipse cx="689.13" cy="266.50" rx="5.22" ry="4.42" fill="url(#petalGrad)" opacity="0.499" filter="url(#softGlow)" stroke="#E8C96A" stroke-width="0.8"/>
<line x1="588.36" y1="407.17" x2="587.86" y2="416.02" stroke="#C9A84C" stroke-width="1" opacity="0.388"/>
    <ellipse cx="587.86" cy="422.33" rx="3.73" ry="6.31" fill="url(#petalGrad)" opacity="0.555" filter="url(#softGlow)"/>
    <ellipse cx="587.86" cy="417.91" rx="2.61" ry="1.26" fill="#E8C96A" opacity="0.277"/><line x1="600.20" y1="407.17" x2="598.86" y2="416.02" stroke="#C9A84C" stroke-width="1" opacity="0.388"/>
    <ellipse cx="598.86" cy="422.18" rx="3.73" ry="6.16" fill="url(#petalGrad)" opacity="0.555" filter="url(#softGlow)"/>
    <ellipse cx="598.86" cy="417.87" rx="2.61" ry="1.23" fill="#E8C96A" opacity="0.277"/><line x1="612.05" y1="407.17" x2="610.67" y2="416.02" stroke="#C9A84C" stroke-width="1" opacity="0.388"/>
    <ellipse cx="610.67" cy="421.21" rx="3.73" ry="5.19" fill="url(#petalGrad)" opacity="0.555" filter="url(#softGlow)"/>
    <ellipse cx="610.67" cy="417.58" rx="2.61" ry="1.04" fill="#E8C96A" opacity="0.277"/><line x1="623.89" y1="407.17" x2="623.32" y2="416.02" stroke="#C9A84C" stroke-width="1" opacity="0.388"/>
    <ellipse cx="623.32" cy="420.47" rx="3.73" ry="4.45" fill="url(#petalGrad)" opacity="0.555" filter="url(#softGlow)"/>
    <ellipse cx="623.32" cy="417.36" rx="2.61" ry="0.89" fill="#E8C96A" opacity="0.277"/><line x1="635.73" y1="407.17" x2="636.31" y2="416.02" stroke="#C9A84C" stroke-width="1" opacity="0.388"/>
    <ellipse cx="636.31" cy="420.78" rx="3.73" ry="4.76" fill="url(#petalGrad)" opacity="0.555" filter="url(#softGlow)"/>
    <ellipse cx="636.31" cy="417.45" rx="2.61" ry="0.95" fill="#E8C96A" opacity="0.277"/><line x1="647.57" y1="407.17" x2="648.95" y2="416.02" stroke="#C9A84C" stroke-width="1" opacity="0.388"/>
    <ellipse cx="648.95" cy="421.79" rx="3.73" ry="5.77" fill="url(#petalGrad)" opacity="0.555" filter="url(#softGlow)"/>
    <ellipse cx="648.95" cy="417.75" rx="2.61" ry="1.15" fill="#E8C96A" opacity="0.277"/><line x1="659.42" y1="407.17" x2="660.76" y2="416.02" stroke="#C9A84C" stroke-width="1" opacity="0.388"/>
    <ellipse cx="660.76" cy="422.40" rx="3.73" ry="6.38" fill="url(#petalGrad)" opacity="0.555" filter="url(#softGlow)"/>
    <ellipse cx="660.76" cy="417.93" rx="2.61" ry="1.28" fill="#E8C96A" opacity="0.277"/><line x1="671.26" y1="407.17" x2="671.75" y2="416.02" stroke="#C9A84C" stroke-width="1" opacity="0.388"/>
    <ellipse cx="671.75" cy="421.95" rx="3.73" ry="5.93" fill="url(#petalGrad)" opacity="0.555" filter="url(#softGlow)"/>
    <ellipse cx="671.75" cy="417.80" rx="2.61" ry="1.19" fill="#E8C96A" opacity="0.277"/><line x1="683.10" y1="407.17" x2="682.45" y2="416.02" stroke="#C9A84C" stroke-width="1" opacity="0.388"/>
    <ellipse cx="682.45" cy="420.92" rx="3.73" ry="4.90" fill="url(#petalGrad)" opacity="0.555" filter="url(#softGlow)"/>
    <ellipse cx="682.45" cy="417.49" rx="2.61" ry="0.98" fill="#E8C96A" opacity="0.277"/><line x1="694.95" y1="407.17" x2="693.54" y2="416.02" stroke="#C9A84C" stroke-width="1" opacity="0.388"/>
    <ellipse cx="693.54" cy="420.44" rx="3.73" ry="4.42" fill="url(#petalGrad)" opacity="0.555" filter="url(#softGlow)"/>
    <ellipse cx="693.54" cy="417.35" rx="2.61" ry="0.88" fill="#E8C96A" opacity="0.277"/><line x1="706.79" y1="407.17" x2="705.49" y2="416.02" stroke="#C9A84C" stroke-width="1" opacity="0.388"/>
    <ellipse cx="705.49" cy="421.04" rx="3.73" ry="5.02" fill="url(#petalGrad)" opacity="0.555" filter="url(#softGlow)"/>
    <ellipse cx="705.49" cy="417.52" rx="2.61" ry="1.00" fill="#E8C96A" opacity="0.277"/>
<ellipse cx="598.31" cy="364.91" rx="5.97" ry="5.07" fill="none" stroke="#C9A84C" stroke-width="1.5" opacity="0.388"/>
      <ellipse cx="598.31" cy="364.91" rx="3.28" ry="2.98" fill="#C9A84C" opacity="0.222"/><ellipse cx="683.27" cy="364.91" rx="5.97" ry="5.07" fill="none" stroke="#C9A84C" stroke-width="1.5" opacity="0.388"/>
      <ellipse cx="683.27" cy="364.91" rx="3.28" ry="2.98" fill="#C9A84C" opacity="0.222"/>
<ellipse cx="638.42" cy="350.17" rx="19.10" ry="22.01" fill="#C9A84C" opacity="0.070" filter="url(#glow)"/>
    <ellipse cx="638.42" cy="350.17" rx="11.94" ry="13.76" fill="url(#centerGem)" opacity="0.555" filter="url(#glow)" stroke="#E8C96A" stroke-width="2"/>
    <ellipse cx="635.44" cy="346.04" rx="2.98" ry="2.75" fill="white" opacity="0.194"/>

</svg>