<svg xmlns="http://www.w3.org/2000/svg" width="1280" height="720" viewBox="0 0 1280 720">
<defs>
    <radialGradient id="bgGrad" cx="50%" cy="50%" r="60%">
      <stop offset="0%" stop-color="#2A1200"/>
      <stop offset="100%" stop-color="#1A0A00"/>
    </radialGradient>
    <radialGradient id="glowGrad" cx="50%" cy="50%" r="50%">
      <stop offset="0%" stop-color="#C9A84C" stop-opacity="0.046"/>
      <stop offset="100%" stop-color="#C9A84C" stop-opacity="0"/>
    </radialGradient>
    <radialGradient id="centerGem" cx="50%" cy="50%" r="50%">
      <stop offset="0%" stop-color="#FFE8A0"/>
      <stop offset="40%" stop-color="#C9A84C"/>
      <stop offset="100%" stop-color="#8B6914"/>
    </radialGradient>
    <radialGradient id="petalGrad" cx="50%" cy="30%" r="70%">
      <stop offset="0%" stop-color="#E8C96A"/>
      <stop offset="60%" stop-color="#C9A84C"/>
      <stop offset="100%" stop-color="#8B6914"/>
    </radialGradient>
    <filter id="glow" x="-50%" y="-50%" width="200%" height="200%">
      <feGaussianBlur stdDeviation="1.47" result="coloredBlur"/>
      <feMerge><feMergeNode in="coloredBlur"/><feMergeNode in="SourceGraphic"/></feMerge>
    </filter>
    <filter id="softGlow" x="-30%" y="-30%" width="160%" height="160%">
      <feGaussianBlur stdDeviation="3" result="coloredBlur"/>
      <feMerge><feMergeNode in="coloredBlur"/><feMergeNode in="SourceGraphic"/></feMerge>
    </filter>
    <linearGradient id="plateGrad" x1="0%" y1="0%" x2="100%" y2="100%">
      <stop offset="0%" stop-color="#E8C96A"/>
      <stop offset="50%" stop-color="#C9A84C"/>
      <stop offset="100%" stop-color="#8B6914"/>
    </linearGradient>
  </defs>
<rect width="1280" height="720" fill="url(#bgGrad)"/>
<ellipse cx="640" cy="360" rx="243.34" ry="146.00" fill="url(#glowGrad)"/>
<circle cx="807.64" cy="527.03" r="3.05" fill="#C9A84C" opacity="0.997"/><circle cx="322.52" cy="452.44" r="1.26" fill="#C9A84C" opacity="0.998"/><circle cx="763.54" cy="224.73" r="0.54" fill="#C9A84C" opacity="0.977"/><circle cx="844.17" cy="221.08" r="1.95" fill="#C9A84C" opacity="0.936"/><circle cx="329.20" cy="447.53" r="3.42" fill="#C9A84C" opacity="0.875"/><circle cx="720.89" cy="529.00" r="2.80" fill="#C9A84C" opacity="0.798"/><circle cx="876.62" cy="330.54" r="1.00" fill="#C9A84C" opacity="0.704"/><circle cx="342.10" cy="180.88" r="0.65" fill="#C9A84C" opacity="0.599"/><circle cx="676.61" cy="327.91" r="2.27" fill="#C9A84C" opacity="0.485"/><circle cx="904.33" cy="528.10" r="3.48" fill="#C9A84C" opacity="0.365"/><circle cx="360.96" cy="449.85" r="2.51" fill="#C9A84C" opacity="0.357"/><circle cx="631.60" cy="222.78" r="0.78" fill="#C9A84C" opacity="0.478"/><circle cx="926.74" cy="223.00" r="0.82" fill="#C9A84C" opacity="0.593"/><circle cx="385.41" cy="450.15" r="2.58" fill="#C9A84C" opacity="0.699"/><circle cx="586.76" cy="527.98" r="3.47" fill="#C9A84C" opacity="0.792"/><circle cx="943.42" cy="327.57" r="2.20" fill="#C9A84C" opacity="0.871"/><circle cx="414.95" cy="180.88" r="0.62" fill="#C9A84C" opacity="0.933"/><circle cx="542.99" cy="330.88" r="1.05" fill="#C9A84C" opacity="0.975"/>
<path d="M 388.19,160.97 L 389.56,166.82 L 393.28,172.62 L 399.31,178.30 L 407.60,183.82 L 418.07,189.12 L 430.61,194.14 L 445.11,198.85 L 461.43,203.19 L 479.40,207.12 L 498.85,210.62 L 519.61,213.63 L 541.46,216.13 L 564.20,218.11 L 587.61,219.53 L 611.46,220.39 L 635.52,220.68 L 659.57,220.39 L 683.36,219.53 L 706.68,218.11 L 729.29,216.13 L 750.98,213.63 L 771.54,210.62 L 790.77,207.12 L 808.49,203.19 L 824.52,198.85 L 838.72,194.14 L 850.94,189.12 L 861.07,183.82 L 869.00,178.30 L 874.67,172.62 L 878.02,166.82 L 879.01,160.97 L 888.48,455.53 L 397.66,455.53 Z" fill="url(#plateGrad)" opacity="1.000" filter="url(#softGlow)" stroke="#E8C96A" stroke-width="1.5" stroke-opacity="0.6"/>
<polyline points="427.97,176.89 429.94,183.39 435.40,189.77 444.27,195.93 456.38,201.77 471.54,207.18 489.48,212.08 509.89,216.37 532.42,219.98 556.70,222.86 582.30,224.95 608.79,226.22 635.71,226.65 662.61,226.22 689.01,224.95 714.48,222.86 738.57,219.98 760.87,216.37 781.01,212.08 798.63,207.18 813.44,201.77 825.18,195.93 833.65,189.77 838.70,183.39 840.26,176.89" fill="none" stroke="#E8C96A" stroke-width="1" stroke-opacity="0.500"/>
<ellipse cx="411.56" cy="170.65" rx="13.84" ry="8.96" fill="url(#petalGrad)" opacity="0.900" filter="url(#softGlow)" stroke="#E8C96A" stroke-width="0.8"/><ellipse cx="438.97" cy="188.83" rx="13.84" ry="8.96" fill="url(#petalGrad)" opacity="0.900" filter="url(#softGlow)" stroke="#E8C96A" stroke-width="0.8"/><ellipse cx="489.84" cy="203.66" rx="13.84" ry="8.96" fill="url(#petalGrad)" opacity="0.900" filter="url(#softGlow)" stroke="#E8C96A" stroke-width="0.8"/><ellipse cx="558.06" cy="213.34" rx="13.84" ry="8.96" fill="url(#petalGrad)" opacity="0.900" filter="url(#softGlow)" stroke="#E8C96A" stroke-width="0.8"/><ellipse cx="635.39" cy="216.70" rx="13.84" ry="8.96" fill="url(#petalGrad)" opacity="0.900" filter="url(#softGlow)" stroke="#E8C96A" stroke-width="0.8"/><ellipse cx="712.50" cy="213.34" rx="13.84" ry="8.96" fill="url(#petalGrad)" opacity="0.900" filter="url(#softGlow)" stroke="#E8C96A" stroke-width="0.8"/><ellipse cx="780.10" cy="203.66" rx="13.84" ry="8.96" fill="url(#petalGrad)" opacity="0.900" filter="url(#softGlow)" stroke="#E8C96A" stroke-width="0.8"/><ellipse cx="830.03" cy="188.83" rx="13.84" ry="8.96" fill="url(#petalGrad)" opacity="0.900" filter="url(#softGlow)" stroke="#E8C96A" stroke-width="0.8"/><ellipse cx="856.26" cy="170.65" rx="13.84" ry="8.96" fill="url(#petalGrad)" opacity="0.900" filter="url(#softGlow)" stroke="#E8C96A" stroke-width="0.8"/>
<line x1="437.82" y1="455.53" x2="439.39" y2="473.45" stroke="#C9A84C" stroke-width="1" opacity="0.700"/>
    <ellipse cx="439.39" cy="484.76" rx="9.88" ry="11.31" fill="url(#petalGrad)" opacity="1.000" filter="url(#softGlow)"/>
    <ellipse cx="439.39" cy="476.84" rx="6.92" ry="2.26" fill="#E8C96A" opacity="0.500"/><line x1="478.87" y1="455.53" x2="478.14" y2="473.45" stroke="#C9A84C" stroke-width="1" opacity="0.700"/>
    <ellipse cx="478.14" cy="482.82" rx="9.88" ry="9.37" fill="url(#petalGrad)" opacity="1.000" filter="url(#softGlow)"/>
    <ellipse cx="478.14" cy="476.26" rx="6.92" ry="1.87" fill="#E8C96A" opacity="0.500"/><line x1="519.92" y1="455.53" x2="517.34" y2="473.45" stroke="#C9A84C" stroke-width="1" opacity="0.700"/>
    <ellipse cx="517.34" cy="482.60" rx="9.88" ry="9.15" fill="url(#petalGrad)" opacity="1.000" filter="url(#softGlow)"/>
    <ellipse cx="517.34" cy="476.19" rx="6.92" ry="1.83" fill="#E8C96A" opacity="0.500"/><line x1="560.97" y1="455.53" x2="558.10" y2="473.45" stroke="#C9A84C" stroke-width="1" opacity="0.700"/>
    <ellipse cx="558.10" cy="484.34" rx="9.88" ry="10.89" fill="url(#petalGrad)" opacity="1.000" filter="url(#softGlow)"/>
    <ellipse cx="558.10" cy="476.72" rx="6.92" ry="2.18" fill="#E8C96A" opacity="0.500"/><line x1="602.02" y1="455.53" x2="600.60" y2="473.45" stroke="#C9A84C" stroke-width="1" opacity="0.700"/>
    <ellipse cx="600.60" cy="486.14" rx="9.88" ry="12.70" fill="url(#petalGrad)" opacity="1.000" filter="url(#softGlow)"/>
    <ellipse cx="600.60" cy="477.26" rx="6.92" ry="2.54" fill="#E8C96A" opacity="0.500"/><line x1="643.07" y1="455.53" x2="643.97" y2="473.45" stroke="#C9A84C" stroke-width="1" opacity="0.700"/>
    <ellipse cx="643.97" cy="486.03" rx="9.88" ry="12.59" fill="url(#petalGrad)" opacity="1.000" filter="url(#softGlow)"/>
    <ellipse cx="643.97" cy="477.22" rx="6.92" ry="2.52" fill="#E8C96A" opacity="0.500"/><line x1="684.12" y1="455.53" x2="686.79" y2="473.45" stroke="#C9A84C" stroke-width="1" opacity="0.700"/>
    <ellipse cx="686.79" cy="484.13" rx="9.88" ry="10.68" fill="url(#petalGrad)" opacity="1.000" filter="url(#softGlow)"/>
    <ellipse cx="686.79" cy="476.65" rx="6.92" ry="2.14" fill="#E8C96A" opacity="0.500"/><line x1="725.17" y1="455.53" x2="727.99" y2="473.45" stroke="#C9A84C" stroke-width="1" opacity="0.700"/>
    <ellipse cx="727.99" cy="482.52" rx="9.88" ry="9.07" fill="url(#petalGrad)" opacity="1.000" filter="url(#softGlow)"/>
    <ellipse cx="727.99" cy="476.17" rx="6.92" ry="1.81" fill="#E8C96A" opacity="0.500"/><line x1="766.22" y1="455.53" x2="767.49" y2="473.45" stroke="#C9A84C" stroke-width="1" opacity="0.700"/>
    <ellipse cx="767.49" cy="482.95" rx="9.88" ry="9.51" fill="url(#petalGrad)" opacity="1.000" filter="url(#softGlow)"/>
    <ellipse cx="767.49" cy="476.30" rx="6.92" ry="1.90" fill="#E8C96A" opacity="0.500"/><line x1="807.27" y1="455.53" x2="806.22" y2="473.45" stroke="#C9A84C" stroke-width="1" opacity="0.700"/>
    <ellipse cx="806.22" cy="484.96" rx="9.88" ry="11.52" fill="url(#petalGrad)" opacity="1.000" filter="url(#softGlow)"/>
    <ellipse cx="806.22" cy="476.90" rx="6.92" ry="2.30" fill="#E8C96A" opacity="0.500"/><line x1="848.33" y1="455.53" x2="845.59" y2="473.45" stroke="#C9A84C" stroke-width="1" opacity="0.700"/>
    <ellipse cx="845.59" cy="486.35" rx="9.88" ry="12.90" fill="url(#petalGrad)" opacity="1.000" filter="url(#softGlow)"/>
    <ellipse cx="845.59" cy="477.32" rx="6.92" ry="2.58" fill="#E8C96A" opacity="0.500"/>
<ellipse cx="493.07" cy="369.95" rx="15.81" ry="13.44" fill="none" stroke="#C9A84C" stroke-width="1.5" opacity="0.700"/>
      <ellipse cx="493.07" cy="369.95" rx="8.70" ry="7.91" fill="#C9A84C" opacity="0.400"/><ellipse cx="787.57" cy="369.95" rx="15.81" ry="13.44" fill="none" stroke="#C9A84C" stroke-width="1.5" opacity="0.700"/>
      <ellipse cx="787.57" cy="369.95" rx="8.70" ry="7.91" fill="#C9A84C" opacity="0.400"/>
<ellipse cx="639.36" cy="340.10" rx="50.60" ry="44.58" fill="#C9A84C" opacity="0.027" filter="url(#glow)"/>
    <ellipse cx="639.36" cy="340.10" rx="31.63" ry="27.86" fill="url(#centerGem)" opacity="1.000" filter="url(#glow)" stroke="#E8C96A" stroke-width="2"/>
    <ellipse cx="631.45" cy="331.74" rx="7.91" ry="5.57" fill="white" opacity="0.350"/>

</svg>