<svg xmlns="http://www.w3.org/2000/svg" width="1280" height="720" viewBox="0 0 1280 720">
<defs>
    <radialGradient id="bgGrad" cx="50%" cy="50%" r="60%">
      <stop offset="0%" stop-color="#2A1200"/>
      <stop offset="100%" stop-color="#1A0A00"/>
    </radialGradient>
    <radialGradient id="glowGrad" cx="50%" cy="50%" r="50%">
      <stop offset="0%" stop-color="#C9A84C" stop-opacity="-0.031"/>
      <stop offset="100%" stop-color="#C9A84C" stop-opacity="0"/>
    </radialGradient>
    <radialGradient id="centerGem" cx="50%" cy="50%" r="50%">
      <stop offset="0%" stop-color="#FFE8A0"/>
      <stop offset="40%" stop-color="#C9A84C"/>
      <stop offset="100%" stop-color="#8B6914"/>
    </radialGradient>
    <radialGradient id="petalGrad" cx="50%" cy="30%" r="70%">
      <stop offset="0%" stop-color="#E8C96A"/>
      <stop offset="60%" stop-color="#C9A84C"/>
      <stop offset="100%" stop-color="#8B6914"/>
    </radialGradient>
    <filter id="glow" x="-50%" y="-50%" width="200%" height="200%">
      <feGaussianBlur stdDeviation="-0.98" result="coloredBlur"/>
      <feMerge><feMergeNode in="coloredBlur"/><feMergeNode in="SourceGraphic"/></feMerge>
    </filter>
    <filter id="softGlow" x="-30%" y="-30%" width="160%" height="160%">
      <feGaussianBlur stdDeviation="3" result="coloredBlur"/>
      <feMerge><feMergeNode in="coloredBlur"/><feMergeNode in="SourceGraphic"/></feMerge>
    </filter>
    <linearGradient id="plateGrad" x1="0%" y1="0%" x2="100%" y2="100%">
      <stop offset="0%" stop-color="#E8C96A"/>
      <stop offset="50%" stop-color="#C9A84C"/>
      <stop offset="100%" stop-color="#8B6914"/>
    </linearGradient>
  </defs>
<rect width="1280" height="720" fill="url(#bgGrad)"/>
<ellipse cx="640" cy="360" rx="210.31" ry="126.19" fill="url(#glowGrad)"/>
<circle cx="320.03" cy="448.62" r="0.51" fill="#C9A84C" opacity="0.483"/><circle cx="782.98" cy="529.57" r="1.41" fill="#C9A84C" opacity="0.363"/><circle cx="828.83" cy="329.64" r="3.17" fill="#C9A84C" opacity="0.359"/><circle cx="323.83" cy="180.00" r="3.22" fill="#C9A84C" opacity="0.480"/><circle cx="741.15" cy="328.51" r="1.48" fill="#C9A84C" opacity="0.594"/><circle cx="863.40" cy="529.18" r="0.51" fill="#C9A84C" opacity="0.700"/><circle cx="333.95" cy="449.62" r="1.72" fill="#C9A84C" opacity="0.794"/><circle cx="697.29" cy="221.62" r="3.35" fill="#C9A84C" opacity="0.873"/><circle cx="893.50" cy="222.83" r="3.00" fill="#C9A84C" opacity="0.934"/><circle cx="350.20" cy="451.25" r="1.19" fill="#C9A84C" opacity="0.976"/><circle cx="652.29" cy="528.53" r="0.57" fill="#C9A84C" opacity="0.997"/><circle cx="918.52" cy="326.66" r="2.05" fill="#C9A84C" opacity="0.997"/><circle cx="372.26" cy="180.02" r="3.46" fill="#C9A84C" opacity="0.977"/><circle cx="607.04" cy="331.49" r="2.73" fill="#C9A84C" opacity="0.935"/><circle cx="937.97" cy="530.19" r="0.94" fill="#C9A84C" opacity="0.874"/><circle cx="399.67" cy="446.99" r="0.70" fill="#C9A84C" opacity="0.796"/><circle cx="562.46" cy="219.70" r="2.37" fill="#C9A84C" opacity="0.703"/><circle cx="951.45" cy="224.80" r="3.50" fill="#C9A84C" opacity="0.597"/>
<path d="M 434.13,160.00 L 434.69,165.88 L 437.39,171.71 L 442.22,177.42 L 449.12,182.96 L 458.03,188.28 L 468.86,193.33 L 481.51,198.06 L 495.85,202.43 L 511.75,206.38 L 529.06,209.89 L 547.61,212.92 L 567.21,215.43 L 587.69,217.42 L 608.84,218.85 L 630.46,219.71 L 652.34,220.00 L 674.28,219.71 L 696.05,218.85 L 717.45,217.42 L 738.28,215.43 L 758.33,212.92 L 777.41,209.89 L 795.33,206.38 L 811.93,202.43 L 827.05,198.06 L 840.53,193.33 L 852.25,188.28 L 862.10,182.96 L 869.98,177.42 L 875.81,171.71 L 879.54,165.88 L 881.14,160.00 L 855.04,456.00 L 408.03,456.00 Z" fill="url(#plateGrad)" opacity="1.000" filter="url(#softGlow)" stroke="#E8C96A" stroke-width="1.5" stroke-opacity="0.6"/>
<polyline points="468.48,176.00 469.51,182.53 473.73,188.94 481.08,195.13 491.43,201.00 504.59,206.44 520.35,211.36 538.43,215.67 558.53,219.30 580.30,222.19 603.37,224.30 627.35,225.57 651.81,226.00 676.36,225.57 700.56,224.30 724.00,222.19 746.28,219.30 767.02,215.67 785.86,211.36 802.49,206.44 816.61,201.00 827.99,195.13 836.43,188.94 841.79,182.53 843.97,176.00" fill="none" stroke="#E8C96A" stroke-width="1" stroke-opacity="0.500"/>
<ellipse cx="454.27" cy="169.72" rx="13.24" ry="9.00" fill="url(#petalGrad)" opacity="0.900" filter="url(#softGlow)" stroke="#E8C96A" stroke-width="0.8"/><ellipse cx="477.09" cy="188.00" rx="13.24" ry="9.00" fill="url(#petalGrad)" opacity="0.900" filter="url(#softGlow)" stroke="#E8C96A" stroke-width="0.8"/><ellipse cx="521.68" cy="202.90" rx="13.24" ry="9.00" fill="url(#petalGrad)" opacity="0.900" filter="url(#softGlow)" stroke="#E8C96A" stroke-width="0.8"/><ellipse cx="582.67" cy="212.62" rx="13.24" ry="9.00" fill="url(#petalGrad)" opacity="0.900" filter="url(#softGlow)" stroke="#E8C96A" stroke-width="0.8"/><ellipse cx="652.70" cy="216.00" rx="13.24" ry="9.00" fill="url(#petalGrad)" opacity="0.900" filter="url(#softGlow)" stroke="#E8C96A" stroke-width="0.8"/><ellipse cx="723.32" cy="212.62" rx="13.24" ry="9.00" fill="url(#petalGrad)" opacity="0.900" filter="url(#softGlow)" stroke="#E8C96A" stroke-width="0.8"/><ellipse cx="786.02" cy="202.90" rx="13.24" ry="9.00" fill="url(#petalGrad)" opacity="0.900" filter="url(#softGlow)" stroke="#E8C96A" stroke-width="0.8"/><ellipse cx="833.24" cy="188.00" rx="13.24" ry="9.00" fill="url(#petalGrad)" opacity="0.900" filter="url(#softGlow)" stroke="#E8C96A" stroke-width="0.8"/><ellipse cx="859.28" cy="169.72" rx="13.24" ry="9.00" fill="url(#petalGrad)" opacity="0.900" filter="url(#softGlow)" stroke="#E8C96A" stroke-width="0.8"/>
<line x1="444.60" y1="456.00" x2="441.60" y2="474.00" stroke="#C9A84C" stroke-width="1" opacity="0.700"/>
    <ellipse cx="441.60" cy="483.99" rx="9.46" ry="9.99" fill="url(#petalGrad)" opacity="1.000" filter="url(#softGlow)"/>
    <ellipse cx="441.60" cy="477.00" rx="6.62" ry="2.00" fill="#E8C96A" opacity="0.500"/><line x1="481.99" y1="456.00" x2="479.87" y2="474.00" stroke="#C9A84C" stroke-width="1" opacity="0.700"/>
    <ellipse cx="479.87" cy="486.08" rx="9.46" ry="12.08" fill="url(#petalGrad)" opacity="1.000" filter="url(#softGlow)"/>
    <ellipse cx="479.87" cy="477.62" rx="6.62" ry="2.42" fill="#E8C96A" opacity="0.500"/><line x1="519.38" y1="456.00" x2="519.43" y2="474.00" stroke="#C9A84C" stroke-width="1" opacity="0.700"/>
    <ellipse cx="519.43" cy="486.99" rx="9.46" ry="12.99" fill="url(#petalGrad)" opacity="1.000" filter="url(#softGlow)"/>
    <ellipse cx="519.43" cy="477.90" rx="6.62" ry="2.60" fill="#E8C96A" opacity="0.500"/><line x1="556.76" y1="456.00" x2="558.95" y2="474.00" stroke="#C9A84C" stroke-width="1" opacity="0.700"/>
    <ellipse cx="558.95" cy="485.72" rx="9.46" ry="11.72" fill="url(#petalGrad)" opacity="1.000" filter="url(#softGlow)"/>
    <ellipse cx="558.95" cy="477.52" rx="6.62" ry="2.34" fill="#E8C96A" opacity="0.500"/><line x1="594.15" y1="456.00" x2="597.15" y2="474.00" stroke="#C9A84C" stroke-width="1" opacity="0.700"/>
    <ellipse cx="597.15" cy="483.67" rx="9.46" ry="9.67" fill="url(#petalGrad)" opacity="1.000" filter="url(#softGlow)"/>
    <ellipse cx="597.15" cy="476.90" rx="6.62" ry="1.93" fill="#E8C96A" opacity="0.500"/><line x1="631.54" y1="456.00" x2="633.53" y2="474.00" stroke="#C9A84C" stroke-width="1" opacity="0.700"/>
    <ellipse cx="633.53" cy="483.07" rx="9.46" ry="9.07" fill="url(#petalGrad)" opacity="1.000" filter="url(#softGlow)"/>
    <ellipse cx="633.53" cy="476.72" rx="6.62" ry="1.81" fill="#E8C96A" opacity="0.500"/><line x1="668.92" y1="456.00" x2="668.70" y2="474.00" stroke="#C9A84C" stroke-width="1" opacity="0.700"/>
    <ellipse cx="668.70" cy="484.58" rx="9.46" ry="10.58" fill="url(#petalGrad)" opacity="1.000" filter="url(#softGlow)"/>
    <ellipse cx="668.70" cy="477.17" rx="6.62" ry="2.12" fill="#E8C96A" opacity="0.500"/><line x1="706.31" y1="456.00" x2="704.01" y2="474.00" stroke="#C9A84C" stroke-width="1" opacity="0.700"/>
    <ellipse cx="704.01" cy="486.55" rx="9.46" ry="12.55" fill="url(#petalGrad)" opacity="1.000" filter="url(#softGlow)"/>
    <ellipse cx="704.01" cy="477.77" rx="6.62" ry="2.51" fill="#E8C96A" opacity="0.500"/><line x1="743.70" y1="456.00" x2="740.71" y2="474.00" stroke="#C9A84C" stroke-width="1" opacity="0.700"/>
    <ellipse cx="740.71" cy="486.83" rx="9.46" ry="12.83" fill="url(#petalGrad)" opacity="1.000" filter="url(#softGlow)"/>
    <ellipse cx="740.71" cy="477.85" rx="6.62" ry="2.57" fill="#E8C96A" opacity="0.500"/><line x1="781.08" y1="456.00" x2="779.23" y2="474.00" stroke="#C9A84C" stroke-width="1" opacity="0.700"/>
    <ellipse cx="779.23" cy="485.11" rx="9.46" ry="11.11" fill="url(#petalGrad)" opacity="1.000" filter="url(#softGlow)"/>
    <ellipse cx="779.23" cy="477.33" rx="6.62" ry="2.22" fill="#E8C96A" opacity="0.500"/><line x1="818.47" y1="456.00" x2="818.87" y2="474.00" stroke="#C9A84C" stroke-width="1" opacity="0.700"/>
    <ellipse cx="818.87" cy="483.27" rx="9.46" ry="9.27" fill="url(#petalGrad)" opacity="1.000" filter="url(#softGlow)"/>
    <ellipse cx="818.87" cy="476.78" rx="6.62" ry="1.85" fill="#E8C96A" opacity="0.500"/>
<ellipse cx="505.02" cy="370.00" rx="15.13" ry="12.86" fill="none" stroke="#C9A84C" stroke-width="1.5" opacity="0.700"/>
      <ellipse cx="505.02" cy="370.00" rx="8.32" ry="7.56" fill="#C9A84C" opacity="0.400"/><ellipse cx="773.22" cy="370.00" rx="15.13" ry="12.86" fill="none" stroke="#C9A84C" stroke-width="1.5" opacity="0.700"/>
      <ellipse cx="773.22" cy="370.00" rx="8.32" ry="7.56" fill="#C9A84C" opacity="0.400"/>
<ellipse cx="641.76" cy="340.00" rx="48.41" ry="44.80" fill="#C9A84C" opacity="-0.018" filter="url(#glow)"/>
    <ellipse cx="641.76" cy="340.00" rx="30.26" ry="28.00" fill="url(#centerGem)" opacity="1.000" filter="url(#glow)" stroke="#E8C96A" stroke-width="2"/>
    <ellipse cx="634.20" cy="331.60" rx="7.56" ry="5.60" fill="white" opacity="0.350"/>
<text x="640" y="586.00" text-anchor="middle" font-family="Cormorant Garamond, Georgia, serif" font-size="28" fill="#C9A84C" opacity="0.720" letter-spacing="8">MALABAR ATELIER</text>
</svg>