<svg xmlns="http://www.w3.org/2000/svg" width="1280" height="720" viewBox="0 0 1280 720">
<defs>
    <radialGradient id="bgGrad" cx="50%" cy="50%" r="60%">
      <stop offset="0%" stop-color="#2A1200"/>
      <stop offset="100%" stop-color="#1A0A00"/>
    </radialGradient>
    <radialGradient id="glowGrad" cx="50%" cy="50%" r="50%">
      <stop offset="0%" stop-color="#C9A84C" stop-opacity="0.002"/>
      <stop offset="100%" stop-color="#C9A84C" stop-opacity="0"/>
    </radialGradient>
    <radialGradient id="centerGem" cx="50%" cy="50%" r="50%">
      <stop offset="0%" stop-color="#FFE8A0"/>
      <stop offset="40%" stop-color="#C9A84C"/>
      <stop offset="100%" stop-color="#8B6914"/>
    </radialGradient>
    <radialGradient id="petalGrad" cx="50%" cy="30%" r="70%">
      <stop offset="0%" stop-color="#E8C96A"/>
      <stop offset="60%" stop-color="#C9A84C"/>
      <stop offset="100%" stop-color="#8B6914"/>
    </radialGradient>
    <filter id="glow" x="-50%" y="-50%" width="200%" height="200%">
      <feGaussianBlur stdDeviation="0.06" result="coloredBlur"/>
      <feMerge><feMergeNode in="coloredBlur"/><feMergeNode in="SourceGraphic"/></feMerge>
    </filter>
    <filter id="softGlow" x="-30%" y="-30%" width="160%" height="160%">
      <feGaussianBlur stdDeviation="3" result="coloredBlur"/>
      <feMerge><feMergeNode in="coloredBlur"/><feMergeNode in="SourceGraphic"/></feMerge>
    </filter>
    <linearGradient id="plateGrad" x1="0%" y1="0%" x2="100%" y2="100%">
      <stop offset="0%" stop-color="#E8C96A"/>
      <stop offset="50%" stop-color="#C9A84C"/>
      <stop offset="100%" stop-color="#8B6914"/>
    </linearGradient>
  </defs>
<rect width="1280" height="720" fill="url(#bgGrad)"/>
<ellipse cx="640" cy="360" rx="224.85" ry="134.91" fill="url(#glowGrad)"/>
<circle cx="793.86" cy="223.82" r="0.83" fill="#C9A84C" opacity="0.699"/><circle cx="320.10" cy="452.57" r="0.78" fill="#C9A84C" opacity="0.594"/><circle cx="779.54" cy="527.98" r="2.51" fill="#C9A84C" opacity="0.479"/><circle cx="831.92" cy="325.16" r="3.50" fill="#C9A84C" opacity="0.358"/><circle cx="324.44" cy="180.04" r="2.29" fill="#C9A84C" opacity="0.364"/><circle cx="737.50" cy="333.01" r="0.66" fill="#C9A84C" opacity="0.484"/><circle cx="866.14" cy="530.68" r="1.00" fill="#C9A84C" opacity="0.598"/><circle cx="335.10" cy="445.64" r="2.81" fill="#C9A84C" opacity="0.704"/><circle cx="693.51" cy="218.75" r="3.43" fill="#C9A84C" opacity="0.797"/><circle cx="895.82" cy="225.82" r="1.96" fill="#C9A84C" opacity="0.875"/><circle cx="351.85" cy="455.15" r="0.54" fill="#C9A84C" opacity="0.935"/><circle cx="648.46" cy="526.87" r="1.26" fill="#C9A84C" opacity="0.977"/><circle cx="920.39" cy="322.19" r="3.06" fill="#C9A84C" opacity="0.998"/><circle cx="374.38" cy="180.14" r="3.31" fill="#C9A84C" opacity="0.997"/><circle cx="603.23" cy="336.00" r="1.64" fill="#C9A84C" opacity="0.975"/><circle cx="939.35" cy="531.62" r="0.50" fill="#C9A84C" opacity="0.933"/><circle cx="402.22" cy="442.97" r="1.56" fill="#C9A84C" opacity="0.872"/><circle cx="558.74" cy="216.89" r="3.26" fill="#C9A84C" opacity="0.793"/>
<path d="M 536.06,160.00 L 535.76,165.88 L 536.77,171.71 L 539.09,177.42 L 542.71,182.96 L 547.57,188.28 L 553.64,193.33 L 560.86,198.06 L 569.15,202.43 L 578.45,206.38 L 588.65,209.89 L 599.66,212.92 L 611.38,215.43 L 623.69,217.42 L 636.47,218.85 L 649.61,219.71 L 662.96,220.00 L 676.41,219.71 L 689.83,218.85 L 703.08,217.42 L 716.04,215.43 L 728.58,212.92 L 740.59,209.89 L 751.94,206.38 L 762.53,202.43 L 772.26,198.06 L 781.03,193.33 L 788.75,188.28 L 795.36,182.96 L 800.79,177.42 L 804.99,171.71 L 807.92,165.88 L 809.54,160.00 L 760.99,456.00 L 487.52,456.00 Z" fill="url(#plateGrad)" opacity="1.000" filter="url(#softGlow)" stroke="#E8C96A" stroke-width="1.5" stroke-opacity="0.6"/>
<polyline points="555.32,176.00 555.23,182.53 557.11,188.94 560.92,195.13 566.61,201.00 574.06,206.44 583.16,211.36 593.75,215.67 605.65,219.30 618.65,222.19 632.53,224.30 647.05,225.57 661.98,226.00 677.04,225.57 691.98,224.30 706.56,222.19 720.50,219.30 733.59,215.67 745.60,211.36 756.31,206.44 765.55,201.00 773.15,195.13 779.00,188.94 782.98,182.53 785.04,176.00" fill="none" stroke="#E8C96A" stroke-width="1" stroke-opacity="0.500"/>
<ellipse cx="547.32" cy="169.72" rx="10.35" ry="9.00" fill="url(#petalGrad)" opacity="0.900" filter="url(#softGlow)" stroke="#E8C96A" stroke-width="0.8"/><ellipse cx="559.26" cy="188.00" rx="10.35" ry="9.00" fill="url(#petalGrad)" opacity="0.900" filter="url(#softGlow)" stroke="#E8C96A" stroke-width="0.8"/><ellipse cx="584.90" cy="202.90" rx="10.35" ry="9.00" fill="url(#petalGrad)" opacity="0.900" filter="url(#softGlow)" stroke="#E8C96A" stroke-width="0.8"/><ellipse cx="621.14" cy="212.62" rx="10.35" ry="9.00" fill="url(#petalGrad)" opacity="0.900" filter="url(#softGlow)" stroke="#E8C96A" stroke-width="0.8"/><ellipse cx="663.62" cy="216.00" rx="10.35" ry="9.00" fill="url(#petalGrad)" opacity="0.900" filter="url(#softGlow)" stroke="#E8C96A" stroke-width="0.8"/><ellipse cx="707.20" cy="212.62" rx="10.35" ry="9.00" fill="url(#petalGrad)" opacity="0.900" filter="url(#softGlow)" stroke="#E8C96A" stroke-width="0.8"/><ellipse cx="746.63" cy="202.90" rx="10.35" ry="9.00" fill="url(#petalGrad)" opacity="0.900" filter="url(#softGlow)" stroke="#E8C96A" stroke-width="0.8"/><ellipse cx="777.15" cy="188.00" rx="10.35" ry="9.00" fill="url(#petalGrad)" opacity="0.900" filter="url(#softGlow)" stroke="#E8C96A" stroke-width="0.8"/><ellipse cx="795.09" cy="169.72" rx="10.35" ry="9.00" fill="url(#petalGrad)" opacity="0.900" filter="url(#softGlow)" stroke="#E8C96A" stroke-width="0.8"/>
<line x1="509.89" y1="456.00" x2="511.34" y2="474.00" stroke="#C9A84C" stroke-width="1" opacity="0.700"/>
    <ellipse cx="511.34" cy="483.13" rx="7.40" ry="9.13" fill="url(#petalGrad)" opacity="1.000" filter="url(#softGlow)"/>
    <ellipse cx="511.34" cy="476.74" rx="5.18" ry="1.83" fill="#E8C96A" opacity="0.500"/><line x1="532.77" y1="456.00" x2="531.88" y2="474.00" stroke="#C9A84C" stroke-width="1" opacity="0.700"/>
    <ellipse cx="531.88" cy="484.77" rx="7.40" ry="10.77" fill="url(#petalGrad)" opacity="1.000" filter="url(#softGlow)"/>
    <ellipse cx="531.88" cy="477.23" rx="5.18" ry="2.15" fill="#E8C96A" opacity="0.500"/><line x1="555.64" y1="456.00" x2="552.97" y2="474.00" stroke="#C9A84C" stroke-width="1" opacity="0.700"/>
    <ellipse cx="552.97" cy="486.67" rx="7.40" ry="12.67" fill="url(#petalGrad)" opacity="1.000" filter="url(#softGlow)"/>
    <ellipse cx="552.97" cy="477.80" rx="5.18" ry="2.53" fill="#E8C96A" opacity="0.500"/><line x1="578.51" y1="456.00" x2="575.67" y2="474.00" stroke="#C9A84C" stroke-width="1" opacity="0.700"/>
    <ellipse cx="575.67" cy="486.74" rx="7.40" ry="12.74" fill="url(#petalGrad)" opacity="1.000" filter="url(#softGlow)"/>
    <ellipse cx="575.67" cy="477.82" rx="5.18" ry="2.55" fill="#E8C96A" opacity="0.500"/><line x1="601.38" y1="456.00" x2="600.10" y2="474.00" stroke="#C9A84C" stroke-width="1" opacity="0.700"/>
    <ellipse cx="600.10" cy="484.91" rx="7.40" ry="10.91" fill="url(#petalGrad)" opacity="1.000" filter="url(#softGlow)"/>
    <ellipse cx="600.10" cy="477.27" rx="5.18" ry="2.18" fill="#E8C96A" opacity="0.500"/><line x1="624.26" y1="456.00" x2="625.30" y2="474.00" stroke="#C9A84C" stroke-width="1" opacity="0.700"/>
    <ellipse cx="625.30" cy="483.18" rx="7.40" ry="9.18" fill="url(#petalGrad)" opacity="1.000" filter="url(#softGlow)"/>
    <ellipse cx="625.30" cy="476.75" rx="5.18" ry="1.84" fill="#E8C96A" opacity="0.500"/><line x1="647.13" y1="456.00" x2="649.87" y2="474.00" stroke="#C9A84C" stroke-width="1" opacity="0.700"/>
    <ellipse cx="649.87" cy="483.44" rx="7.40" ry="9.44" fill="url(#petalGrad)" opacity="1.000" filter="url(#softGlow)"/>
    <ellipse cx="649.87" cy="476.83" rx="5.18" ry="1.89" fill="#E8C96A" opacity="0.500"/><line x1="670.00" y1="456.00" x2="672.78" y2="474.00" stroke="#C9A84C" stroke-width="1" opacity="0.700"/>
    <ellipse cx="672.78" cy="485.40" rx="7.40" ry="11.40" fill="url(#petalGrad)" opacity="1.000" filter="url(#softGlow)"/>
    <ellipse cx="672.78" cy="477.42" rx="5.18" ry="2.28" fill="#E8C96A" opacity="0.500"/><line x1="692.87" y1="456.00" x2="694.00" y2="474.00" stroke="#C9A84C" stroke-width="1" opacity="0.700"/>
    <ellipse cx="694.00" cy="486.93" rx="7.40" ry="12.93" fill="url(#petalGrad)" opacity="1.000" filter="url(#softGlow)"/>
    <ellipse cx="694.00" cy="477.88" rx="5.18" ry="2.59" fill="#E8C96A" opacity="0.500"/><line x1="715.75" y1="456.00" x2="714.54" y2="474.00" stroke="#C9A84C" stroke-width="1" opacity="0.700"/>
    <ellipse cx="714.54" cy="486.35" rx="7.40" ry="12.35" fill="url(#petalGrad)" opacity="1.000" filter="url(#softGlow)"/>
    <ellipse cx="714.54" cy="477.70" rx="5.18" ry="2.47" fill="#E8C96A" opacity="0.500"/><line x1="738.62" y1="456.00" x2="735.81" y2="474.00" stroke="#C9A84C" stroke-width="1" opacity="0.700"/>
    <ellipse cx="735.81" cy="484.29" rx="7.40" ry="10.29" fill="url(#petalGrad)" opacity="1.000" filter="url(#softGlow)"/>
    <ellipse cx="735.81" cy="477.09" rx="5.18" ry="2.06" fill="#E8C96A" opacity="0.500"/>
<ellipse cx="556.32" cy="370.00" rx="11.83" ry="10.06" fill="none" stroke="#C9A84C" stroke-width="1.5" opacity="0.700"/>
      <ellipse cx="556.32" cy="370.00" rx="6.51" ry="5.92" fill="#C9A84C" opacity="0.400"/><ellipse cx="720.40" cy="370.00" rx="11.83" ry="10.06" fill="none" stroke="#C9A84C" stroke-width="1.5" opacity="0.700"/>
      <ellipse cx="720.40" cy="370.00" rx="6.51" ry="5.92" fill="#C9A84C" opacity="0.400"/>
<ellipse cx="643.28" cy="340.00" rx="37.87" ry="44.80" fill="#C9A84C" opacity="0.001" filter="url(#glow)"/>
    <ellipse cx="643.28" cy="340.00" rx="23.67" ry="28.00" fill="url(#centerGem)" opacity="1.000" filter="url(#glow)" stroke="#E8C96A" stroke-width="2"/>
    <ellipse cx="637.36" cy="331.60" rx="5.92" ry="5.60" fill="white" opacity="0.350"/>
<text x="640" y="586.00" text-anchor="middle" font-family="Cormorant Garamond, Georgia, serif" font-size="28" fill="#C9A84C" opacity="0.356" letter-spacing="8">MALABAR ATELIER</text>
</svg>