<svg xmlns="http://www.w3.org/2000/svg" width="1280" height="720" viewBox="0 0 1280 720">
<defs>
    <radialGradient id="bgGrad" cx="50%" cy="50%" r="60%">
      <stop offset="0%" stop-color="#2A1200"/>
      <stop offset="100%" stop-color="#1A0A00"/>
    </radialGradient>
    <radialGradient id="glowGrad" cx="50%" cy="50%" r="50%">
      <stop offset="0%" stop-color="#C9A84C" stop-opacity="0.165"/>
      <stop offset="100%" stop-color="#C9A84C" stop-opacity="0"/>
    </radialGradient>
    <radialGradient id="centerGem" cx="50%" cy="50%" r="50%">
      <stop offset="0%" stop-color="#FFE8A0"/>
      <stop offset="40%" stop-color="#C9A84C"/>
      <stop offset="100%" stop-color="#8B6914"/>
    </radialGradient>
    <radialGradient id="petalGrad" cx="50%" cy="30%" r="70%">
      <stop offset="0%" stop-color="#E8C96A"/>
      <stop offset="60%" stop-color="#C9A84C"/>
      <stop offset="100%" stop-color="#8B6914"/>
    </radialGradient>
    <filter id="glow" x="-50%" y="-50%" width="200%" height="200%">
      <feGaussianBlur stdDeviation="5.28" result="coloredBlur"/>
      <feMerge><feMergeNode in="coloredBlur"/><feMergeNode in="SourceGraphic"/></feMerge>
    </filter>
    <filter id="softGlow" x="-30%" y="-30%" width="160%" height="160%">
      <feGaussianBlur stdDeviation="3" result="coloredBlur"/>
      <feMerge><feMergeNode in="coloredBlur"/><feMergeNode in="SourceGraphic"/></feMerge>
    </filter>
    <linearGradient id="plateGrad" x1="0%" y1="0%" x2="100%" y2="100%">
      <stop offset="0%" stop-color="#E8C96A"/>
      <stop offset="50%" stop-color="#C9A84C"/>
      <stop offset="100%" stop-color="#8B6914"/>
    </linearGradient>
  </defs>
<rect width="1280" height="720" fill="url(#bgGrad)"/>
<ellipse cx="640" cy="360" rx="297.96" ry="178.77" fill="url(#glowGrad)"/>
<circle cx="890.19" cy="197.83" r="1.37" fill="#C9A84C" opacity="0.847"/><circle cx="702.57" cy="255.20" r="0.52" fill="#C9A84C" opacity="0.763"/><circle cx="332.43" cy="486.16" r="1.83" fill="#C9A84C" opacity="0.665"/><circle cx="859.53" cy="508.15" r="3.39" fill="#C9A84C" opacity="0.556"/><circle cx="746.23" cy="284.74" r="2.91" fill="#C9A84C" opacity="0.439"/><circle cx="323.04" cy="185.99" r="1.10" fill="#C9A84C" opacity="0.317"/><circle cx="824.47" cy="375.46" r="0.60" fill="#C9A84C" opacity="0.404"/><circle cx="787.76" cy="539.32" r="2.16" fill="#C9A84C" opacity="0.523"/><circle cx="320.00" cy="406.16" r="3.48" fill="#C9A84C" opacity="0.635"/><circle cx="785.73" cy="196.54" r="2.63" fill="#C9A84C" opacity="0.736"/><circle cx="826.34" cy="257.67" r="0.86" fill="#C9A84C" opacity="0.825"/><circle cx="323.37" cy="488.30" r="0.76" fill="#C9A84C" opacity="0.897"/><circle cx="744.07" cy="506.41" r="2.47" fill="#C9A84C" opacity="0.952"/><circle cx="861.19" cy="282.01" r="3.50" fill="#C9A84C" opacity="0.986"/><circle cx="333.07" cy="186.79" r="2.33" fill="#C9A84C" opacity="1.000"/><circle cx="700.32" cy="378.48" r="0.68" fill="#C9A84C" opacity="0.992"/><circle cx="891.61" cy="539.56" r="0.97" fill="#C9A84C" opacity="0.964"/><circle cx="348.91" cy="403.22" r="2.77" fill="#C9A84C" opacity="0.915"/>
<path d="M 555.44,160.00 L 555.01,165.88 L 555.72,171.71 L 557.58,177.42 L 560.56,182.96 L 564.63,188.28 L 569.75,193.33 L 575.89,198.06 L 582.96,202.43 L 590.92,206.38 L 599.67,209.89 L 609.15,212.92 L 619.25,215.43 L 629.87,217.42 L 640.93,218.85 L 652.30,219.71 L 663.89,220.00 L 675.57,219.71 L 687.24,218.85 L 698.78,217.42 L 710.08,215.43 L 721.04,212.92 L 731.55,209.89 L 741.50,206.38 L 750.81,202.43 L 759.37,198.06 L 767.12,193.33 L 773.97,188.28 L 779.85,182.96 L 784.72,177.42 L 788.53,171.71 L 791.23,165.88 L 792.81,160.00 L 742.30,456.00 L 504.94,456.00 Z" fill="url(#plateGrad)" opacity="1.000" filter="url(#softGlow)" stroke="#E8C96A" stroke-width="1.5" stroke-opacity="0.6"/>
<polyline points="571.70,176.00 571.44,182.53 572.89,188.94 576.02,195.13 580.79,201.00 587.11,206.44 594.87,211.36 603.94,215.67 614.16,219.30 625.36,222.19 637.35,224.30 649.92,225.57 662.86,226.00 675.95,225.57 688.96,224.30 701.66,222.19 713.85,219.30 725.31,215.67 735.85,211.36 745.29,206.44 753.46,201.00 760.23,195.13 765.48,188.94 769.12,182.53 771.09,176.00" fill="none" stroke="#E8C96A" stroke-width="1" stroke-opacity="0.500"/>
<ellipse cx="564.93" cy="169.72" rx="9.65" ry="9.00" fill="url(#petalGrad)" opacity="0.900" filter="url(#softGlow)" stroke="#E8C96A" stroke-width="0.8"/><ellipse cx="574.79" cy="188.00" rx="9.65" ry="9.00" fill="url(#petalGrad)" opacity="0.900" filter="url(#softGlow)" stroke="#E8C96A" stroke-width="0.8"/><ellipse cx="596.62" cy="202.90" rx="9.65" ry="9.00" fill="url(#petalGrad)" opacity="0.900" filter="url(#softGlow)" stroke="#E8C96A" stroke-width="0.8"/><ellipse cx="627.80" cy="212.62" rx="9.65" ry="9.00" fill="url(#petalGrad)" opacity="0.900" filter="url(#softGlow)" stroke="#E8C96A" stroke-width="0.8"/><ellipse cx="664.57" cy="216.00" rx="9.65" ry="9.00" fill="url(#petalGrad)" opacity="0.900" filter="url(#softGlow)" stroke="#E8C96A" stroke-width="0.8"/><ellipse cx="702.49" cy="212.62" rx="9.65" ry="9.00" fill="url(#petalGrad)" opacity="0.900" filter="url(#softGlow)" stroke="#E8C96A" stroke-width="0.8"/><ellipse cx="736.99" cy="202.90" rx="9.65" ry="9.00" fill="url(#petalGrad)" opacity="0.900" filter="url(#softGlow)" stroke="#E8C96A" stroke-width="0.8"/><ellipse cx="763.91" cy="188.00" rx="9.65" ry="9.00" fill="url(#petalGrad)" opacity="0.900" filter="url(#softGlow)" stroke="#E8C96A" stroke-width="0.8"/><ellipse cx="779.99" cy="169.72" rx="9.65" ry="9.00" fill="url(#petalGrad)" opacity="0.900" filter="url(#softGlow)" stroke="#E8C96A" stroke-width="0.8"/>
<line x1="524.36" y1="456.00" x2="526.70" y2="474.00" stroke="#C9A84C" stroke-width="1" opacity="0.700"/>
    <ellipse cx="526.70" cy="483.05" rx="6.89" ry="9.05" fill="url(#petalGrad)" opacity="1.000" filter="url(#softGlow)"/>
    <ellipse cx="526.70" cy="476.72" rx="4.82" ry="1.81" fill="#E8C96A" opacity="0.500"/><line x1="544.21" y1="456.00" x2="547.19" y2="474.00" stroke="#C9A84C" stroke-width="1" opacity="0.700"/>
    <ellipse cx="547.19" cy="483.72" rx="6.89" ry="9.72" fill="url(#petalGrad)" opacity="1.000" filter="url(#softGlow)"/>
    <ellipse cx="547.19" cy="476.92" rx="4.82" ry="1.94" fill="#E8C96A" opacity="0.500"/><line x1="564.06" y1="456.00" x2="565.87" y2="474.00" stroke="#C9A84C" stroke-width="1" opacity="0.700"/>
    <ellipse cx="565.87" cy="485.79" rx="6.89" ry="11.79" fill="url(#petalGrad)" opacity="1.000" filter="url(#softGlow)"/>
    <ellipse cx="565.87" cy="477.54" rx="4.82" ry="2.36" fill="#E8C96A" opacity="0.500"/><line x1="583.92" y1="456.00" x2="583.45" y2="474.00" stroke="#C9A84C" stroke-width="1" opacity="0.700"/>
    <ellipse cx="583.45" cy="487.00" rx="6.89" ry="13.00" fill="url(#petalGrad)" opacity="1.000" filter="url(#softGlow)"/>
    <ellipse cx="583.45" cy="477.90" rx="4.82" ry="2.60" fill="#E8C96A" opacity="0.500"/><line x1="603.77" y1="456.00" x2="601.32" y2="474.00" stroke="#C9A84C" stroke-width="1" opacity="0.700"/>
    <ellipse cx="601.32" cy="486.02" rx="6.89" ry="12.02" fill="url(#petalGrad)" opacity="1.000" filter="url(#softGlow)"/>
    <ellipse cx="601.32" cy="477.61" rx="4.82" ry="2.40" fill="#E8C96A" opacity="0.500"/><line x1="623.62" y1="456.00" x2="620.67" y2="474.00" stroke="#C9A84C" stroke-width="1" opacity="0.700"/>
    <ellipse cx="620.67" cy="483.93" rx="6.89" ry="9.93" fill="url(#petalGrad)" opacity="1.000" filter="url(#softGlow)"/>
    <ellipse cx="620.67" cy="476.98" rx="4.82" ry="1.99" fill="#E8C96A" opacity="0.500"/><line x1="643.47" y1="456.00" x2="641.82" y2="474.00" stroke="#C9A84C" stroke-width="1" opacity="0.700"/>
    <ellipse cx="641.82" cy="483.01" rx="6.89" ry="9.01" fill="url(#petalGrad)" opacity="1.000" filter="url(#softGlow)"/>
    <ellipse cx="641.82" cy="476.70" rx="4.82" ry="1.80" fill="#E8C96A" opacity="0.500"/><line x1="663.33" y1="456.00" x2="663.96" y2="474.00" stroke="#C9A84C" stroke-width="1" opacity="0.700"/>
    <ellipse cx="663.96" cy="484.26" rx="6.89" ry="10.26" fill="url(#petalGrad)" opacity="1.000" filter="url(#softGlow)"/>
    <ellipse cx="663.96" cy="477.08" rx="4.82" ry="2.05" fill="#E8C96A" opacity="0.500"/><line x1="683.18" y1="456.00" x2="685.73" y2="474.00" stroke="#C9A84C" stroke-width="1" opacity="0.700"/>
    <ellipse cx="685.73" cy="486.32" rx="6.89" ry="12.32" fill="url(#petalGrad)" opacity="1.000" filter="url(#softGlow)"/>
    <ellipse cx="685.73" cy="477.70" rx="4.82" ry="2.46" fill="#E8C96A" opacity="0.500"/><line x1="703.03" y1="456.00" x2="705.94" y2="474.00" stroke="#C9A84C" stroke-width="1" opacity="0.700"/>
    <ellipse cx="705.94" cy="486.94" rx="6.89" ry="12.94" fill="url(#petalGrad)" opacity="1.000" filter="url(#softGlow)"/>
    <ellipse cx="705.94" cy="477.88" rx="4.82" ry="2.59" fill="#E8C96A" opacity="0.500"/><line x1="722.88" y1="456.00" x2="724.39" y2="474.00" stroke="#C9A84C" stroke-width="1" opacity="0.700"/>
    <ellipse cx="724.39" cy="485.44" rx="6.89" ry="11.44" fill="url(#petalGrad)" opacity="1.000" filter="url(#softGlow)"/>
    <ellipse cx="724.39" cy="477.43" rx="4.82" ry="2.29" fill="#E8C96A" opacity="0.500"/>
<ellipse cx="567.08" cy="370.00" rx="11.02" ry="9.37" fill="none" stroke="#C9A84C" stroke-width="1.5" opacity="0.700"/>
      <ellipse cx="567.08" cy="370.00" rx="6.06" ry="5.51" fill="#C9A84C" opacity="0.400"/><ellipse cx="709.50" cy="370.00" rx="11.02" ry="9.37" fill="none" stroke="#C9A84C" stroke-width="1.5" opacity="0.700"/>
      <ellipse cx="709.50" cy="370.00" rx="6.06" ry="5.51" fill="#C9A84C" opacity="0.400"/>
<ellipse cx="643.41" cy="340.00" rx="35.28" ry="44.80" fill="#C9A84C" opacity="0.099" filter="url(#glow)"/>
    <ellipse cx="643.41" cy="340.00" rx="22.05" ry="28.00" fill="url(#centerGem)" opacity="1.000" filter="url(#glow)" stroke="#E8C96A" stroke-width="2"/>
    <ellipse cx="637.90" cy="331.60" rx="5.51" ry="5.60" fill="white" opacity="0.350"/>
<text x="640" y="586.00" text-anchor="middle" font-family="Cormorant Garamond, Georgia, serif" font-size="28" fill="#C9A84C" opacity="0.048" letter-spacing="8">MALABAR ATELIER</text>
</svg>