<svg xmlns="http://www.w3.org/2000/svg" width="1280" height="720" viewBox="0 0 1280 720">
<defs>
    <radialGradient id="bgGrad" cx="50%" cy="50%" r="60%">
      <stop offset="0%" stop-color="#2A1200"/>
      <stop offset="100%" stop-color="#1A0A00"/>
    </radialGradient>
    <radialGradient id="glowGrad" cx="50%" cy="50%" r="50%">
      <stop offset="0%" stop-color="#C9A84C" stop-opacity="0.158"/>
      <stop offset="100%" stop-color="#C9A84C" stop-opacity="0"/>
    </radialGradient>
    <radialGradient id="centerGem" cx="50%" cy="50%" r="50%">
      <stop offset="0%" stop-color="#FFE8A0"/>
      <stop offset="40%" stop-color="#C9A84C"/>
      <stop offset="100%" stop-color="#8B6914"/>
    </radialGradient>
    <radialGradient id="petalGrad" cx="50%" cy="30%" r="70%">
      <stop offset="0%" stop-color="#E8C96A"/>
      <stop offset="60%" stop-color="#C9A84C"/>
      <stop offset="100%" stop-color="#8B6914"/>
    </radialGradient>
    <filter id="glow" x="-50%" y="-50%" width="200%" height="200%">
      <feGaussianBlur stdDeviation="5.05" result="coloredBlur"/>
      <feMerge><feMergeNode in="coloredBlur"/><feMergeNode in="SourceGraphic"/></feMerge>
    </filter>
    <filter id="softGlow" x="-30%" y="-30%" width="160%" height="160%">
      <feGaussianBlur stdDeviation="3" result="coloredBlur"/>
      <feMerge><feMergeNode in="coloredBlur"/><feMergeNode in="SourceGraphic"/></feMerge>
    </filter>
    <linearGradient id="plateGrad" x1="0%" y1="0%" x2="100%" y2="100%">
      <stop offset="0%" stop-color="#E8C96A"/>
      <stop offset="50%" stop-color="#C9A84C"/>
      <stop offset="100%" stop-color="#8B6914"/>
    </linearGradient>
  </defs>
<rect width="1280" height="720" fill="url(#bgGrad)"/>
<ellipse cx="640" cy="360" rx="167.20" ry="100.32" fill="url(#glowGrad)"/>
<circle cx="489.55" cy="265.78" r="1.89" fill="#C9A84C" opacity="0.487"/><circle cx="618.70" cy="305.01" r="1.71" fill="#C9A84C" opacity="0.545"/><circle cx="809.98" cy="435.32" r="0.69" fill="#C9A84C" opacity="0.591"/><circle cx="505.40" cy="440.87" r="0.32" fill="#C9A84C" opacity="0.626"/><circle cx="593.47" cy="312.47" r="1.14" fill="#C9A84C" opacity="0.648"/><circle cx="817.28" cy="262.80" r="1.96" fill="#C9A84C" opacity="0.655"/><circle cx="523.94" cy="374.13" r="1.57" fill="#C9A84C" opacity="0.649"/><circle cx="569.17" cy="462.06" r="0.54" fill="#C9A84C" opacity="0.630"/><circle cx="821.03" cy="380.94" r="0.39" fill="#C9A84C" opacity="0.597"/><circle cx="544.80" cy="265.14" r="1.33" fill="#C9A84C" opacity="0.552"/><circle cx="546.29" cy="306.46" r="1.98" fill="#C9A84C" opacity="0.496"/><circle cx="821.15" cy="436.47" r="1.40" fill="#C9A84C" opacity="0.431"/><circle cx="567.56" cy="439.81" r="0.43" fill="#C9A84C" opacity="0.359"/><circle cx="525.29" cy="310.96" r="0.49" fill="#C9A84C" opacity="0.282"/><circle cx="817.65" cy="263.33" r="1.50" fill="#C9A84C" opacity="0.202"/><circle cx="591.78" cy="375.83" r="1.97" fill="#C9A84C" opacity="0.271"/><circle cx="506.58" cy="462.10" r="1.22" fill="#C9A84C" opacity="0.348"/><circle cx="810.59" cy="379.26" r="0.34" fill="#C9A84C" opacity="0.421"/>
<path d="M 555.20,246.53 L 556.09,249.87 L 557.60,253.18 L 559.71,256.42 L 562.41,259.56 L 565.67,262.58 L 569.46,265.45 L 573.74,268.13 L 578.47,270.60 L 583.60,272.85 L 589.09,274.84 L 594.89,276.56 L 600.93,277.98 L 607.16,279.11 L 613.51,279.92 L 619.94,280.41 L 626.37,280.57 L 632.75,280.41 L 639.00,279.92 L 645.08,279.11 L 650.93,277.98 L 656.48,276.56 L 661.68,274.84 L 666.49,272.85 L 670.86,270.60 L 674.74,268.13 L 678.10,265.45 L 680.90,262.58 L 683.12,259.56 L 684.74,256.42 L 685.74,253.18 L 686.12,249.87 L 685.86,246.53 L 714.67,414.46 L 584.02,414.46 Z" fill="url(#plateGrad)" opacity="0.655" filter="url(#softGlow)" stroke="#E8C96A" stroke-width="1.5" stroke-opacity="0.6"/>
<polyline points="567.21,255.61 568.32,259.31 570.34,262.95 573.25,266.47 577.00,269.80 581.52,272.88 586.73,275.67 592.54,278.12 598.87,280.18 605.59,281.82 612.59,283.01 619.75,283.74 626.96,283.98 634.08,283.74 640.99,283.01 647.59,281.82 653.74,280.18 659.36,278.12 664.33,275.67 668.59,272.88 672.05,269.80 674.65,266.47 676.36,262.95 677.13,259.31 676.97,255.61" fill="none" stroke="#E8C96A" stroke-width="1" stroke-opacity="0.328"/>
<ellipse cx="562.29" cy="252.05" rx="5.39" ry="5.11" fill="url(#petalGrad)" opacity="0.590" filter="url(#softGlow)" stroke="#E8C96A" stroke-width="0.8"/><ellipse cx="571.21" cy="262.42" rx="5.39" ry="5.11" fill="url(#petalGrad)" opacity="0.590" filter="url(#softGlow)" stroke="#E8C96A" stroke-width="0.8"/><ellipse cx="586.07" cy="270.87" rx="5.39" ry="5.11" fill="url(#petalGrad)" opacity="0.590" filter="url(#softGlow)" stroke="#E8C96A" stroke-width="0.8"/><ellipse cx="605.10" cy="276.39" rx="5.39" ry="5.11" fill="url(#petalGrad)" opacity="0.590" filter="url(#softGlow)" stroke="#E8C96A" stroke-width="0.8"/><ellipse cx="625.98" cy="278.31" rx="5.39" ry="5.11" fill="url(#petalGrad)" opacity="0.590" filter="url(#softGlow)" stroke="#E8C96A" stroke-width="0.8"/><ellipse cx="646.21" cy="276.39" rx="5.39" ry="5.11" fill="url(#petalGrad)" opacity="0.590" filter="url(#softGlow)" stroke="#E8C96A" stroke-width="0.8"/><ellipse cx="663.34" cy="270.87" rx="5.39" ry="5.11" fill="url(#petalGrad)" opacity="0.590" filter="url(#softGlow)" stroke="#E8C96A" stroke-width="0.8"/><ellipse cx="675.31" cy="262.42" rx="5.39" ry="5.11" fill="url(#petalGrad)" opacity="0.590" filter="url(#softGlow)" stroke="#E8C96A" stroke-width="0.8"/><ellipse cx="680.67" cy="252.05" rx="5.39" ry="5.11" fill="url(#petalGrad)" opacity="0.590" filter="url(#softGlow)" stroke="#E8C96A" stroke-width="0.8"/>
<line x1="594.71" y1="414.46" x2="593.30" y2="424.68" stroke="#C9A84C" stroke-width="1" opacity="0.459"/>
    <ellipse cx="593.30" cy="432.03" rx="3.85" ry="7.35" fill="url(#petalGrad)" opacity="0.655" filter="url(#softGlow)"/>
    <ellipse cx="593.30" cy="426.88" rx="2.70" ry="1.47" fill="#E8C96A" opacity="0.328"/><line x1="605.63" y1="414.46" x2="603.97" y2="424.68" stroke="#C9A84C" stroke-width="1" opacity="0.459"/>
    <ellipse cx="603.97" cy="431.62" rx="3.85" ry="6.94" fill="url(#petalGrad)" opacity="0.655" filter="url(#softGlow)"/>
    <ellipse cx="603.97" cy="426.76" rx="2.70" ry="1.39" fill="#E8C96A" opacity="0.328"/><line x1="616.56" y1="414.46" x2="615.65" y2="424.68" stroke="#C9A84C" stroke-width="1" opacity="0.459"/>
    <ellipse cx="615.65" cy="430.44" rx="3.85" ry="5.77" fill="url(#petalGrad)" opacity="0.655" filter="url(#softGlow)"/>
    <ellipse cx="615.65" cy="426.41" rx="2.70" ry="1.15" fill="#E8C96A" opacity="0.328"/><line x1="627.49" y1="414.46" x2="627.89" y2="424.68" stroke="#C9A84C" stroke-width="1" opacity="0.459"/>
    <ellipse cx="627.89" cy="429.78" rx="3.85" ry="5.11" fill="url(#petalGrad)" opacity="0.655" filter="url(#softGlow)"/>
    <ellipse cx="627.89" cy="426.21" rx="2.70" ry="1.02" fill="#E8C96A" opacity="0.328"/><line x1="638.42" y1="414.46" x2="639.88" y2="424.68" stroke="#C9A84C" stroke-width="1" opacity="0.459"/>
    <ellipse cx="639.88" cy="430.36" rx="3.85" ry="5.69" fill="url(#petalGrad)" opacity="0.655" filter="url(#softGlow)"/>
    <ellipse cx="639.88" cy="426.38" rx="2.70" ry="1.14" fill="#E8C96A" opacity="0.328"/><line x1="649.34" y1="414.46" x2="650.99" y2="424.68" stroke="#C9A84C" stroke-width="1" opacity="0.459"/>
    <ellipse cx="650.99" cy="431.55" rx="3.85" ry="6.87" fill="url(#petalGrad)" opacity="0.655" filter="url(#softGlow)"/>
    <ellipse cx="650.99" cy="426.74" rx="2.70" ry="1.37" fill="#E8C96A" opacity="0.328"/><line x1="660.27" y1="414.46" x2="661.10" y2="424.68" stroke="#C9A84C" stroke-width="1" opacity="0.459"/>
    <ellipse cx="661.10" cy="432.04" rx="3.85" ry="7.37" fill="url(#petalGrad)" opacity="0.655" filter="url(#softGlow)"/>
    <ellipse cx="661.10" cy="426.89" rx="2.70" ry="1.47" fill="#E8C96A" opacity="0.328"/><line x1="671.20" y1="414.46" x2="670.71" y2="424.68" stroke="#C9A84C" stroke-width="1" opacity="0.459"/>
    <ellipse cx="670.71" cy="431.31" rx="3.85" ry="6.63" fill="url(#petalGrad)" opacity="0.655" filter="url(#softGlow)"/>
    <ellipse cx="670.71" cy="426.66" rx="2.70" ry="1.33" fill="#E8C96A" opacity="0.328"/><line x1="682.13" y1="414.46" x2="680.62" y2="424.68" stroke="#C9A84C" stroke-width="1" opacity="0.459"/>
    <ellipse cx="680.62" cy="430.14" rx="3.85" ry="5.47" fill="url(#petalGrad)" opacity="0.655" filter="url(#softGlow)"/>
    <ellipse cx="680.62" cy="426.32" rx="2.70" ry="1.09" fill="#E8C96A" opacity="0.328"/><line x1="693.06" y1="414.46" x2="691.44" y2="424.68" stroke="#C9A84C" stroke-width="1" opacity="0.459"/>
    <ellipse cx="691.44" cy="429.82" rx="3.85" ry="5.15" fill="url(#petalGrad)" opacity="0.655" filter="url(#softGlow)"/>
    <ellipse cx="691.44" cy="426.22" rx="2.70" ry="1.03" fill="#E8C96A" opacity="0.328"/><line x1="703.98" y1="414.46" x2="703.25" y2="424.68" stroke="#C9A84C" stroke-width="1" opacity="0.459"/>
    <ellipse cx="703.25" cy="430.70" rx="3.85" ry="6.02" fill="url(#petalGrad)" opacity="0.655" filter="url(#softGlow)"/>
    <ellipse cx="703.25" cy="426.48" rx="2.70" ry="1.20" fill="#E8C96A" opacity="0.328"/>
<ellipse cx="601.78" cy="365.67" rx="6.16" ry="5.24" fill="none" stroke="#C9A84C" stroke-width="1.5" opacity="0.459"/>
      <ellipse cx="601.78" cy="365.67" rx="3.39" ry="3.08" fill="#C9A84C" opacity="0.262"/><ellipse cx="680.17" cy="365.67" rx="6.16" ry="5.24" fill="none" stroke="#C9A84C" stroke-width="1.5" opacity="0.459"/>
      <ellipse cx="680.17" cy="365.67" rx="3.39" ry="3.08" fill="#C9A84C" opacity="0.262"/>
<ellipse cx="638.05" cy="348.65" rx="19.71" ry="25.42" fill="#C9A84C" opacity="0.062" filter="url(#glow)"/>
    <ellipse cx="638.05" cy="348.65" rx="12.32" ry="15.89" fill="url(#centerGem)" opacity="0.655" filter="url(#glow)" stroke="#E8C96A" stroke-width="2"/>
    <ellipse cx="634.97" cy="343.89" rx="3.08" ry="3.18" fill="white" opacity="0.229"/>

</svg>