<svg xmlns="http://www.w3.org/2000/svg" width="1280" height="720" viewBox="0 0 1280 720">
<defs>
    <radialGradient id="bgGrad" cx="50%" cy="50%" r="60%">
      <stop offset="0%" stop-color="#2A1200"/>
      <stop offset="100%" stop-color="#1A0A00"/>
    </radialGradient>
    <radialGradient id="glowGrad" cx="50%" cy="50%" r="50%">
      <stop offset="0%" stop-color="#C9A84C" stop-opacity="0.250"/>
      <stop offset="100%" stop-color="#C9A84C" stop-opacity="0"/>
    </radialGradient>
    <radialGradient id="centerGem" cx="50%" cy="50%" r="50%">
      <stop offset="0%" stop-color="#FFE8A0"/>
      <stop offset="40%" stop-color="#C9A84C"/>
      <stop offset="100%" stop-color="#8B6914"/>
    </radialGradient>
    <radialGradient id="petalGrad" cx="50%" cy="30%" r="70%">
      <stop offset="0%" stop-color="#E8C96A"/>
      <stop offset="60%" stop-color="#C9A84C"/>
      <stop offset="100%" stop-color="#8B6914"/>
    </radialGradient>
    <filter id="glow" x="-50%" y="-50%" width="200%" height="200%">
      <feGaussianBlur stdDeviation="8.00" result="coloredBlur"/>
      <feMerge><feMergeNode in="coloredBlur"/><feMergeNode in="SourceGraphic"/></feMerge>
    </filter>
    <filter id="softGlow" x="-30%" y="-30%" width="160%" height="160%">
      <feGaussianBlur stdDeviation="3" result="coloredBlur"/>
      <feMerge><feMergeNode in="coloredBlur"/><feMergeNode in="SourceGraphic"/></feMerge>
    </filter>
    <linearGradient id="plateGrad" x1="0%" y1="0%" x2="100%" y2="100%">
      <stop offset="0%" stop-color="#E8C96A"/>
      <stop offset="50%" stop-color="#C9A84C"/>
      <stop offset="100%" stop-color="#8B6914"/>
    </linearGradient>
  </defs>
<rect width="1280" height="720" fill="url(#bgGrad)"/>
<ellipse cx="640" cy="360" rx="335.95" ry="201.57" fill="url(#glowGrad)"/>
<circle cx="400.69" cy="367.13" r="2.05" fill="#C9A84C" opacity="0.949"/><circle cx="938.53" cy="184.04" r="0.57" fill="#C9A84C" opacity="0.894"/><circle cx="605.51" cy="292.41" r="1.19" fill="#C9A84C" opacity="0.821"/><circle cx="373.11" cy="512.74" r="3.00" fill="#C9A84C" opacity="0.732"/><circle cx="919.28" cy="480.07" r="3.35" fill="#C9A84C" opacity="0.629"/><circle cx="650.75" cy="248.52" r="1.72" fill="#C9A84C" opacity="0.517"/><circle cx="350.86" cy="201.62" r="0.51" fill="#C9A84C" opacity="0.398"/><circle cx="894.44" cy="417.06" r="1.48" fill="#C9A84C" opacity="0.324"/><circle cx="695.77" cy="537.98" r="3.21" fill="#C9A84C" opacity="0.445"/><circle cx="334.41" cy="364.10" r="3.17" fill="#C9A84C" opacity="0.561"/><circle cx="864.51" cy="183.43" r="1.41" fill="#C9A84C" opacity="0.670"/><circle cx="739.68" cy="295.23" r="0.51" fill="#C9A84C" opacity="0.768"/><circle cx="324.07" cy="514.32" r="1.79" fill="#C9A84C" opacity="0.851"/><circle cx="830.08" cy="477.80" r="3.38" fill="#C9A84C" opacity="0.918"/><circle cx="781.59" cy="246.16" r="2.95" fill="#C9A84C" opacity="0.965"/><circle cx="320.05" cy="203.08" r="1.13" fill="#C9A84C" opacity="0.993"/><circle cx="791.85" cy="419.92" r="0.59" fill="#C9A84C" opacity="1.000"/><circle cx="820.67" cy="537.50" r="2.11" fill="#C9A84C" opacity="0.985"/>
<path d="M 466.95,160.00 L 467.18,165.88 L 469.32,171.71 L 473.33,177.42 L 479.18,182.96 L 486.81,188.28 L 496.16,193.33 L 507.12,198.06 L 519.59,202.43 L 533.46,206.38 L 548.59,209.89 L 564.83,212.92 L 582.03,215.43 L 600.02,217.42 L 618.62,218.85 L 637.67,219.71 L 656.98,220.00 L 676.35,219.71 L 695.61,218.85 L 714.57,217.42 L 733.04,215.43 L 750.85,212.92 L 767.82,209.89 L 783.80,206.38 L 798.63,202.43 L 812.16,198.06 L 824.27,193.33 L 834.83,188.28 L 843.76,182.96 L 850.95,177.42 L 856.35,171.71 L 859.90,165.88 L 861.56,160.00 L 825.67,456.00 L 431.05,456.00 Z" fill="url(#plateGrad)" opacity="1.000" filter="url(#softGlow)" stroke="#E8C96A" stroke-width="1.5" stroke-opacity="0.6"/>
<polyline points="496.57,176.00 497.20,182.53 500.65,188.94 506.87,195.13 515.75,201.00 527.13,206.44 540.83,211.36 556.61,215.67 574.19,219.30 593.29,222.19 613.56,224.30 634.67,225.57 656.25,226.00 677.94,225.57 699.35,224.30 720.14,222.19 739.93,219.30 758.40,215.67 775.22,211.36 790.11,206.44 802.82,201.00 813.12,195.13 820.84,188.94 825.84,182.53 828.05,176.00" fill="none" stroke="#E8C96A" stroke-width="1" stroke-opacity="0.500"/>
<ellipse cx="484.31" cy="169.72" rx="12.44" ry="9.00" fill="url(#petalGrad)" opacity="0.900" filter="url(#softGlow)" stroke="#E8C96A" stroke-width="0.8"/><ellipse cx="503.65" cy="188.00" rx="12.44" ry="9.00" fill="url(#petalGrad)" opacity="0.900" filter="url(#softGlow)" stroke="#E8C96A" stroke-width="0.8"/><ellipse cx="542.37" cy="202.90" rx="12.44" ry="9.00" fill="url(#petalGrad)" opacity="0.900" filter="url(#softGlow)" stroke="#E8C96A" stroke-width="0.8"/><ellipse cx="595.79" cy="212.62" rx="12.44" ry="9.00" fill="url(#petalGrad)" opacity="0.900" filter="url(#softGlow)" stroke="#E8C96A" stroke-width="0.8"/><ellipse cx="657.46" cy="216.00" rx="12.44" ry="9.00" fill="url(#petalGrad)" opacity="0.900" filter="url(#softGlow)" stroke="#E8C96A" stroke-width="0.8"/><ellipse cx="719.96" cy="212.62" rx="12.44" ry="9.00" fill="url(#petalGrad)" opacity="0.900" filter="url(#softGlow)" stroke="#E8C96A" stroke-width="0.8"/><ellipse cx="775.73" cy="202.90" rx="12.44" ry="9.00" fill="url(#petalGrad)" opacity="0.900" filter="url(#softGlow)" stroke="#E8C96A" stroke-width="0.8"/><ellipse cx="818.06" cy="188.00" rx="12.44" ry="9.00" fill="url(#petalGrad)" opacity="0.900" filter="url(#softGlow)" stroke="#E8C96A" stroke-width="0.8"/><ellipse cx="841.84" cy="169.72" rx="12.44" ry="9.00" fill="url(#petalGrad)" opacity="0.900" filter="url(#softGlow)" stroke="#E8C96A" stroke-width="0.8"/>
<line x1="463.34" y1="456.00" x2="461.09" y2="474.00" stroke="#C9A84C" stroke-width="1" opacity="0.700"/>
    <ellipse cx="461.09" cy="483.61" rx="8.88" ry="9.61" fill="url(#petalGrad)" opacity="1.000" filter="url(#softGlow)"/>
    <ellipse cx="461.09" cy="476.88" rx="6.22" ry="1.92" fill="#E8C96A" opacity="0.500"/><line x1="496.34" y1="456.00" x2="496.21" y2="474.00" stroke="#C9A84C" stroke-width="1" opacity="0.700"/>
    <ellipse cx="496.21" cy="483.09" rx="8.88" ry="9.09" fill="url(#petalGrad)" opacity="1.000" filter="url(#softGlow)"/>
    <ellipse cx="496.21" cy="476.73" rx="6.22" ry="1.82" fill="#E8C96A" opacity="0.500"/><line x1="529.35" y1="456.00" x2="531.40" y2="474.00" stroke="#C9A84C" stroke-width="1" opacity="0.700"/>
    <ellipse cx="531.40" cy="484.65" rx="8.88" ry="10.65" fill="url(#petalGrad)" opacity="1.000" filter="url(#softGlow)"/>
    <ellipse cx="531.40" cy="477.19" rx="6.22" ry="2.13" fill="#E8C96A" opacity="0.500"/><line x1="562.35" y1="456.00" x2="565.35" y2="474.00" stroke="#C9A84C" stroke-width="1" opacity="0.700"/>
    <ellipse cx="565.35" cy="486.60" rx="8.88" ry="12.60" fill="url(#petalGrad)" opacity="1.000" filter="url(#softGlow)"/>
    <ellipse cx="565.35" cy="477.78" rx="6.22" ry="2.52" fill="#E8C96A" opacity="0.500"/><line x1="595.35" y1="456.00" x2="597.48" y2="474.00" stroke="#C9A84C" stroke-width="1" opacity="0.700"/>
    <ellipse cx="597.48" cy="486.80" rx="8.88" ry="12.80" fill="url(#petalGrad)" opacity="1.000" filter="url(#softGlow)"/>
    <ellipse cx="597.48" cy="477.84" rx="6.22" ry="2.56" fill="#E8C96A" opacity="0.500"/><line x1="628.36" y1="456.00" x2="628.32" y2="474.00" stroke="#C9A84C" stroke-width="1" opacity="0.700"/>
    <ellipse cx="628.32" cy="485.04" rx="8.88" ry="11.04" fill="url(#petalGrad)" opacity="1.000" filter="url(#softGlow)"/>
    <ellipse cx="628.32" cy="477.31" rx="6.22" ry="2.21" fill="#E8C96A" opacity="0.500"/><line x1="661.36" y1="456.00" x2="659.18" y2="474.00" stroke="#C9A84C" stroke-width="1" opacity="0.700"/>
    <ellipse cx="659.18" cy="483.23" rx="8.88" ry="9.23" fill="url(#petalGrad)" opacity="1.000" filter="url(#softGlow)"/>
    <ellipse cx="659.18" cy="476.77" rx="6.22" ry="1.85" fill="#E8C96A" opacity="0.500"/><line x1="694.37" y1="456.00" x2="691.37" y2="474.00" stroke="#C9A84C" stroke-width="1" opacity="0.700"/>
    <ellipse cx="691.37" cy="483.36" rx="8.88" ry="9.36" fill="url(#petalGrad)" opacity="1.000" filter="url(#softGlow)"/>
    <ellipse cx="691.37" cy="476.81" rx="6.22" ry="1.87" fill="#E8C96A" opacity="0.500"/><line x1="727.37" y1="456.00" x2="725.37" y2="474.00" stroke="#C9A84C" stroke-width="1" opacity="0.700"/>
    <ellipse cx="725.37" cy="485.28" rx="8.88" ry="11.28" fill="url(#petalGrad)" opacity="1.000" filter="url(#softGlow)"/>
    <ellipse cx="725.37" cy="477.38" rx="6.22" ry="2.26" fill="#E8C96A" opacity="0.500"/><line x1="760.38" y1="456.00" x2="760.59" y2="474.00" stroke="#C9A84C" stroke-width="1" opacity="0.700"/>
    <ellipse cx="760.59" cy="486.89" rx="8.88" ry="12.89" fill="url(#petalGrad)" opacity="1.000" filter="url(#softGlow)"/>
    <ellipse cx="760.59" cy="477.87" rx="6.22" ry="2.58" fill="#E8C96A" opacity="0.500"/><line x1="793.38" y1="456.00" x2="795.68" y2="474.00" stroke="#C9A84C" stroke-width="1" opacity="0.700"/>
    <ellipse cx="795.68" cy="486.44" rx="8.88" ry="12.44" fill="url(#petalGrad)" opacity="1.000" filter="url(#softGlow)"/>
    <ellipse cx="795.68" cy="477.73" rx="6.22" ry="2.49" fill="#E8C96A" opacity="0.500"/>
<ellipse cx="520.40" cy="370.00" rx="14.21" ry="12.08" fill="none" stroke="#C9A84C" stroke-width="1.5" opacity="0.700"/>
      <ellipse cx="520.40" cy="370.00" rx="7.82" ry="7.11" fill="#C9A84C" opacity="0.400"/><ellipse cx="757.17" cy="370.00" rx="14.21" ry="12.08" fill="none" stroke="#C9A84C" stroke-width="1.5" opacity="0.700"/>
      <ellipse cx="757.17" cy="370.00" rx="7.82" ry="7.11" fill="#C9A84C" opacity="0.400"/>
<ellipse cx="642.43" cy="340.00" rx="45.49" ry="44.80" fill="#C9A84C" opacity="0.150" filter="url(#glow)"/>
    <ellipse cx="642.43" cy="340.00" rx="28.43" ry="28.00" fill="url(#centerGem)" opacity="1.000" filter="url(#glow)" stroke="#E8C96A" stroke-width="2"/>
    <ellipse cx="635.32" cy="331.60" rx="7.11" ry="5.60" fill="white" opacity="0.350"/>

</svg>