<svg xmlns="http://www.w3.org/2000/svg" width="1280" height="720" viewBox="0 0 1280 720">
<defs>
    <radialGradient id="bgGrad" cx="50%" cy="50%" r="60%">
      <stop offset="0%" stop-color="#2A1200"/>
      <stop offset="100%" stop-color="#1A0A00"/>
    </radialGradient>
    <radialGradient id="glowGrad" cx="50%" cy="50%" r="50%">
      <stop offset="0%" stop-color="#C9A84C" stop-opacity="0.242"/>
      <stop offset="100%" stop-color="#C9A84C" stop-opacity="0"/>
    </radialGradient>
    <radialGradient id="centerGem" cx="50%" cy="50%" r="50%">
      <stop offset="0%" stop-color="#FFE8A0"/>
      <stop offset="40%" stop-color="#C9A84C"/>
      <stop offset="100%" stop-color="#8B6914"/>
    </radialGradient>
    <radialGradient id="petalGrad" cx="50%" cy="30%" r="70%">
      <stop offset="0%" stop-color="#E8C96A"/>
      <stop offset="60%" stop-color="#C9A84C"/>
      <stop offset="100%" stop-color="#8B6914"/>
    </radialGradient>
    <filter id="glow" x="-50%" y="-50%" width="200%" height="200%">
      <feGaussianBlur stdDeviation="7.74" result="coloredBlur"/>
      <feMerge><feMergeNode in="coloredBlur"/><feMergeNode in="SourceGraphic"/></feMerge>
    </filter>
    <filter id="softGlow" x="-30%" y="-30%" width="160%" height="160%">
      <feGaussianBlur stdDeviation="3" result="coloredBlur"/>
      <feMerge><feMergeNode in="coloredBlur"/><feMergeNode in="SourceGraphic"/></feMerge>
    </filter>
    <linearGradient id="plateGrad" x1="0%" y1="0%" x2="100%" y2="100%">
      <stop offset="0%" stop-color="#E8C96A"/>
      <stop offset="50%" stop-color="#C9A84C"/>
      <stop offset="100%" stop-color="#8B6914"/>
    </linearGradient>
  </defs>
<rect width="1280" height="720" fill="url(#bgGrad)"/>
<ellipse cx="640" cy="360" rx="142.30" ry="85.38" fill="url(#glowGrad)"/>
<circle cx="679.23" cy="335.03" r="1.30" fill="#C9A84C" opacity="0.281"/><circle cx="505.36" cy="283.89" r="1.42" fill="#C9A84C" opacity="0.328"/><circle cx="724.26" cy="358.82" r="0.72" fill="#C9A84C" opacity="0.369"/><circle cx="697.36" cy="435.71" r="0.22" fill="#C9A84C" opacity="0.403"/><circle cx="503.13" cy="387.19" r="0.65" fill="#C9A84C" opacity="0.429"/><circle cx="708.17" cy="293.64" r="1.39" fill="#C9A84C" opacity="0.446"/><circle cx="714.34" cy="310.00" r="1.35" fill="#C9A84C" opacity="0.453"/><circle cx="503.65" cy="409.18" r="0.59" fill="#C9A84C" opacity="0.451"/><circle cx="690.72" cy="426.90" r="0.22" fill="#C9A84C" opacity="0.440"/><circle cx="729.84" cy="333.81" r="0.79" fill="#C9A84C" opacity="0.419"/><circle cx="506.89" cy="284.10" r="1.45" fill="#C9A84C" opacity="0.389"/><circle cx="672.25" cy="360.11" r="1.25" fill="#C9A84C" opacity="0.352"/><circle cx="743.54" cy="435.94" r="0.47" fill="#C9A84C" opacity="0.308"/><circle cx="512.79" cy="385.98" r="0.26" fill="#C9A84C" opacity="0.259"/><circle cx="653.14" cy="292.99" r="0.92" fill="#C9A84C" opacity="0.206"/><circle cx="755.16" cy="311.00" r="1.49" fill="#C9A84C" opacity="0.152"/><circle cx="521.24" cy="410.17" r="1.13" fill="#C9A84C" opacity="0.176"/><circle cx="633.76" cy="426.24" r="0.37" fill="#C9A84C" opacity="0.230"/>
<path d="M 553.62,274.37 L 554.34,276.89 L 555.76,279.39 L 557.88,281.83 L 560.67,284.20 L 564.11,286.48 L 568.16,288.65 L 572.78,290.67 L 577.94,292.54 L 583.57,294.23 L 589.63,295.73 L 596.06,297.03 L 602.80,298.11 L 609.77,298.96 L 616.92,299.57 L 624.18,299.94 L 631.47,300.06 L 638.72,299.94 L 645.87,299.57 L 652.84,298.96 L 659.58,298.11 L 666.01,297.03 L 672.07,295.73 L 677.70,294.23 L 682.85,292.54 L 687.48,290.67 L 691.52,288.65 L 694.96,286.48 L 697.75,284.20 L 699.86,281.83 L 701.28,279.39 L 702.00,276.89 L 701.99,274.37 L 720.04,401.10 L 571.67,401.10 Z" fill="url(#plateGrad)" opacity="0.454" filter="url(#softGlow)" stroke="#E8C96A" stroke-width="1.5" stroke-opacity="0.6"/>
<polyline points="566.47,281.22 567.40,284.02 569.38,286.77 572.38,289.42 576.34,291.93 581.20,294.26 586.87,296.36 593.27,298.21 600.26,299.76 607.75,301.00 615.60,301.90 623.67,302.45 631.83,302.63 639.94,302.45 647.86,301.90 655.45,301.00 662.58,299.76 669.14,298.21 675.00,296.36 680.08,294.26 684.28,291.93 687.52,289.42 689.77,286.77 690.96,284.02 691.10,281.22" fill="none" stroke="#E8C96A" stroke-width="1" stroke-opacity="0.227"/>
<ellipse cx="561.19" cy="278.54" rx="4.99" ry="3.85" fill="url(#petalGrad)" opacity="0.408" filter="url(#softGlow)" stroke="#E8C96A" stroke-width="0.8"/><ellipse cx="570.41" cy="286.36" rx="4.99" ry="3.85" fill="url(#petalGrad)" opacity="0.408" filter="url(#softGlow)" stroke="#E8C96A" stroke-width="0.8"/><ellipse cx="586.55" cy="292.74" rx="4.99" ry="3.85" fill="url(#petalGrad)" opacity="0.408" filter="url(#softGlow)" stroke="#E8C96A" stroke-width="0.8"/><ellipse cx="607.67" cy="296.90" rx="4.99" ry="3.85" fill="url(#petalGrad)" opacity="0.408" filter="url(#softGlow)" stroke="#E8C96A" stroke-width="0.8"/><ellipse cx="631.22" cy="298.35" rx="4.99" ry="3.85" fill="url(#petalGrad)" opacity="0.408" filter="url(#softGlow)" stroke="#E8C96A" stroke-width="0.8"/><ellipse cx="654.36" cy="296.90" rx="4.99" ry="3.85" fill="url(#petalGrad)" opacity="0.408" filter="url(#softGlow)" stroke="#E8C96A" stroke-width="0.8"/><ellipse cx="674.29" cy="292.74" rx="4.99" ry="3.85" fill="url(#petalGrad)" opacity="0.408" filter="url(#softGlow)" stroke="#E8C96A" stroke-width="0.8"/><ellipse cx="688.62" cy="286.36" rx="4.99" ry="3.85" fill="url(#petalGrad)" opacity="0.408" filter="url(#softGlow)" stroke="#E8C96A" stroke-width="0.8"/><ellipse cx="695.62" cy="278.54" rx="4.99" ry="3.85" fill="url(#petalGrad)" opacity="0.408" filter="url(#softGlow)" stroke="#E8C96A" stroke-width="0.8"/>
<line x1="583.81" y1="401.10" x2="584.17" y2="408.81" stroke="#C9A84C" stroke-width="1" opacity="0.318"/>
    <ellipse cx="584.17" cy="414.21" rx="3.56" ry="5.41" fill="url(#petalGrad)" opacity="0.454" filter="url(#softGlow)"/>
    <ellipse cx="584.17" cy="410.43" rx="2.50" ry="1.08" fill="#E8C96A" opacity="0.227"/><line x1="596.21" y1="401.10" x2="595.59" y2="408.81" stroke="#C9A84C" stroke-width="1" opacity="0.318"/>
    <ellipse cx="595.59" cy="414.28" rx="3.56" ry="5.47" fill="url(#petalGrad)" opacity="0.454" filter="url(#softGlow)"/>
    <ellipse cx="595.59" cy="410.45" rx="2.50" ry="1.09" fill="#E8C96A" opacity="0.227"/><line x1="608.62" y1="401.10" x2="607.38" y2="408.81" stroke="#C9A84C" stroke-width="1" opacity="0.318"/>
    <ellipse cx="607.38" cy="413.51" rx="3.56" ry="4.70" fill="url(#petalGrad)" opacity="0.454" filter="url(#softGlow)"/>
    <ellipse cx="607.38" cy="410.22" rx="2.50" ry="0.94" fill="#E8C96A" opacity="0.227"/><line x1="621.03" y1="401.10" x2="619.93" y2="408.81" stroke="#C9A84C" stroke-width="1" opacity="0.318"/>
    <ellipse cx="619.93" cy="412.75" rx="3.56" ry="3.94" fill="url(#petalGrad)" opacity="0.454" filter="url(#softGlow)"/>
    <ellipse cx="619.93" cy="409.99" rx="2.50" ry="0.79" fill="#E8C96A" opacity="0.227"/><line x1="633.44" y1="401.10" x2="633.15" y2="408.81" stroke="#C9A84C" stroke-width="1" opacity="0.318"/>
    <ellipse cx="633.15" cy="412.83" rx="3.56" ry="4.02" fill="url(#petalGrad)" opacity="0.454" filter="url(#softGlow)"/>
    <ellipse cx="633.15" cy="410.01" rx="2.50" ry="0.80" fill="#E8C96A" opacity="0.227"/><line x1="645.85" y1="401.10" x2="646.54" y2="408.81" stroke="#C9A84C" stroke-width="1" opacity="0.318"/>
    <ellipse cx="646.54" cy="413.66" rx="3.56" ry="4.85" fill="url(#petalGrad)" opacity="0.454" filter="url(#softGlow)"/>
    <ellipse cx="646.54" cy="410.26" rx="2.50" ry="0.97" fill="#E8C96A" opacity="0.227"/><line x1="658.26" y1="401.10" x2="659.52" y2="408.81" stroke="#C9A84C" stroke-width="1" opacity="0.318"/>
    <ellipse cx="659.52" cy="414.33" rx="3.56" ry="5.53" fill="url(#petalGrad)" opacity="0.454" filter="url(#softGlow)"/>
    <ellipse cx="659.52" cy="410.46" rx="2.50" ry="1.11" fill="#E8C96A" opacity="0.227"/><line x1="670.67" y1="401.10" x2="671.73" y2="408.81" stroke="#C9A84C" stroke-width="1" opacity="0.318"/>
    <ellipse cx="671.73" cy="414.11" rx="3.56" ry="5.31" fill="url(#petalGrad)" opacity="0.454" filter="url(#softGlow)"/>
    <ellipse cx="671.73" cy="410.40" rx="2.50" ry="1.06" fill="#E8C96A" opacity="0.227"/><line x1="683.08" y1="401.10" x2="683.30" y2="408.81" stroke="#C9A84C" stroke-width="1" opacity="0.318"/>
    <ellipse cx="683.30" cy="413.24" rx="3.56" ry="4.44" fill="url(#petalGrad)" opacity="0.454" filter="url(#softGlow)"/>
    <ellipse cx="683.30" cy="410.14" rx="2.50" ry="0.89" fill="#E8C96A" opacity="0.227"/><line x1="695.49" y1="401.10" x2="694.74" y2="408.81" stroke="#C9A84C" stroke-width="1" opacity="0.318"/>
    <ellipse cx="694.74" cy="412.67" rx="3.56" ry="3.86" fill="url(#petalGrad)" opacity="0.454" filter="url(#softGlow)"/>
    <ellipse cx="694.74" cy="409.97" rx="2.50" ry="0.77" fill="#E8C96A" opacity="0.227"/><line x1="707.90" y1="401.10" x2="706.63" y2="408.81" stroke="#C9A84C" stroke-width="1" opacity="0.318"/>
    <ellipse cx="706.63" cy="413.02" rx="3.56" ry="4.21" fill="url(#petalGrad)" opacity="0.454" filter="url(#softGlow)"/>
    <ellipse cx="706.63" cy="410.07" rx="2.50" ry="0.84" fill="#E8C96A" opacity="0.227"/>
<ellipse cx="596.10" cy="364.28" rx="5.70" ry="4.85" fill="none" stroke="#C9A84C" stroke-width="1.5" opacity="0.318"/>
      <ellipse cx="596.10" cy="364.28" rx="3.14" ry="2.85" fill="#C9A84C" opacity="0.182"/><ellipse cx="685.12" cy="364.28" rx="5.70" ry="4.85" fill="none" stroke="#C9A84C" stroke-width="1.5" opacity="0.318"/>
      <ellipse cx="685.12" cy="364.28" rx="3.14" ry="2.85" fill="#C9A84C" opacity="0.182"/>
<ellipse cx="638.78" cy="351.44" rx="18.25" ry="19.18" fill="#C9A84C" opacity="0.066" filter="url(#glow)"/>
    <ellipse cx="638.78" cy="351.44" rx="11.41" ry="11.99" fill="url(#centerGem)" opacity="0.454" filter="url(#glow)" stroke="#E8C96A" stroke-width="2"/>
    <ellipse cx="635.93" cy="347.84" rx="2.85" ry="2.40" fill="white" opacity="0.159"/>

</svg>