<svg xmlns="http://www.w3.org/2000/svg" width="1280" height="720" viewBox="0 0 1280 720">
<defs>
    <radialGradient id="bgGrad" cx="50%" cy="50%" r="60%">
      <stop offset="0%" stop-color="#2A1200"/>
      <stop offset="100%" stop-color="#1A0A00"/>
    </radialGradient>
    <radialGradient id="glowGrad" cx="50%" cy="50%" r="50%">
      <stop offset="0%" stop-color="#C9A84C" stop-opacity="0.231"/>
      <stop offset="100%" stop-color="#C9A84C" stop-opacity="0"/>
    </radialGradient>
    <radialGradient id="centerGem" cx="50%" cy="50%" r="50%">
      <stop offset="0%" stop-color="#FFE8A0"/>
      <stop offset="40%" stop-color="#C9A84C"/>
      <stop offset="100%" stop-color="#8B6914"/>
    </radialGradient>
    <radialGradient id="petalGrad" cx="50%" cy="30%" r="70%">
      <stop offset="0%" stop-color="#E8C96A"/>
      <stop offset="60%" stop-color="#C9A84C"/>
      <stop offset="100%" stop-color="#8B6914"/>
    </radialGradient>
    <filter id="glow" x="-50%" y="-50%" width="200%" height="200%">
      <feGaussianBlur stdDeviation="7.38" result="coloredBlur"/>
      <feMerge><feMergeNode in="coloredBlur"/><feMergeNode in="SourceGraphic"/></feMerge>
    </filter>
    <filter id="softGlow" x="-30%" y="-30%" width="160%" height="160%">
      <feGaussianBlur stdDeviation="3" result="coloredBlur"/>
      <feMerge><feMergeNode in="coloredBlur"/><feMergeNode in="SourceGraphic"/></feMerge>
    </filter>
    <linearGradient id="plateGrad" x1="0%" y1="0%" x2="100%" y2="100%">
      <stop offset="0%" stop-color="#E8C96A"/>
      <stop offset="50%" stop-color="#C9A84C"/>
      <stop offset="100%" stop-color="#8B6914"/>
    </linearGradient>
  </defs>
<rect width="1280" height="720" fill="url(#bgGrad)"/>
<ellipse cx="640" cy="360" rx="111.13" ry="66.68" fill="url(#glowGrad)"/>
<circle cx="748.65" cy="390.09" r="0.89" fill="#C9A84C" opacity="0.122"/><circle cx="588.90" cy="312.76" r="1.18" fill="#C9A84C" opacity="0.151"/><circle cx="578.22" cy="313.68" r="0.74" fill="#C9A84C" opacity="0.177"/><circle cx="747.76" cy="391.32" r="0.21" fill="#C9A84C" opacity="0.201"/><circle cx="602.95" cy="417.08" r="0.37" fill="#C9A84C" opacity="0.220"/><circle cx="566.22" cy="348.30" r="0.98" fill="#C9A84C" opacity="0.236"/><circle cx="744.72" cy="298.89" r="1.15" fill="#C9A84C" opacity="0.246"/><circle cx="617.73" cy="350.71" r="0.63" fill="#C9A84C" opacity="0.251"/><circle cx="555.71" cy="417.91" r="0.18" fill="#C9A84C" opacity="0.251"/><circle cx="739.58" cy="389.19" r="0.46" fill="#C9A84C" opacity="0.246"/><circle cx="632.96" cy="312.12" r="1.06" fill="#C9A84C" opacity="0.235"/><circle cx="546.87" cy="314.35" r="1.10" fill="#C9A84C" opacity="0.220"/><circle cx="732.45" cy="392.20" r="0.52" fill="#C9A84C" opacity="0.200"/><circle cx="648.33" cy="416.71" r="0.17" fill="#C9A84C" opacity="0.177"/><circle cx="539.91" cy="347.29" r="0.56" fill="#C9A84C" opacity="0.150"/><circle cx="723.47" cy="298.92" r="1.13" fill="#C9A84C" opacity="0.121"/><circle cx="663.54" cy="351.72" r="1.03" fill="#C9A84C" opacity="0.091"/><circle cx="534.94" cy="418.23" r="0.42" fill="#C9A84C" opacity="0.091"/>
<path d="M 558.12,292.09 L 558.66,294.09 L 559.93,296.07 L 561.91,298.00 L 564.59,299.89 L 567.93,301.69 L 571.91,303.41 L 576.49,305.02 L 581.62,306.50 L 587.26,307.84 L 593.34,309.03 L 599.82,310.06 L 606.63,310.91 L 613.70,311.59 L 620.97,312.07 L 628.36,312.37 L 635.81,312.46 L 643.24,312.37 L 650.58,312.07 L 657.76,311.59 L 664.71,310.91 L 671.37,310.06 L 677.67,309.03 L 683.55,307.84 L 688.95,306.50 L 693.82,305.02 L 698.11,303.41 L 701.79,301.69 L 704.81,299.89 L 707.16,298.00 L 708.80,296.07 L 709.71,294.09 L 709.90,292.09 L 718.76,392.60 L 566.98,392.60 Z" fill="url(#plateGrad)" opacity="0.252" filter="url(#softGlow)" stroke="#E8C96A" stroke-width="1.5" stroke-opacity="0.6"/>
<polyline points="570.74,297.52 571.48,299.74 573.30,301.92 576.17,304.02 580.03,306.01 584.83,307.86 590.47,309.53 596.87,310.99 603.91,312.23 611.48,313.21 619.44,313.92 627.65,314.36 635.99,314.50 644.30,314.36 652.44,313.92 660.27,313.21 667.66,312.23 674.49,310.99 680.63,309.53 685.98,307.86 690.45,306.01 693.96,304.02 696.45,301.92 697.89,299.74 698.24,297.52" fill="none" stroke="#E8C96A" stroke-width="1" stroke-opacity="0.126"/>
<ellipse cx="565.55" cy="295.39" rx="4.49" ry="3.06" fill="url(#petalGrad)" opacity="0.227" filter="url(#softGlow)" stroke="#E8C96A" stroke-width="0.8"/><ellipse cx="574.39" cy="301.60" rx="4.49" ry="3.06" fill="url(#petalGrad)" opacity="0.227" filter="url(#softGlow)" stroke="#E8C96A" stroke-width="0.8"/><ellipse cx="590.42" cy="306.66" rx="4.49" ry="3.06" fill="url(#petalGrad)" opacity="0.227" filter="url(#softGlow)" stroke="#E8C96A" stroke-width="0.8"/><ellipse cx="611.71" cy="309.96" rx="4.49" ry="3.06" fill="url(#petalGrad)" opacity="0.227" filter="url(#softGlow)" stroke="#E8C96A" stroke-width="0.8"/><ellipse cx="635.69" cy="311.11" rx="4.49" ry="3.06" fill="url(#petalGrad)" opacity="0.227" filter="url(#softGlow)" stroke="#E8C96A" stroke-width="0.8"/><ellipse cx="659.47" cy="309.96" rx="4.49" ry="3.06" fill="url(#petalGrad)" opacity="0.227" filter="url(#softGlow)" stroke="#E8C96A" stroke-width="0.8"/><ellipse cx="680.18" cy="306.66" rx="4.49" ry="3.06" fill="url(#petalGrad)" opacity="0.227" filter="url(#softGlow)" stroke="#E8C96A" stroke-width="0.8"/><ellipse cx="695.32" cy="301.60" rx="4.49" ry="3.06" fill="url(#petalGrad)" opacity="0.227" filter="url(#softGlow)" stroke="#E8C96A" stroke-width="0.8"/><ellipse cx="703.06" cy="295.39" rx="4.49" ry="3.06" fill="url(#petalGrad)" opacity="0.227" filter="url(#softGlow)" stroke="#E8C96A" stroke-width="0.8"/>
<line x1="579.40" y1="392.60" x2="580.42" y2="398.71" stroke="#C9A84C" stroke-width="1" opacity="0.176"/>
    <ellipse cx="580.42" cy="402.79" rx="3.21" ry="4.08" fill="url(#petalGrad)" opacity="0.252" filter="url(#softGlow)"/>
    <ellipse cx="580.42" cy="399.93" rx="2.25" ry="0.82" fill="#E8C96A" opacity="0.126"/><line x1="592.10" y1="392.60" x2="592.80" y2="398.71" stroke="#C9A84C" stroke-width="1" opacity="0.176"/>
    <ellipse cx="592.80" cy="403.12" rx="3.21" ry="4.41" fill="url(#petalGrad)" opacity="0.252" filter="url(#softGlow)"/>
    <ellipse cx="592.80" cy="400.03" rx="2.25" ry="0.88" fill="#E8C96A" opacity="0.126"/><line x1="604.79" y1="392.60" x2="604.75" y2="398.71" stroke="#C9A84C" stroke-width="1" opacity="0.176"/>
    <ellipse cx="604.75" cy="402.72" rx="3.21" ry="4.01" fill="url(#petalGrad)" opacity="0.252" filter="url(#softGlow)"/>
    <ellipse cx="604.75" cy="399.91" rx="2.25" ry="0.80" fill="#E8C96A" opacity="0.126"/><line x1="617.49" y1="392.60" x2="616.73" y2="398.71" stroke="#C9A84C" stroke-width="1" opacity="0.176"/>
    <ellipse cx="616.73" cy="402.01" rx="3.21" ry="3.30" fill="url(#petalGrad)" opacity="0.252" filter="url(#softGlow)"/>
    <ellipse cx="616.73" cy="399.70" rx="2.25" ry="0.66" fill="#E8C96A" opacity="0.126"/><line x1="630.18" y1="392.60" x2="629.16" y2="398.71" stroke="#C9A84C" stroke-width="1" opacity="0.176"/>
    <ellipse cx="629.16" cy="401.78" rx="3.21" ry="3.07" fill="url(#petalGrad)" opacity="0.252" filter="url(#softGlow)"/>
    <ellipse cx="629.16" cy="399.63" rx="2.25" ry="0.61" fill="#E8C96A" opacity="0.126"/><line x1="642.87" y1="392.60" x2="642.22" y2="398.71" stroke="#C9A84C" stroke-width="1" opacity="0.176"/>
    <ellipse cx="642.22" cy="402.27" rx="3.21" ry="3.56" fill="url(#petalGrad)" opacity="0.252" filter="url(#softGlow)"/>
    <ellipse cx="642.22" cy="399.78" rx="2.25" ry="0.71" fill="#E8C96A" opacity="0.126"/><line x1="655.57" y1="392.60" x2="655.67" y2="398.71" stroke="#C9A84C" stroke-width="1" opacity="0.176"/>
    <ellipse cx="655.67" cy="402.95" rx="3.21" ry="4.24" fill="url(#petalGrad)" opacity="0.252" filter="url(#softGlow)"/>
    <ellipse cx="655.67" cy="399.98" rx="2.25" ry="0.85" fill="#E8C96A" opacity="0.126"/><line x1="668.26" y1="392.60" x2="669.06" y2="398.71" stroke="#C9A84C" stroke-width="1" opacity="0.176"/>
    <ellipse cx="669.06" cy="403.08" rx="3.21" ry="4.37" fill="url(#petalGrad)" opacity="0.252" filter="url(#softGlow)"/>
    <ellipse cx="669.06" cy="400.02" rx="2.25" ry="0.87" fill="#E8C96A" opacity="0.126"/><line x1="680.96" y1="392.60" x2="681.97" y2="398.71" stroke="#C9A84C" stroke-width="1" opacity="0.176"/>
    <ellipse cx="681.97" cy="402.51" rx="3.21" ry="3.80" fill="url(#petalGrad)" opacity="0.252" filter="url(#softGlow)"/>
    <ellipse cx="681.97" cy="399.85" rx="2.25" ry="0.76" fill="#E8C96A" opacity="0.126"/><line x1="693.65" y1="392.60" x2="694.26" y2="398.71" stroke="#C9A84C" stroke-width="1" opacity="0.176"/>
    <ellipse cx="694.26" cy="401.87" rx="3.21" ry="3.16" fill="url(#petalGrad)" opacity="0.252" filter="url(#softGlow)"/>
    <ellipse cx="694.26" cy="399.66" rx="2.25" ry="0.63" fill="#E8C96A" opacity="0.126"/><line x1="706.35" y1="392.60" x2="706.18" y2="398.71" stroke="#C9A84C" stroke-width="1" opacity="0.176"/>
    <ellipse cx="706.18" cy="401.86" rx="3.21" ry="3.15" fill="url(#petalGrad)" opacity="0.252" filter="url(#softGlow)"/>
    <ellipse cx="706.18" cy="399.65" rx="2.25" ry="0.63" fill="#E8C96A" opacity="0.126"/>
<ellipse cx="594.77" cy="363.40" rx="5.14" ry="4.37" fill="none" stroke="#C9A84C" stroke-width="1.5" opacity="0.176"/>
      <ellipse cx="594.77" cy="363.40" rx="2.83" ry="2.57" fill="#C9A84C" opacity="0.101"/><ellipse cx="685.83" cy="363.40" rx="5.14" ry="4.37" fill="none" stroke="#C9A84C" stroke-width="1.5" opacity="0.176"/>
      <ellipse cx="685.83" cy="363.40" rx="2.83" ry="2.57" fill="#C9A84C" opacity="0.101"/>
<ellipse cx="639.40" cy="353.21" rx="16.44" ry="15.21" fill="#C9A84C" opacity="0.035" filter="url(#glow)"/>
    <ellipse cx="639.40" cy="353.21" rx="10.27" ry="9.51" fill="url(#centerGem)" opacity="0.252" filter="url(#glow)" stroke="#E8C96A" stroke-width="2"/>
    <ellipse cx="636.83" cy="350.36" rx="2.57" ry="1.90" fill="white" opacity="0.088"/>

</svg>