<svg xmlns="http://www.w3.org/2000/svg" width="1280" height="720" viewBox="0 0 1280 720">
<defs>
    <radialGradient id="bgGrad" cx="50%" cy="50%" r="60%">
      <stop offset="0%" stop-color="#2A1200"/>
      <stop offset="100%" stop-color="#1A0A00"/>
    </radialGradient>
    <radialGradient id="glowGrad" cx="50%" cy="50%" r="50%">
      <stop offset="0%" stop-color="#C9A84C" stop-opacity="0.229"/>
      <stop offset="100%" stop-color="#C9A84C" stop-opacity="0"/>
    </radialGradient>
    <radialGradient id="centerGem" cx="50%" cy="50%" r="50%">
      <stop offset="0%" stop-color="#FFE8A0"/>
      <stop offset="40%" stop-color="#C9A84C"/>
      <stop offset="100%" stop-color="#8B6914"/>
    </radialGradient>
    <radialGradient id="petalGrad" cx="50%" cy="30%" r="70%">
      <stop offset="0%" stop-color="#E8C96A"/>
      <stop offset="60%" stop-color="#C9A84C"/>
      <stop offset="100%" stop-color="#8B6914"/>
    </radialGradient>
    <filter id="glow" x="-50%" y="-50%" width="200%" height="200%">
      <feGaussianBlur stdDeviation="7.31" result="coloredBlur"/>
      <feMerge><feMergeNode in="coloredBlur"/><feMergeNode in="SourceGraphic"/></feMerge>
    </filter>
    <filter id="softGlow" x="-30%" y="-30%" width="160%" height="160%">
      <feGaussianBlur stdDeviation="3" result="coloredBlur"/>
      <feMerge><feMergeNode in="coloredBlur"/><feMergeNode in="SourceGraphic"/></feMerge>
    </filter>
    <linearGradient id="plateGrad" x1="0%" y1="0%" x2="100%" y2="100%">
      <stop offset="0%" stop-color="#E8C96A"/>
      <stop offset="50%" stop-color="#C9A84C"/>
      <stop offset="100%" stop-color="#8B6914"/>
    </linearGradient>
  </defs>
<rect width="1280" height="720" fill="url(#bgGrad)"/>
<ellipse cx="640" cy="360" rx="149.55" ry="89.73" fill="url(#glowGrad)"/>
<circle cx="636.13" cy="317.51" r="1.43" fill="#C9A84C" opacity="0.329"/><circle cx="511.53" cy="283.06" r="1.50" fill="#C9A84C" opacity="0.379"/><circle cx="761.70" cy="376.05" r="0.71" fill="#C9A84C" opacity="0.423"/><circle cx="656.85" cy="442.45" r="0.23" fill="#C9A84C" opacity="0.458"/><circle cx="502.84" cy="372.28" r="0.75" fill="#C9A84C" opacity="0.483"/><circle cx="748.94" cy="281.77" r="1.51" fill="#C9A84C" opacity="0.499"/><circle cx="677.24" cy="320.84" r="1.40" fill="#C9A84C" opacity="0.504"/><circle cx="496.90" cy="424.77" r="0.58" fill="#C9A84C" opacity="0.499"/><circle cx="734.01" cy="421.42" r="0.25" fill="#C9A84C" opacity="0.482"/><circle cx="696.88" cy="316.33" r="0.90" fill="#C9A84C" opacity="0.456"/><circle cx="493.83" cy="283.58" r="1.57" fill="#C9A84C" opacity="0.421"/><circle cx="717.19" cy="377.41" r="1.29" fill="#C9A84C" opacity="0.377"/><circle cx="715.38" cy="442.41" r="0.46" fill="#C9A84C" opacity="0.326"/><circle cx="493.68" cy="370.91" r="0.30" fill="#C9A84C" opacity="0.271"/><circle cx="698.82" cy="281.34" r="1.05" fill="#C9A84C" opacity="0.211"/><circle cx="732.37" cy="322.06" r="1.60" fill="#C9A84C" opacity="0.153"/><circle cx="496.46" cy="425.62" r="1.15" fill="#C9A84C" opacity="0.214"/><circle cx="679.28" cy="420.49" r="0.36" fill="#C9A84C" opacity="0.273"/>
<path d="M 553.29,268.36 L 554.05,271.06 L 555.51,273.73 L 557.64,276.34 L 560.43,278.88 L 563.86,281.32 L 567.88,283.64 L 572.46,285.80 L 577.56,287.80 L 583.13,289.61 L 589.11,291.22 L 595.44,292.61 L 602.07,293.76 L 608.93,294.67 L 615.96,295.33 L 623.08,295.72 L 630.23,295.85 L 637.34,295.72 L 644.34,295.33 L 651.17,294.67 L 657.75,293.76 L 664.03,292.61 L 669.94,291.22 L 675.43,289.61 L 680.44,287.80 L 684.93,285.80 L 688.86,283.64 L 692.18,281.32 L 694.86,278.88 L 696.87,276.34 L 698.21,273.73 L 698.85,271.06 L 698.79,268.36 L 719.45,403.99 L 573.95,403.99 Z" fill="url(#plateGrad)" opacity="0.504" filter="url(#softGlow)" stroke="#E8C96A" stroke-width="1.5" stroke-opacity="0.6"/>
<polyline points="566.05,275.69 567.03,278.68 569.03,281.62 572.04,284.46 575.98,287.15 580.80,289.64 586.41,291.89 592.73,293.87 599.63,295.53 607.00,296.86 614.71,297.82 622.64,298.41 630.65,298.60 638.59,298.41 646.35,297.82 653.77,296.86 660.74,295.53 667.13,293.87 672.84,291.89 677.76,289.64 681.83,287.15 684.95,284.46 687.09,281.62 688.20,278.68 688.27,275.69" fill="none" stroke="#E8C96A" stroke-width="1" stroke-opacity="0.252"/>
<ellipse cx="560.81" cy="272.82" rx="5.11" ry="4.12" fill="url(#petalGrad)" opacity="0.454" filter="url(#softGlow)" stroke="#E8C96A" stroke-width="0.8"/><ellipse cx="570.03" cy="281.19" rx="5.11" ry="4.12" fill="url(#petalGrad)" opacity="0.454" filter="url(#softGlow)" stroke="#E8C96A" stroke-width="0.8"/><ellipse cx="586.01" cy="288.02" rx="5.11" ry="4.12" fill="url(#petalGrad)" opacity="0.454" filter="url(#softGlow)" stroke="#E8C96A" stroke-width="0.8"/><ellipse cx="606.82" cy="292.47" rx="5.11" ry="4.12" fill="url(#petalGrad)" opacity="0.454" filter="url(#softGlow)" stroke="#E8C96A" stroke-width="0.8"/><ellipse cx="629.95" cy="294.02" rx="5.11" ry="4.12" fill="url(#petalGrad)" opacity="0.454" filter="url(#softGlow)" stroke="#E8C96A" stroke-width="0.8"/><ellipse cx="652.61" cy="292.47" rx="5.11" ry="4.12" fill="url(#petalGrad)" opacity="0.454" filter="url(#softGlow)" stroke="#E8C96A" stroke-width="0.8"/><ellipse cx="672.06" cy="288.02" rx="5.11" ry="4.12" fill="url(#petalGrad)" opacity="0.454" filter="url(#softGlow)" stroke="#E8C96A" stroke-width="0.8"/><ellipse cx="685.96" cy="281.19" rx="5.11" ry="4.12" fill="url(#petalGrad)" opacity="0.454" filter="url(#softGlow)" stroke="#E8C96A" stroke-width="0.8"/><ellipse cx="692.63" cy="272.82" rx="5.11" ry="4.12" fill="url(#petalGrad)" opacity="0.454" filter="url(#softGlow)" stroke="#E8C96A" stroke-width="0.8"/>
<line x1="585.85" y1="403.99" x2="585.82" y2="412.23" stroke="#C9A84C" stroke-width="1" opacity="0.353"/>
    <ellipse cx="585.82" cy="418.07" rx="3.65" ry="5.84" fill="url(#petalGrad)" opacity="0.504" filter="url(#softGlow)"/>
    <ellipse cx="585.82" cy="413.98" rx="2.56" ry="1.17" fill="#E8C96A" opacity="0.252"/><line x1="598.02" y1="403.99" x2="597.01" y2="412.23" stroke="#C9A84C" stroke-width="1" opacity="0.353"/>
    <ellipse cx="597.01" cy="418.04" rx="3.65" ry="5.80" fill="url(#petalGrad)" opacity="0.504" filter="url(#softGlow)"/>
    <ellipse cx="597.01" cy="413.97" rx="2.56" ry="1.16" fill="#E8C96A" opacity="0.252"/><line x1="610.19" y1="403.99" x2="608.82" y2="412.23" stroke="#C9A84C" stroke-width="1" opacity="0.353"/>
    <ellipse cx="608.82" cy="417.17" rx="3.65" ry="4.94" fill="url(#petalGrad)" opacity="0.504" filter="url(#softGlow)"/>
    <ellipse cx="608.82" cy="413.71" rx="2.56" ry="0.99" fill="#E8C96A" opacity="0.252"/><line x1="622.36" y1="403.99" x2="621.46" y2="412.23" stroke="#C9A84C" stroke-width="1" opacity="0.353"/>
    <ellipse cx="621.46" cy="416.41" rx="3.65" ry="4.18" fill="url(#petalGrad)" opacity="0.504" filter="url(#softGlow)"/>
    <ellipse cx="621.46" cy="413.49" rx="2.56" ry="0.84" fill="#E8C96A" opacity="0.252"/><line x1="634.53" y1="403.99" x2="634.65" y2="412.23" stroke="#C9A84C" stroke-width="1" opacity="0.353"/>
    <ellipse cx="634.65" cy="416.60" rx="3.65" ry="4.37" fill="url(#petalGrad)" opacity="0.504" filter="url(#softGlow)"/>
    <ellipse cx="634.65" cy="413.54" rx="2.56" ry="0.87" fill="#E8C96A" opacity="0.252"/><line x1="646.70" y1="403.99" x2="647.76" y2="412.23" stroke="#C9A84C" stroke-width="1" opacity="0.353"/>
    <ellipse cx="647.76" cy="417.52" rx="3.65" ry="5.29" fill="url(#petalGrad)" opacity="0.504" filter="url(#softGlow)"/>
    <ellipse cx="647.76" cy="413.82" rx="2.56" ry="1.06" fill="#E8C96A" opacity="0.252"/><line x1="658.87" y1="403.99" x2="660.23" y2="412.23" stroke="#C9A84C" stroke-width="1" opacity="0.353"/>
    <ellipse cx="660.23" cy="418.17" rx="3.65" ry="5.94" fill="url(#petalGrad)" opacity="0.504" filter="url(#softGlow)"/>
    <ellipse cx="660.23" cy="414.01" rx="2.56" ry="1.19" fill="#E8C96A" opacity="0.252"/><line x1="671.04" y1="403.99" x2="671.88" y2="412.23" stroke="#C9A84C" stroke-width="1" opacity="0.353"/>
    <ellipse cx="671.88" cy="417.84" rx="3.65" ry="5.61" fill="url(#petalGrad)" opacity="0.504" filter="url(#softGlow)"/>
    <ellipse cx="671.88" cy="413.92" rx="2.56" ry="1.12" fill="#E8C96A" opacity="0.252"/><line x1="683.21" y1="403.99" x2="683.01" y2="412.23" stroke="#C9A84C" stroke-width="1" opacity="0.353"/>
    <ellipse cx="683.01" cy="416.89" rx="3.65" ry="4.66" fill="url(#petalGrad)" opacity="0.504" filter="url(#softGlow)"/>
    <ellipse cx="683.01" cy="413.63" rx="2.56" ry="0.93" fill="#E8C96A" opacity="0.252"/><line x1="695.38" y1="403.99" x2="694.26" y2="412.23" stroke="#C9A84C" stroke-width="1" opacity="0.353"/>
    <ellipse cx="694.26" cy="416.36" rx="3.65" ry="4.12" fill="url(#petalGrad)" opacity="0.504" filter="url(#softGlow)"/>
    <ellipse cx="694.26" cy="413.47" rx="2.56" ry="0.82" fill="#E8C96A" opacity="0.252"/><line x1="707.55" y1="403.99" x2="706.19" y2="412.23" stroke="#C9A84C" stroke-width="1" opacity="0.353"/>
    <ellipse cx="706.19" cy="416.82" rx="3.65" ry="4.59" fill="url(#petalGrad)" opacity="0.504" filter="url(#softGlow)"/>
    <ellipse cx="706.19" cy="413.61" rx="2.56" ry="0.92" fill="#E8C96A" opacity="0.252"/>
<ellipse cx="597.05" cy="364.58" rx="5.84" ry="4.97" fill="none" stroke="#C9A84C" stroke-width="1.5" opacity="0.353"/>
      <ellipse cx="597.05" cy="364.58" rx="3.21" ry="2.92" fill="#C9A84C" opacity="0.202"/><ellipse cx="684.35" cy="364.58" rx="5.84" ry="4.97" fill="none" stroke="#C9A84C" stroke-width="1.5" opacity="0.353"/>
      <ellipse cx="684.35" cy="364.58" rx="3.21" ry="2.92" fill="#C9A84C" opacity="0.202"/>
<ellipse cx="638.60" cy="350.84" rx="18.70" ry="20.53" fill="#C9A84C" opacity="0.069" filter="url(#glow)"/>
    <ellipse cx="638.60" cy="350.84" rx="11.68" ry="12.83" fill="url(#centerGem)" opacity="0.504" filter="url(#glow)" stroke="#E8C96A" stroke-width="2"/>
    <ellipse cx="635.68" cy="346.99" rx="2.92" ry="2.57" fill="white" opacity="0.176"/>

</svg>