<svg xmlns="http://www.w3.org/2000/svg" width="1280" height="720" viewBox="0 0 1280 720">
<defs>
    <radialGradient id="bgGrad" cx="50%" cy="50%" r="60%">
      <stop offset="0%" stop-color="#2A1200"/>
      <stop offset="100%" stop-color="#1A0A00"/>
    </radialGradient>
    <radialGradient id="glowGrad" cx="50%" cy="50%" r="50%">
      <stop offset="0%" stop-color="#C9A84C" stop-opacity="-0.050"/>
      <stop offset="100%" stop-color="#C9A84C" stop-opacity="0"/>
    </radialGradient>
    <radialGradient id="centerGem" cx="50%" cy="50%" r="50%">
      <stop offset="0%" stop-color="#FFE8A0"/>
      <stop offset="40%" stop-color="#C9A84C"/>
      <stop offset="100%" stop-color="#8B6914"/>
    </radialGradient>
    <radialGradient id="petalGrad" cx="50%" cy="30%" r="70%">
      <stop offset="0%" stop-color="#E8C96A"/>
      <stop offset="60%" stop-color="#C9A84C"/>
      <stop offset="100%" stop-color="#8B6914"/>
    </radialGradient>
    <filter id="glow" x="-50%" y="-50%" width="200%" height="200%">
      <feGaussianBlur stdDeviation="-1.59" result="coloredBlur"/>
      <feMerge><feMergeNode in="coloredBlur"/><feMergeNode in="SourceGraphic"/></feMerge>
    </filter>
    <filter id="softGlow" x="-30%" y="-30%" width="160%" height="160%">
      <feGaussianBlur stdDeviation="3" result="coloredBlur"/>
      <feMerge><feMergeNode in="coloredBlur"/><feMergeNode in="SourceGraphic"/></feMerge>
    </filter>
    <linearGradient id="plateGrad" x1="0%" y1="0%" x2="100%" y2="100%">
      <stop offset="0%" stop-color="#E8C96A"/>
      <stop offset="50%" stop-color="#C9A84C"/>
      <stop offset="100%" stop-color="#8B6914"/>
    </linearGradient>
  </defs>
<rect width="1280" height="720" fill="url(#bgGrad)"/>
<ellipse cx="640" cy="360" rx="182.58" ry="109.55" fill="url(#glowGrad)"/>
<circle cx="823.53" cy="349.26" r="3.12" fill="#C9A84C" opacity="0.942"/><circle cx="754.90" cy="518.28" r="1.80" fill="#C9A84C" opacity="0.981"/><circle cx="351.08" cy="425.13" r="0.50" fill="#C9A84C" opacity="0.999"/><circle cx="790.08" cy="224.10" r="1.12" fill="#C9A84C" opacity="0.995"/><circle cx="791.27" cy="248.17" r="2.75" fill="#C9A84C" opacity="0.971"/><circle cx="351.18" cy="457.47" r="3.00" fill="#C9A84C" opacity="0.926"/><circle cx="753.63" cy="505.32" r="1.51" fill="#C9A84C" opacity="0.862"/><circle cx="824.60" cy="312.46" r="0.45" fill="#C9A84C" opacity="0.781"/><circle cx="357.06" cy="198.34" r="1.39" fill="#C9A84C" opacity="0.686"/><circle cx="714.90" cy="351.99" r="2.94" fill="#C9A84C" opacity="0.579"/><circle cx="854.24" cy="518.91" r="2.84" fill="#C9A84C" opacity="0.463"/><circle cx="368.60" cy="422.61" r="1.23" fill="#C9A84C" opacity="0.342"/><circle cx="674.68" cy="222.61" r="0.47" fill="#C9A84C" opacity="0.380"/><circle cx="879.60" cy="250.18" r="1.67" fill="#C9A84C" opacity="0.499"/><circle cx="385.57" cy="459.66" r="3.07" fill="#C9A84C" opacity="0.613"/><circle cx="633.76" cy="504.06" r="2.62" fill="#C9A84C" opacity="0.717"/><circle cx="900.16" cy="309.85" r="0.98" fill="#C9A84C" opacity="0.808"/><circle cx="407.64" cy="198.70" r="0.55" fill="#C9A84C" opacity="0.884"/>
<path d="M 444.30,179.00 L 445.82,184.32 L 448.97,189.59 L 453.75,194.76 L 460.10,199.78 L 467.95,204.60 L 477.24,209.17 L 487.88,213.45 L 499.75,217.40 L 512.76,220.98 L 526.77,224.15 L 541.64,226.89 L 557.24,229.17 L 573.42,230.96 L 590.01,232.26 L 606.86,233.04 L 623.81,233.30 L 640.69,233.04 L 657.35,232.26 L 673.61,230.96 L 689.33,229.17 L 704.34,226.89 L 718.52,224.15 L 731.72,220.98 L 743.81,217.40 L 754.68,213.45 L 764.22,209.17 L 772.34,204.60 L 778.97,199.78 L 784.03,194.76 L 787.48,189.59 L 789.30,184.32 L 789.45,179.00 L 823.67,446.88 L 478.53,446.88 Z" fill="url(#plateGrad)" opacity="1.000" filter="url(#softGlow)" stroke="#E8C96A" stroke-width="1.5" stroke-opacity="0.6"/>
<polyline points="473.77,193.48 475.76,199.39 480.20,205.19 487.01,210.80 496.08,216.11 507.24,221.03 520.31,225.48 535.07,229.38 551.25,232.67 568.59,235.29 586.79,237.19 605.54,238.34 624.51,238.73 643.38,238.34 661.83,237.19 679.54,235.29 696.21,232.67 711.56,229.38 725.32,225.48 737.25,221.03 747.16,216.11 754.86,210.80 760.24,205.19 763.20,199.39 763.69,193.48" fill="none" stroke="#E8C96A" stroke-width="1" stroke-opacity="0.500"/>
<ellipse cx="461.65" cy="187.80" rx="11.07" ry="8.14" fill="url(#petalGrad)" opacity="0.900" filter="url(#softGlow)" stroke="#E8C96A" stroke-width="0.8"/><ellipse cx="482.62" cy="204.34" rx="11.07" ry="8.14" fill="url(#petalGrad)" opacity="0.900" filter="url(#softGlow)" stroke="#E8C96A" stroke-width="0.8"/><ellipse cx="519.78" cy="217.82" rx="11.07" ry="8.14" fill="url(#petalGrad)" opacity="0.900" filter="url(#softGlow)" stroke="#E8C96A" stroke-width="0.8"/><ellipse cx="568.66" cy="226.62" rx="11.07" ry="8.14" fill="url(#petalGrad)" opacity="0.900" filter="url(#softGlow)" stroke="#E8C96A" stroke-width="0.8"/><ellipse cx="623.35" cy="229.68" rx="11.07" ry="8.14" fill="url(#petalGrad)" opacity="0.900" filter="url(#softGlow)" stroke="#E8C96A" stroke-width="0.8"/><ellipse cx="677.26" cy="226.62" rx="11.07" ry="8.14" fill="url(#petalGrad)" opacity="0.900" filter="url(#softGlow)" stroke="#E8C96A" stroke-width="0.8"/><ellipse cx="723.89" cy="217.82" rx="11.07" ry="8.14" fill="url(#petalGrad)" opacity="0.900" filter="url(#softGlow)" stroke="#E8C96A" stroke-width="0.8"/><ellipse cx="757.61" cy="204.34" rx="11.07" ry="8.14" fill="url(#petalGrad)" opacity="0.900" filter="url(#softGlow)" stroke="#E8C96A" stroke-width="0.8"/><ellipse cx="774.35" cy="187.80" rx="11.07" ry="8.14" fill="url(#petalGrad)" opacity="0.900" filter="url(#softGlow)" stroke="#E8C96A" stroke-width="0.8"/>
<line x1="506.77" y1="446.88" x2="508.49" y2="463.17" stroke="#C9A84C" stroke-width="1" opacity="0.700"/>
    <ellipse cx="508.49" cy="474.45" rx="7.90" ry="11.28" fill="url(#petalGrad)" opacity="1.000" filter="url(#softGlow)"/>
    <ellipse cx="508.49" cy="466.55" rx="5.53" ry="2.26" fill="#E8C96A" opacity="0.500"/><line x1="535.63" y1="446.88" x2="538.34" y2="463.17" stroke="#C9A84C" stroke-width="1" opacity="0.700"/>
    <ellipse cx="538.34" cy="472.62" rx="7.90" ry="9.45" fill="url(#petalGrad)" opacity="1.000" filter="url(#softGlow)"/>
    <ellipse cx="538.34" cy="466.00" rx="5.53" ry="1.89" fill="#E8C96A" opacity="0.500"/><line x1="564.50" y1="446.88" x2="566.55" y2="463.17" stroke="#C9A84C" stroke-width="1" opacity="0.700"/>
    <ellipse cx="566.55" cy="471.35" rx="7.90" ry="8.18" fill="url(#petalGrad)" opacity="1.000" filter="url(#softGlow)"/>
    <ellipse cx="566.55" cy="465.62" rx="5.53" ry="1.64" fill="#E8C96A" opacity="0.500"/><line x1="593.37" y1="446.88" x2="593.52" y2="463.17" stroke="#C9A84C" stroke-width="1" opacity="0.700"/>
    <ellipse cx="593.52" cy="472.01" rx="7.90" ry="8.85" fill="url(#petalGrad)" opacity="1.000" filter="url(#softGlow)"/>
    <ellipse cx="593.52" cy="465.82" rx="5.53" ry="1.77" fill="#E8C96A" opacity="0.500"/><line x1="622.23" y1="446.88" x2="620.39" y2="463.17" stroke="#C9A84C" stroke-width="1" opacity="0.700"/>
    <ellipse cx="620.39" cy="473.90" rx="7.90" ry="10.73" fill="url(#petalGrad)" opacity="1.000" filter="url(#softGlow)"/>
    <ellipse cx="620.39" cy="466.39" rx="5.53" ry="2.15" fill="#E8C96A" opacity="0.500"/><line x1="651.10" y1="446.88" x2="648.39" y2="463.17" stroke="#C9A84C" stroke-width="1" opacity="0.700"/>
    <ellipse cx="648.39" cy="474.93" rx="7.90" ry="11.76" fill="url(#petalGrad)" opacity="1.000" filter="url(#softGlow)"/>
    <ellipse cx="648.39" cy="466.70" rx="5.53" ry="2.35" fill="#E8C96A" opacity="0.500"/><line x1="679.97" y1="446.88" x2="678.02" y2="463.17" stroke="#C9A84C" stroke-width="1" opacity="0.700"/>
    <ellipse cx="678.02" cy="473.99" rx="7.90" ry="10.83" fill="url(#petalGrad)" opacity="1.000" filter="url(#softGlow)"/>
    <ellipse cx="678.02" cy="466.42" rx="5.53" ry="2.17" fill="#E8C96A" opacity="0.500"/><line x1="708.83" y1="446.88" x2="708.84" y2="463.17" stroke="#C9A84C" stroke-width="1" opacity="0.700"/>
    <ellipse cx="708.84" cy="472.10" rx="7.90" ry="8.94" fill="url(#petalGrad)" opacity="1.000" filter="url(#softGlow)"/>
    <ellipse cx="708.84" cy="465.85" rx="5.53" ry="1.79" fill="#E8C96A" opacity="0.500"/><line x1="737.70" y1="446.88" x2="739.65" y2="463.17" stroke="#C9A84C" stroke-width="1" opacity="0.700"/>
    <ellipse cx="739.65" cy="471.33" rx="7.90" ry="8.16" fill="url(#petalGrad)" opacity="1.000" filter="url(#softGlow)"/>
    <ellipse cx="739.65" cy="465.62" rx="5.53" ry="1.63" fill="#E8C96A" opacity="0.500"/><line x1="766.57" y1="446.88" x2="769.28" y2="463.17" stroke="#C9A84C" stroke-width="1" opacity="0.700"/>
    <ellipse cx="769.28" cy="472.52" rx="7.90" ry="9.35" fill="url(#petalGrad)" opacity="1.000" filter="url(#softGlow)"/>
    <ellipse cx="769.28" cy="465.97" rx="5.53" ry="1.87" fill="#E8C96A" opacity="0.500"/><line x1="795.43" y1="446.88" x2="797.26" y2="463.17" stroke="#C9A84C" stroke-width="1" opacity="0.700"/>
    <ellipse cx="797.26" cy="474.37" rx="7.90" ry="11.20" fill="url(#petalGrad)" opacity="1.000" filter="url(#softGlow)"/>
    <ellipse cx="797.26" cy="466.53" rx="5.53" ry="2.24" fill="#E8C96A" opacity="0.500"/>
<ellipse cx="537.61" cy="369.05" rx="12.65" ry="10.75" fill="none" stroke="#C9A84C" stroke-width="1.5" opacity="0.700"/>
      <ellipse cx="537.61" cy="369.05" rx="6.96" ry="6.32" fill="#C9A84C" opacity="0.400"/><ellipse cx="744.70" cy="369.05" rx="12.65" ry="10.75" fill="none" stroke="#C9A84C" stroke-width="1.5" opacity="0.700"/>
      <ellipse cx="744.70" cy="369.05" rx="6.96" ry="6.32" fill="#C9A84C" opacity="0.400"/>
<ellipse cx="637.69" cy="341.90" rx="40.47" ry="40.54" fill="#C9A84C" opacity="-0.030" filter="url(#glow)"/>
    <ellipse cx="637.69" cy="341.90" rx="25.29" ry="25.34" fill="url(#centerGem)" opacity="1.000" filter="url(#glow)" stroke="#E8C96A" stroke-width="2"/>
    <ellipse cx="631.36" cy="334.30" rx="6.32" ry="5.07" fill="white" opacity="0.350"/>

</svg>