<svg xmlns="http://www.w3.org/2000/svg" width="1280" height="720" viewBox="0 0 1280 720">
<defs>
    <radialGradient id="bgGrad" cx="50%" cy="50%" r="60%">
      <stop offset="0%" stop-color="#2A1200"/>
      <stop offset="100%" stop-color="#1A0A00"/>
    </radialGradient>
    <radialGradient id="glowGrad" cx="50%" cy="50%" r="50%">
      <stop offset="0%" stop-color="#C9A84C" stop-opacity="-0.045"/>
      <stop offset="100%" stop-color="#C9A84C" stop-opacity="0"/>
    </radialGradient>
    <radialGradient id="centerGem" cx="50%" cy="50%" r="50%">
      <stop offset="0%" stop-color="#FFE8A0"/>
      <stop offset="40%" stop-color="#C9A84C"/>
      <stop offset="100%" stop-color="#8B6914"/>
    </radialGradient>
    <radialGradient id="petalGrad" cx="50%" cy="30%" r="70%">
      <stop offset="0%" stop-color="#E8C96A"/>
      <stop offset="60%" stop-color="#C9A84C"/>
      <stop offset="100%" stop-color="#8B6914"/>
    </radialGradient>
    <filter id="glow" x="-50%" y="-50%" width="200%" height="200%">
      <feGaussianBlur stdDeviation="-1.45" result="coloredBlur"/>
      <feMerge><feMergeNode in="coloredBlur"/><feMergeNode in="SourceGraphic"/></feMerge>
    </filter>
    <filter id="softGlow" x="-30%" y="-30%" width="160%" height="160%">
      <feGaussianBlur stdDeviation="3" result="coloredBlur"/>
      <feMerge><feMergeNode in="coloredBlur"/><feMergeNode in="SourceGraphic"/></feMerge>
    </filter>
    <linearGradient id="plateGrad" x1="0%" y1="0%" x2="100%" y2="100%">
      <stop offset="0%" stop-color="#E8C96A"/>
      <stop offset="50%" stop-color="#C9A84C"/>
      <stop offset="100%" stop-color="#8B6914"/>
    </linearGradient>
  </defs>
<rect width="1280" height="720" fill="url(#bgGrad)"/>
<ellipse cx="640" cy="360" rx="191.12" ry="114.67" fill="url(#glowGrad)"/>
<circle cx="915.44" cy="401.91" r="3.17" fill="#C9A84C" opacity="0.962"/><circle cx="619.84" cy="528.36" r="1.69" fill="#C9A84C" opacity="0.992"/><circle cx="383.05" cy="375.94" r="0.48" fill="#C9A84C" opacity="1.000"/><circle cx="895.83" cy="197.11" r="1.32" fill="#C9A84C" opacity="0.987"/><circle cx="662.31" cy="288.09" r="2.97" fill="#C9A84C" opacity="0.953"/><circle cx="363.71" cy="498.18" r="3.02" fill="#C9A84C" opacity="0.899"/><circle cx="871.09" cy="479.39" r="1.39" fill="#C9A84C" opacity="0.828"/><circle cx="704.34" cy="262.85" r="0.47" fill="#C9A84C" opacity="0.740"/><circle cx="349.90" cy="207.23" r="1.61" fill="#C9A84C" opacity="0.638"/><circle cx="841.73" cy="404.66" r="3.14" fill="#C9A84C" opacity="0.527"/><circle cx="745.08" cy="528.12" r="2.82" fill="#C9A84C" opacity="0.408"/><circle cx="341.89" cy="373.11" r="1.12" fill="#C9A84C" opacity="0.313"/><circle cx="808.34" cy="196.39" r="0.53" fill="#C9A84C" opacity="0.435"/><circle cx="783.72" cy="290.67" r="1.91" fill="#C9A84C" opacity="0.552"/><circle cx="339.85" cy="499.79" r="3.24" fill="#C9A84C" opacity="0.661"/><circle cx="771.57" cy="477.36" r="2.57" fill="#C9A84C" opacity="0.760"/><circle cx="819.48" cy="260.54" r="0.88" fill="#C9A84C" opacity="0.845"/><circle cx="343.82" cy="208.46" r="0.65" fill="#C9A84C" opacity="0.913"/>
<path d="M 423.07,172.36 L 424.60,177.88 L 428.03,183.34 L 433.29,188.70 L 440.36,193.90 L 449.15,198.89 L 459.59,203.63 L 471.57,208.07 L 484.98,212.16 L 499.69,215.87 L 515.55,219.16 L 532.42,222.00 L 550.13,224.37 L 568.52,226.23 L 587.40,227.57 L 606.59,228.38 L 625.91,228.65 L 645.17,228.38 L 664.18,227.57 L 682.78,226.23 L 700.76,224.37 L 717.97,222.00 L 734.23,219.16 L 749.39,215.87 L 763.30,212.16 L 775.83,208.07 L 786.86,203.63 L 796.28,198.89 L 804.00,193.90 L 809.95,188.70 L 814.07,183.34 L 816.31,177.88 L 816.67,172.36 L 846.47,450.07 L 452.86,450.07 Z" fill="url(#plateGrad)" opacity="1.000" filter="url(#softGlow)" stroke="#E8C96A" stroke-width="1.5" stroke-opacity="0.6"/>
<polyline points="456.16,187.37 458.24,193.49 463.10,199.51 470.67,205.32 480.83,210.82 493.39,215.93 508.14,220.54 524.83,224.59 543.18,227.99 562.86,230.71 583.55,232.68 604.89,233.88 626.51,234.28 648.05,233.88 669.13,232.68 689.39,230.71 708.49,227.99 726.11,224.59 741.93,220.54 755.69,215.93 767.16,210.82 776.13,205.32 782.46,199.51 786.03,193.49 786.79,187.37" fill="none" stroke="#E8C96A" stroke-width="1" stroke-opacity="0.500"/>
<ellipse cx="442.54" cy="181.48" rx="12.03" ry="8.44" fill="url(#petalGrad)" opacity="0.900" filter="url(#softGlow)" stroke="#E8C96A" stroke-width="0.8"/><ellipse cx="465.89" cy="198.63" rx="12.03" ry="8.44" fill="url(#petalGrad)" opacity="0.900" filter="url(#softGlow)" stroke="#E8C96A" stroke-width="0.8"/><ellipse cx="507.80" cy="212.61" rx="12.03" ry="8.44" fill="url(#petalGrad)" opacity="0.900" filter="url(#softGlow)" stroke="#E8C96A" stroke-width="0.8"/><ellipse cx="563.24" cy="221.73" rx="12.03" ry="8.44" fill="url(#petalGrad)" opacity="0.900" filter="url(#softGlow)" stroke="#E8C96A" stroke-width="0.8"/><ellipse cx="625.50" cy="224.90" rx="12.03" ry="8.44" fill="url(#petalGrad)" opacity="0.900" filter="url(#softGlow)" stroke="#E8C96A" stroke-width="0.8"/><ellipse cx="687.09" cy="221.73" rx="12.03" ry="8.44" fill="url(#petalGrad)" opacity="0.900" filter="url(#softGlow)" stroke="#E8C96A" stroke-width="0.8"/><ellipse cx="740.57" cy="212.61" rx="12.03" ry="8.44" fill="url(#petalGrad)" opacity="0.900" filter="url(#softGlow)" stroke="#E8C96A" stroke-width="0.8"/><ellipse cx="779.49" cy="198.63" rx="12.03" ry="8.44" fill="url(#petalGrad)" opacity="0.900" filter="url(#softGlow)" stroke="#E8C96A" stroke-width="0.8"/><ellipse cx="799.15" cy="181.48" rx="12.03" ry="8.44" fill="url(#petalGrad)" opacity="0.900" filter="url(#softGlow)" stroke="#E8C96A" stroke-width="0.8"/>
<line x1="485.07" y1="450.07" x2="487.65" y2="466.96" stroke="#C9A84C" stroke-width="1" opacity="0.700"/>
    <ellipse cx="487.65" cy="478.43" rx="8.59" ry="11.47" fill="url(#petalGrad)" opacity="1.000" filter="url(#softGlow)"/>
    <ellipse cx="487.65" cy="470.40" rx="6.02" ry="2.29" fill="#E8C96A" opacity="0.500"/><line x1="517.99" y1="450.07" x2="520.59" y2="466.96" stroke="#C9A84C" stroke-width="1" opacity="0.700"/>
    <ellipse cx="520.59" cy="476.48" rx="8.59" ry="9.52" fill="url(#petalGrad)" opacity="1.000" filter="url(#softGlow)"/>
    <ellipse cx="520.59" cy="469.81" rx="6.02" ry="1.90" fill="#E8C96A" opacity="0.500"/><line x1="550.91" y1="450.07" x2="551.95" y2="466.96" stroke="#C9A84C" stroke-width="1" opacity="0.700"/>
    <ellipse cx="551.95" cy="475.40" rx="8.59" ry="8.44" fill="url(#petalGrad)" opacity="1.000" filter="url(#softGlow)"/>
    <ellipse cx="551.95" cy="469.49" rx="6.02" ry="1.69" fill="#E8C96A" opacity="0.500"/><line x1="583.82" y1="450.07" x2="582.68" y2="466.96" stroke="#C9A84C" stroke-width="1" opacity="0.700"/>
    <ellipse cx="582.68" cy="476.37" rx="8.59" ry="9.42" fill="url(#petalGrad)" opacity="1.000" filter="url(#softGlow)"/>
    <ellipse cx="582.68" cy="469.78" rx="6.02" ry="1.88" fill="#E8C96A" opacity="0.500"/><line x1="616.74" y1="450.07" x2="614.10" y2="466.96" stroke="#C9A84C" stroke-width="1" opacity="0.700"/>
    <ellipse cx="614.10" cy="478.33" rx="8.59" ry="11.38" fill="url(#petalGrad)" opacity="1.000" filter="url(#softGlow)"/>
    <ellipse cx="614.10" cy="470.37" rx="6.02" ry="2.28" fill="#E8C96A" opacity="0.500"/><line x1="649.66" y1="450.07" x2="647.13" y2="466.96" stroke="#C9A84C" stroke-width="1" opacity="0.700"/>
    <ellipse cx="647.13" cy="479.14" rx="8.59" ry="12.18" fill="url(#petalGrad)" opacity="1.000" filter="url(#softGlow)"/>
    <ellipse cx="647.13" cy="470.61" rx="6.02" ry="2.44" fill="#E8C96A" opacity="0.500"/><line x1="682.58" y1="450.07" x2="681.69" y2="466.96" stroke="#C9A84C" stroke-width="1" opacity="0.700"/>
    <ellipse cx="681.69" cy="477.91" rx="8.59" ry="10.95" fill="url(#petalGrad)" opacity="1.000" filter="url(#softGlow)"/>
    <ellipse cx="681.69" cy="470.24" rx="6.02" ry="2.19" fill="#E8C96A" opacity="0.500"/><line x1="715.50" y1="450.07" x2="716.80" y2="466.96" stroke="#C9A84C" stroke-width="1" opacity="0.700"/>
    <ellipse cx="716.80" cy="475.99" rx="8.59" ry="9.03" fill="url(#petalGrad)" opacity="1.000" filter="url(#softGlow)"/>
    <ellipse cx="716.80" cy="469.67" rx="6.02" ry="1.81" fill="#E8C96A" opacity="0.500"/><line x1="748.42" y1="450.07" x2="751.12" y2="466.96" stroke="#C9A84C" stroke-width="1" opacity="0.700"/>
    <ellipse cx="751.12" cy="475.48" rx="8.59" ry="8.52" fill="url(#petalGrad)" opacity="1.000" filter="url(#softGlow)"/>
    <ellipse cx="751.12" cy="469.51" rx="6.02" ry="1.70" fill="#E8C96A" opacity="0.500"/><line x1="781.34" y1="450.07" x2="783.80" y2="466.96" stroke="#C9A84C" stroke-width="1" opacity="0.700"/>
    <ellipse cx="783.80" cy="476.93" rx="8.59" ry="9.98" fill="url(#petalGrad)" opacity="1.000" filter="url(#softGlow)"/>
    <ellipse cx="783.80" cy="469.95" rx="6.02" ry="2.00" fill="#E8C96A" opacity="0.500"/><line x1="814.26" y1="450.07" x2="814.99" y2="466.96" stroke="#C9A84C" stroke-width="1" opacity="0.700"/>
    <ellipse cx="814.99" cy="478.76" rx="8.59" ry="11.81" fill="url(#petalGrad)" opacity="1.000" filter="url(#softGlow)"/>
    <ellipse cx="814.99" cy="470.50" rx="6.02" ry="2.36" fill="#E8C96A" opacity="0.500"/>
<ellipse cx="522.93" cy="369.38" rx="13.75" ry="11.69" fill="none" stroke="#C9A84C" stroke-width="1.5" opacity="0.700"/>
      <ellipse cx="522.93" cy="369.38" rx="7.56" ry="6.88" fill="#C9A84C" opacity="0.400"/><ellipse cx="759.09" cy="369.38" rx="13.75" ry="11.69" fill="none" stroke="#C9A84C" stroke-width="1.5" opacity="0.700"/>
      <ellipse cx="759.09" cy="369.38" rx="7.56" ry="6.88" fill="#C9A84C" opacity="0.400"/>
<ellipse cx="637.99" cy="341.24" rx="44.00" ry="42.03" fill="#C9A84C" opacity="-0.027" filter="url(#glow)"/>
    <ellipse cx="637.99" cy="341.24" rx="27.50" ry="26.27" fill="url(#centerGem)" opacity="1.000" filter="url(#glow)" stroke="#E8C96A" stroke-width="2"/>
    <ellipse cx="631.11" cy="333.35" rx="6.88" ry="5.25" fill="white" opacity="0.350"/>

</svg>