<svg xmlns="http://www.w3.org/2000/svg" width="1280" height="720" viewBox="0 0 1280 720">
<defs>
    <radialGradient id="bgGrad" cx="50%" cy="50%" r="60%">
      <stop offset="0%" stop-color="#2A1200"/>
      <stop offset="100%" stop-color="#1A0A00"/>
    </radialGradient>
    <radialGradient id="glowGrad" cx="50%" cy="50%" r="50%">
      <stop offset="0%" stop-color="#C9A84C" stop-opacity="-0.050"/>
      <stop offset="100%" stop-color="#C9A84C" stop-opacity="0"/>
    </radialGradient>
    <radialGradient id="centerGem" cx="50%" cy="50%" r="50%">
      <stop offset="0%" stop-color="#FFE8A0"/>
      <stop offset="40%" stop-color="#C9A84C"/>
      <stop offset="100%" stop-color="#8B6914"/>
    </radialGradient>
    <radialGradient id="petalGrad" cx="50%" cy="30%" r="70%">
      <stop offset="0%" stop-color="#E8C96A"/>
      <stop offset="60%" stop-color="#C9A84C"/>
      <stop offset="100%" stop-color="#8B6914"/>
    </radialGradient>
    <filter id="glow" x="-50%" y="-50%" width="200%" height="200%">
      <feGaussianBlur stdDeviation="-1.60" result="coloredBlur"/>
      <feMerge><feMergeNode in="coloredBlur"/><feMergeNode in="SourceGraphic"/></feMerge>
    </filter>
    <filter id="softGlow" x="-30%" y="-30%" width="160%" height="160%">
      <feGaussianBlur stdDeviation="3" result="coloredBlur"/>
      <feMerge><feMergeNode in="coloredBlur"/><feMergeNode in="SourceGraphic"/></feMerge>
    </filter>
    <linearGradient id="plateGrad" x1="0%" y1="0%" x2="100%" y2="100%">
      <stop offset="0%" stop-color="#E8C96A"/>
      <stop offset="50%" stop-color="#C9A84C"/>
      <stop offset="100%" stop-color="#8B6914"/>
    </linearGradient>
  </defs>
<rect width="1280" height="720" fill="url(#bgGrad)"/>
<ellipse cx="640" cy="360" rx="184.89" ry="110.93" fill="url(#glowGrad)"/>
<circle cx="859.41" cy="366.53" r="3.14" fill="#C9A84C" opacity="0.949"/><circle cx="712.47" cy="523.58" r="1.77" fill="#C9A84C" opacity="0.985"/><circle cx="354.12" cy="409.67" r="0.49" fill="#C9A84C" opacity="1.000"/><circle cx="829.73" cy="213.49" r="1.18" fill="#C9A84C" opacity="0.993"/><circle cx="751.87" cy="259.98" r="2.83" fill="#C9A84C" opacity="0.965"/><circle cx="347.67" cy="472.14" r="3.02" fill="#C9A84C" opacity="0.918"/><circle cx="796.25" cy="498.55" r="1.47" fill="#C9A84C" opacity="0.851"/><circle cx="789.02" cy="295.47" r="0.46" fill="#C9A84C" opacity="0.768"/><circle cx="347.07" cy="199.28" r="1.46" fill="#C9A84C" opacity="0.670"/><circle cx="759.64" cy="369.31" r="3.01" fill="#C9A84C" opacity="0.561"/><circle cx="823.20" cy="523.92" r="2.84" fill="#C9A84C" opacity="0.445"/><circle cx="352.34" cy="407.02" r="1.20" fill="#C9A84C" opacity="0.324"/><circle cx="720.64" cy="212.24" r="0.49" fill="#C9A84C" opacity="0.398"/><circle cx="853.70" cy="262.21" r="1.75" fill="#C9A84C" opacity="0.517"/><circle cx="363.36" cy="474.16" r="3.13" fill="#C9A84C" opacity="0.629"/><circle cx="680.02" cy="497.02" r="2.61" fill="#C9A84C" opacity="0.732"/><circle cx="879.93" cy="292.92" r="0.95" fill="#C9A84C" opacity="0.821"/><circle cx="379.92" cy="199.93" r="0.58" fill="#C9A84C" opacity="0.894"/>
<path d="M 436.86,176.63 L 438.38,182.02 L 441.64,187.36 L 446.59,192.60 L 453.18,197.68 L 461.37,202.56 L 471.05,207.19 L 482.15,211.53 L 494.56,215.53 L 508.16,219.15 L 522.81,222.37 L 538.37,225.14 L 554.70,227.45 L 571.63,229.27 L 589.01,230.58 L 606.67,231.38 L 624.43,231.64 L 642.13,231.38 L 659.60,230.58 L 676.66,229.27 L 693.15,227.45 L 708.92,225.14 L 723.81,222.37 L 737.68,219.15 L 750.40,215.53 L 761.83,211.53 L 771.88,207.19 L 780.45,202.56 L 787.45,197.68 L 792.81,192.60 L 796.49,187.36 L 798.45,182.02 L 798.67,176.63 L 831.58,448.02 L 469.77,448.02 Z" fill="url(#plateGrad)" opacity="1.000" filter="url(#softGlow)" stroke="#E8C96A" stroke-width="1.5" stroke-opacity="0.6"/>
<polyline points="467.58,191.30 469.61,197.28 474.20,203.16 481.28,208.84 490.72,214.22 502.37,219.21 516.02,223.71 531.45,227.67 548.38,231.00 566.53,233.65 585.58,235.58 605.22,236.75 625.10,237.14 644.89,236.75 664.24,235.58 682.83,233.65 700.34,231.00 716.46,227.67 730.92,223.71 743.48,219.21 753.92,214.22 762.06,208.84 767.76,203.16 770.93,197.28 771.50,191.30" fill="none" stroke="#E8C96A" stroke-width="1" stroke-opacity="0.500"/>
<ellipse cx="454.94" cy="185.54" rx="11.40" ry="8.25" fill="url(#petalGrad)" opacity="0.900" filter="url(#softGlow)" stroke="#E8C96A" stroke-width="0.8"/><ellipse cx="476.74" cy="202.30" rx="11.40" ry="8.25" fill="url(#petalGrad)" opacity="0.900" filter="url(#softGlow)" stroke="#E8C96A" stroke-width="0.8"/><ellipse cx="515.55" cy="215.96" rx="11.40" ry="8.25" fill="url(#petalGrad)" opacity="0.900" filter="url(#softGlow)" stroke="#E8C96A" stroke-width="0.8"/><ellipse cx="566.69" cy="224.88" rx="11.40" ry="8.25" fill="url(#petalGrad)" opacity="0.900" filter="url(#softGlow)" stroke="#E8C96A" stroke-width="0.8"/><ellipse cx="623.99" cy="227.97" rx="11.40" ry="8.25" fill="url(#petalGrad)" opacity="0.900" filter="url(#softGlow)" stroke="#E8C96A" stroke-width="0.8"/><ellipse cx="680.54" cy="224.88" rx="11.40" ry="8.25" fill="url(#petalGrad)" opacity="0.900" filter="url(#softGlow)" stroke="#E8C96A" stroke-width="0.8"/><ellipse cx="729.51" cy="215.96" rx="11.40" ry="8.25" fill="url(#petalGrad)" opacity="0.900" filter="url(#softGlow)" stroke="#E8C96A" stroke-width="0.8"/><ellipse cx="765.01" cy="202.30" rx="11.40" ry="8.25" fill="url(#petalGrad)" opacity="0.900" filter="url(#softGlow)" stroke="#E8C96A" stroke-width="0.8"/><ellipse cx="782.75" cy="185.54" rx="11.40" ry="8.25" fill="url(#petalGrad)" opacity="0.900" filter="url(#softGlow)" stroke="#E8C96A" stroke-width="0.8"/>
<line x1="499.37" y1="448.02" x2="501.43" y2="464.52" stroke="#C9A84C" stroke-width="1" opacity="0.700"/>
    <ellipse cx="501.43" cy="475.88" rx="8.15" ry="11.36" fill="url(#petalGrad)" opacity="1.000" filter="url(#softGlow)"/>
    <ellipse cx="501.43" cy="467.93" rx="5.70" ry="2.27" fill="#E8C96A" opacity="0.500"/><line x1="529.63" y1="448.02" x2="532.38" y2="464.52" stroke="#C9A84C" stroke-width="1" opacity="0.700"/>
    <ellipse cx="532.38" cy="474.01" rx="8.15" ry="9.48" fill="url(#petalGrad)" opacity="1.000" filter="url(#softGlow)"/>
    <ellipse cx="532.38" cy="467.37" rx="5.70" ry="1.90" fill="#E8C96A" opacity="0.500"/><line x1="559.89" y1="448.02" x2="561.66" y2="464.52" stroke="#C9A84C" stroke-width="1" opacity="0.700"/>
    <ellipse cx="561.66" cy="472.79" rx="8.15" ry="8.27" fill="url(#petalGrad)" opacity="1.000" filter="url(#softGlow)"/>
    <ellipse cx="561.66" cy="467.00" rx="5.70" ry="1.65" fill="#E8C96A" opacity="0.500"/><line x1="590.15" y1="448.02" x2="589.87" y2="464.52" stroke="#C9A84C" stroke-width="1" opacity="0.700"/>
    <ellipse cx="589.87" cy="473.56" rx="8.15" ry="9.04" fill="url(#petalGrad)" opacity="1.000" filter="url(#softGlow)"/>
    <ellipse cx="589.87" cy="467.23" rx="5.70" ry="1.81" fill="#E8C96A" opacity="0.500"/><line x1="620.41" y1="448.02" x2="618.25" y2="464.52" stroke="#C9A84C" stroke-width="1" opacity="0.700"/>
    <ellipse cx="618.25" cy="475.47" rx="8.15" ry="10.95" fill="url(#petalGrad)" opacity="1.000" filter="url(#softGlow)"/>
    <ellipse cx="618.25" cy="467.81" rx="5.70" ry="2.19" fill="#E8C96A" opacity="0.500"/><line x1="650.67" y1="448.02" x2="647.95" y2="464.52" stroke="#C9A84C" stroke-width="1" opacity="0.700"/>
    <ellipse cx="647.95" cy="476.44" rx="8.15" ry="11.92" fill="url(#petalGrad)" opacity="1.000" filter="url(#softGlow)"/>
    <ellipse cx="647.95" cy="468.10" rx="5.70" ry="2.38" fill="#E8C96A" opacity="0.500"/><line x1="680.93" y1="448.02" x2="679.29" y2="464.52" stroke="#C9A84C" stroke-width="1" opacity="0.700"/>
    <ellipse cx="679.29" cy="475.40" rx="8.15" ry="10.88" fill="url(#petalGrad)" opacity="1.000" filter="url(#softGlow)"/>
    <ellipse cx="679.29" cy="467.79" rx="5.70" ry="2.18" fill="#E8C96A" opacity="0.500"/><line x1="711.19" y1="448.02" x2="711.64" y2="464.52" stroke="#C9A84C" stroke-width="1" opacity="0.700"/>
    <ellipse cx="711.64" cy="473.50" rx="8.15" ry="8.97" fill="url(#petalGrad)" opacity="1.000" filter="url(#softGlow)"/>
    <ellipse cx="711.64" cy="467.21" rx="5.70" ry="1.79" fill="#E8C96A" opacity="0.500"/><line x1="741.45" y1="448.02" x2="743.71" y2="464.52" stroke="#C9A84C" stroke-width="1" opacity="0.700"/>
    <ellipse cx="743.71" cy="472.80" rx="8.15" ry="8.28" fill="url(#petalGrad)" opacity="1.000" filter="url(#softGlow)"/>
    <ellipse cx="743.71" cy="467.01" rx="5.70" ry="1.66" fill="#E8C96A" opacity="0.500"/><line x1="771.71" y1="448.02" x2="774.42" y2="464.52" stroke="#C9A84C" stroke-width="1" opacity="0.700"/>
    <ellipse cx="774.42" cy="474.08" rx="8.15" ry="9.56" fill="url(#petalGrad)" opacity="1.000" filter="url(#softGlow)"/>
    <ellipse cx="774.42" cy="467.39" rx="5.70" ry="1.91" fill="#E8C96A" opacity="0.500"/><line x1="801.97" y1="448.02" x2="803.48" y2="464.52" stroke="#C9A84C" stroke-width="1" opacity="0.700"/>
    <ellipse cx="803.48" cy="475.93" rx="8.15" ry="11.41" fill="url(#petalGrad)" opacity="1.000" filter="url(#softGlow)"/>
    <ellipse cx="803.48" cy="467.95" rx="5.70" ry="2.28" fill="#E8C96A" opacity="0.500"/>
<ellipse cx="532.57" cy="369.17" rx="13.03" ry="11.08" fill="none" stroke="#C9A84C" stroke-width="1.5" opacity="0.700"/>
      <ellipse cx="532.57" cy="369.17" rx="7.17" ry="6.52" fill="#C9A84C" opacity="0.400"/><ellipse cx="749.65" cy="369.17" rx="13.03" ry="11.08" fill="none" stroke="#C9A84C" stroke-width="1.5" opacity="0.700"/>
      <ellipse cx="749.65" cy="369.17" rx="7.17" ry="6.52" fill="#C9A84C" opacity="0.400"/>
<ellipse cx="637.78" cy="341.66" rx="41.70" ry="41.08" fill="#C9A84C" opacity="-0.030" filter="url(#glow)"/>
    <ellipse cx="637.78" cy="341.66" rx="26.06" ry="25.67" fill="url(#centerGem)" opacity="1.000" filter="url(#glow)" stroke="#E8C96A" stroke-width="2"/>
    <ellipse cx="631.26" cy="333.96" rx="6.52" ry="5.13" fill="white" opacity="0.350"/>

</svg>