<svg xmlns="http://www.w3.org/2000/svg" width="1280" height="720" viewBox="0 0 1280 720">
<defs>
    <radialGradient id="bgGrad" cx="50%" cy="50%" r="60%">
      <stop offset="0%" stop-color="#2A1200"/>
      <stop offset="100%" stop-color="#1A0A00"/>
    </radialGradient>
    <radialGradient id="glowGrad" cx="50%" cy="50%" r="50%">
      <stop offset="0%" stop-color="#C9A84C" stop-opacity="0.161"/>
      <stop offset="100%" stop-color="#C9A84C" stop-opacity="0"/>
    </radialGradient>
    <radialGradient id="centerGem" cx="50%" cy="50%" r="50%">
      <stop offset="0%" stop-color="#FFE8A0"/>
      <stop offset="40%" stop-color="#C9A84C"/>
      <stop offset="100%" stop-color="#8B6914"/>
    </radialGradient>
    <radialGradient id="petalGrad" cx="50%" cy="30%" r="70%">
      <stop offset="0%" stop-color="#E8C96A"/>
      <stop offset="60%" stop-color="#C9A84C"/>
      <stop offset="100%" stop-color="#8B6914"/>
    </radialGradient>
    <filter id="glow" x="-50%" y="-50%" width="200%" height="200%">
      <feGaussianBlur stdDeviation="5.17" result="coloredBlur"/>
      <feMerge><feMergeNode in="coloredBlur"/><feMergeNode in="SourceGraphic"/></feMerge>
    </filter>
    <filter id="softGlow" x="-30%" y="-30%" width="160%" height="160%">
      <feGaussianBlur stdDeviation="3" result="coloredBlur"/>
      <feMerge><feMergeNode in="coloredBlur"/><feMergeNode in="SourceGraphic"/></feMerge>
    </filter>
    <linearGradient id="plateGrad" x1="0%" y1="0%" x2="100%" y2="100%">
      <stop offset="0%" stop-color="#E8C96A"/>
      <stop offset="50%" stop-color="#C9A84C"/>
      <stop offset="100%" stop-color="#8B6914"/>
    </linearGradient>
  </defs>
<rect width="1280" height="720" fill="url(#bgGrad)"/>
<ellipse cx="640" cy="360" rx="90.78" ry="54.47" fill="url(#glowGrad)"/>
<circle cx="698.04" cy="410.29" r="0.69" fill="#C9A84C" opacity="0.038"/><circle cx="683.59" cy="346.37" r="1.07" fill="#C9A84C" opacity="0.050"/><circle cx="541.99" cy="305.02" r="0.78" fill="#C9A84C" opacity="0.061"/><circle cx="686.31" cy="354.74" r="0.25" fill="#C9A84C" opacity="0.072"/><circle cx="695.54" cy="413.17" r="0.25" fill="#C9A84C" opacity="0.081"/><circle cx="542.75" cy="383.53" r="0.79" fill="#C9A84C" opacity="0.089"/><circle cx="673.65" cy="314.92" r="1.07" fill="#C9A84C" opacity="0.095"/><circle cx="706.38" cy="320.98" r="0.68" fill="#C9A84C" opacity="0.099"/><circle cx="545.46" cy="391.67" r="0.19" fill="#C9A84C" opacity="0.101"/><circle cx="660.32" cy="409.91" r="0.32" fill="#C9A84C" opacity="0.100"/><circle cx="715.90" cy="345.48" r="0.87" fill="#C9A84C" opacity="0.098"/><circle cx="550.07" cy="305.10" r="1.05" fill="#C9A84C" opacity="0.094"/><circle cx="646.59" cy="355.66" r="0.59" fill="#C9A84C" opacity="0.087"/><circle cx="723.89" cy="413.41" r="0.16" fill="#C9A84C" opacity="0.079"/><circle cx="556.47" cy="382.69" r="0.40" fill="#C9A84C" opacity="0.070"/><circle cx="632.72" cy="314.39" r="0.95" fill="#C9A84C" opacity="0.059"/><circle cx="730.21" cy="321.64" r="1.00" fill="#C9A84C" opacity="0.047"/><circle cx="564.55" cy="392.43" r="0.49" fill="#C9A84C" opacity="0.035"/>
<path d="M 562.53,298.73 L 562.95,300.54 L 564.10,302.32 L 565.96,304.07 L 568.51,305.77 L 571.73,307.40 L 575.58,308.95 L 580.03,310.39 L 585.04,311.73 L 590.55,312.94 L 596.52,314.02 L 602.89,314.94 L 609.59,315.72 L 616.56,316.32 L 623.74,316.76 L 631.05,317.03 L 638.43,317.11 L 645.80,317.03 L 653.09,316.76 L 660.23,316.32 L 667.16,315.72 L 673.81,314.94 L 680.11,314.02 L 686.00,312.94 L 691.42,311.73 L 696.33,310.39 L 700.68,308.95 L 704.41,307.40 L 707.51,305.77 L 709.94,304.07 L 711.67,302.32 L 712.68,300.54 L 712.98,298.73 L 716.31,389.41 L 565.85,389.41 Z" fill="url(#plateGrad)" opacity="0.101" filter="url(#softGlow)" stroke="#E8C96A" stroke-width="1.5" stroke-opacity="0.6"/>
<polyline points="574.74,303.64 575.36,305.63 577.04,307.60 579.77,309.50 583.49,311.29 588.14,312.96 593.65,314.47 599.91,315.79 606.82,316.90 614.27,317.79 622.12,318.43 630.24,318.82 638.49,318.95 646.74,318.82 654.83,318.43 662.63,317.79 670.01,316.90 676.85,315.79 683.01,314.47 688.41,312.96 692.94,311.29 696.53,309.50 699.11,307.60 700.66,305.63 701.12,303.64" fill="none" stroke="#E8C96A" stroke-width="1" stroke-opacity="0.050"/>
<ellipse cx="569.70" cy="301.71" rx="4.25" ry="2.76" fill="url(#petalGrad)" opacity="0.091" filter="url(#softGlow)" stroke="#E8C96A" stroke-width="0.8"/><ellipse cx="578.13" cy="307.31" rx="4.25" ry="2.76" fill="url(#petalGrad)" opacity="0.091" filter="url(#softGlow)" stroke="#E8C96A" stroke-width="0.8"/><ellipse cx="593.75" cy="311.88" rx="4.25" ry="2.76" fill="url(#petalGrad)" opacity="0.091" filter="url(#softGlow)" stroke="#E8C96A" stroke-width="0.8"/><ellipse cx="614.67" cy="314.85" rx="4.25" ry="2.76" fill="url(#petalGrad)" opacity="0.091" filter="url(#softGlow)" stroke="#E8C96A" stroke-width="0.8"/><ellipse cx="638.38" cy="315.89" rx="4.25" ry="2.76" fill="url(#petalGrad)" opacity="0.091" filter="url(#softGlow)" stroke="#E8C96A" stroke-width="0.8"/><ellipse cx="662.01" cy="314.85" rx="4.25" ry="2.76" fill="url(#petalGrad)" opacity="0.091" filter="url(#softGlow)" stroke="#E8C96A" stroke-width="0.8"/><ellipse cx="682.72" cy="311.88" rx="4.25" ry="2.76" fill="url(#petalGrad)" opacity="0.091" filter="url(#softGlow)" stroke="#E8C96A" stroke-width="0.8"/><ellipse cx="698.00" cy="307.31" rx="4.25" ry="2.76" fill="url(#petalGrad)" opacity="0.091" filter="url(#softGlow)" stroke="#E8C96A" stroke-width="0.8"/><ellipse cx="706.02" cy="301.71" rx="4.25" ry="2.76" fill="url(#petalGrad)" opacity="0.091" filter="url(#softGlow)" stroke="#E8C96A" stroke-width="0.8"/>
<line x1="578.16" y1="389.41" x2="578.71" y2="394.92" stroke="#C9A84C" stroke-width="1" opacity="0.071"/>
    <ellipse cx="578.71" cy="398.42" rx="3.04" ry="3.50" fill="url(#petalGrad)" opacity="0.101" filter="url(#softGlow)"/>
    <ellipse cx="578.71" cy="395.97" rx="2.13" ry="0.70" fill="#E8C96A" opacity="0.050"/><line x1="590.75" y1="389.41" x2="591.66" y2="394.92" stroke="#C9A84C" stroke-width="1" opacity="0.071"/>
    <ellipse cx="591.66" cy="398.88" rx="3.04" ry="3.96" fill="url(#petalGrad)" opacity="0.101" filter="url(#softGlow)"/>
    <ellipse cx="591.66" cy="396.11" rx="2.13" ry="0.79" fill="#E8C96A" opacity="0.050"/><line x1="603.33" y1="389.41" x2="604.05" y2="394.92" stroke="#C9A84C" stroke-width="1" opacity="0.071"/>
    <ellipse cx="604.05" cy="398.70" rx="3.04" ry="3.78" fill="url(#petalGrad)" opacity="0.101" filter="url(#softGlow)"/>
    <ellipse cx="604.05" cy="396.05" rx="2.13" ry="0.76" fill="#E8C96A" opacity="0.050"/><line x1="615.91" y1="389.41" x2="616.01" y2="394.92" stroke="#C9A84C" stroke-width="1" opacity="0.071"/>
    <ellipse cx="616.01" cy="398.07" rx="3.04" ry="3.15" fill="url(#petalGrad)" opacity="0.101" filter="url(#softGlow)"/>
    <ellipse cx="616.01" cy="395.87" rx="2.13" ry="0.63" fill="#E8C96A" opacity="0.050"/><line x1="628.50" y1="389.41" x2="627.91" y2="394.92" stroke="#C9A84C" stroke-width="1" opacity="0.071"/>
    <ellipse cx="627.91" cy="397.68" rx="3.04" ry="2.76" fill="url(#petalGrad)" opacity="0.101" filter="url(#softGlow)"/>
    <ellipse cx="627.91" cy="395.75" rx="2.13" ry="0.55" fill="#E8C96A" opacity="0.050"/><line x1="641.08" y1="389.41" x2="640.16" y2="394.92" stroke="#C9A84C" stroke-width="1" opacity="0.071"/>
    <ellipse cx="640.16" cy="397.96" rx="3.04" ry="3.04" fill="url(#petalGrad)" opacity="0.101" filter="url(#softGlow)"/>
    <ellipse cx="640.16" cy="395.83" rx="2.13" ry="0.61" fill="#E8C96A" opacity="0.050"/><line x1="653.66" y1="389.41" x2="652.97" y2="394.92" stroke="#C9A84C" stroke-width="1" opacity="0.071"/>
    <ellipse cx="652.97" cy="398.60" rx="3.04" ry="3.68" fill="url(#petalGrad)" opacity="0.101" filter="url(#softGlow)"/>
    <ellipse cx="652.97" cy="396.02" rx="2.13" ry="0.74" fill="#E8C96A" opacity="0.050"/><line x1="666.25" y1="389.41" x2="666.20" y2="394.92" stroke="#C9A84C" stroke-width="1" opacity="0.071"/>
    <ellipse cx="666.20" cy="398.90" rx="3.04" ry="3.98" fill="url(#petalGrad)" opacity="0.101" filter="url(#softGlow)"/>
    <ellipse cx="666.20" cy="396.12" rx="2.13" ry="0.80" fill="#E8C96A" opacity="0.050"/><line x1="678.83" y1="389.41" x2="679.46" y2="394.92" stroke="#C9A84C" stroke-width="1" opacity="0.071"/>
    <ellipse cx="679.46" cy="398.54" rx="3.04" ry="3.62" fill="url(#petalGrad)" opacity="0.101" filter="url(#softGlow)"/>
    <ellipse cx="679.46" cy="396.01" rx="2.13" ry="0.72" fill="#E8C96A" opacity="0.050"/><line x1="691.41" y1="389.41" x2="692.33" y2="394.92" stroke="#C9A84C" stroke-width="1" opacity="0.071"/>
    <ellipse cx="692.33" cy="397.90" rx="3.04" ry="2.98" fill="url(#petalGrad)" opacity="0.101" filter="url(#softGlow)"/>
    <ellipse cx="692.33" cy="395.82" rx="2.13" ry="0.60" fill="#E8C96A" opacity="0.050"/><line x1="704.00" y1="389.41" x2="704.65" y2="394.92" stroke="#C9A84C" stroke-width="1" opacity="0.071"/>
    <ellipse cx="704.65" cy="397.69" rx="3.04" ry="2.77" fill="url(#petalGrad)" opacity="0.101" filter="url(#softGlow)"/>
    <ellipse cx="704.65" cy="395.75" rx="2.13" ry="0.55" fill="#E8C96A" opacity="0.050"/>
<ellipse cx="594.98" cy="363.06" rx="4.86" ry="4.13" fill="none" stroke="#C9A84C" stroke-width="1.5" opacity="0.071"/>
      <ellipse cx="594.98" cy="363.06" rx="2.67" ry="2.43" fill="#C9A84C" opacity="0.040"/><ellipse cx="685.25" cy="363.06" rx="4.86" ry="4.13" fill="none" stroke="#C9A84C" stroke-width="1.5" opacity="0.071"/>
      <ellipse cx="685.25" cy="363.06" rx="2.67" ry="2.43" fill="#C9A84C" opacity="0.040"/>
<ellipse cx="639.78" cy="353.87" rx="15.54" ry="13.72" fill="#C9A84C" opacity="0.010" filter="url(#glow)"/>
    <ellipse cx="639.78" cy="353.87" rx="9.72" ry="8.58" fill="url(#centerGem)" opacity="0.101" filter="url(#glow)" stroke="#E8C96A" stroke-width="2"/>
    <ellipse cx="637.35" cy="351.30" rx="2.43" ry="1.72" fill="white" opacity="0.035"/>

</svg>