<svg xmlns="http://www.w3.org/2000/svg" width="1280" height="720" viewBox="0 0 1280 720">
<defs>
    <radialGradient id="bgGrad" cx="50%" cy="50%" r="60%">
      <stop offset="0%" stop-color="#2A1200"/>
      <stop offset="100%" stop-color="#1A0A00"/>
    </radialGradient>
    <radialGradient id="glowGrad" cx="50%" cy="50%" r="50%">
      <stop offset="0%" stop-color="#C9A84C" stop-opacity="-0.015"/>
      <stop offset="100%" stop-color="#C9A84C" stop-opacity="0"/>
    </radialGradient>
    <radialGradient id="centerGem" cx="50%" cy="50%" r="50%">
      <stop offset="0%" stop-color="#FFE8A0"/>
      <stop offset="40%" stop-color="#C9A84C"/>
      <stop offset="100%" stop-color="#8B6914"/>
    </radialGradient>
    <radialGradient id="petalGrad" cx="50%" cy="30%" r="70%">
      <stop offset="0%" stop-color="#E8C96A"/>
      <stop offset="60%" stop-color="#C9A84C"/>
      <stop offset="100%" stop-color="#8B6914"/>
    </radialGradient>
    <filter id="glow" x="-50%" y="-50%" width="200%" height="200%">
      <feGaussianBlur stdDeviation="-0.47" result="coloredBlur"/>
      <feMerge><feMergeNode in="coloredBlur"/><feMergeNode in="SourceGraphic"/></feMerge>
    </filter>
    <filter id="softGlow" x="-30%" y="-30%" width="160%" height="160%">
      <feGaussianBlur stdDeviation="3" result="coloredBlur"/>
      <feMerge><feMergeNode in="coloredBlur"/><feMergeNode in="SourceGraphic"/></feMerge>
    </filter>
    <linearGradient id="plateGrad" x1="0%" y1="0%" x2="100%" y2="100%">
      <stop offset="0%" stop-color="#E8C96A"/>
      <stop offset="50%" stop-color="#C9A84C"/>
      <stop offset="100%" stop-color="#8B6914"/>
    </linearGradient>
  </defs>
<rect width="1280" height="720" fill="url(#bgGrad)"/>
<ellipse cx="640" cy="360" rx="177.65" ry="106.59" fill="url(#glowGrad)"/>
<circle cx="571.76" cy="265.28" r="2.86" fill="#C9A84C" opacity="0.853"/><circle cx="895.63" cy="454.60" r="1.93" fill="#C9A84C" opacity="0.907"/><circle cx="473.78" cy="487.22" r="0.57" fill="#C9A84C" opacity="0.942"/><circle cx="536.82" cy="309.12" r="0.77" fill="#C9A84C" opacity="0.957"/><circle cx="900.85" cy="215.29" r="2.24" fill="#C9A84C" opacity="0.952"/><circle cx="503.94" cy="361.16" r="2.82" fill="#C9A84C" opacity="0.927"/><circle cx="503.94" cy="505.10" r="1.67" fill="#C9A84C" opacity="0.882"/><circle cx="900.85" cy="408.70" r="0.46" fill="#C9A84C" opacity="0.820"/><circle cx="536.81" cy="231.63" r="0.97" fill="#C9A84C" opacity="0.741"/><circle cx="473.79" cy="267.19" r="2.45" fill="#C9A84C" opacity="0.648"/><circle cx="895.63" cy="456.48" r="2.73" fill="#C9A84C" opacity="0.544"/><circle cx="571.76" cy="485.96" r="1.40" fill="#C9A84C" opacity="0.433"/><circle cx="446.96" cy="306.81" r="0.41" fill="#C9A84C" opacity="0.317"/><circle cx="885.29" cy="215.76" r="1.21" fill="#C9A84C" opacity="0.375"/><circle cx="608.06" cy="363.63" r="2.63" fill="#C9A84C" opacity="0.489"/><circle cx="424.00" cy="505.49" r="2.59" fill="#C9A84C" opacity="0.597"/><circle cx="870.05" cy="406.36" r="1.15" fill="#C9A84C" opacity="0.695"/><circle cx="645.01" cy="230.44" r="0.42" fill="#C9A84C" opacity="0.782"/>
<path d="M 493.32,196.56 L 494.67,201.37 L 497.16,206.13 L 500.78,210.79 L 505.49,215.32 L 511.25,219.67 L 517.99,223.80 L 525.67,227.67 L 534.19,231.23 L 543.48,234.46 L 553.45,237.33 L 564.01,239.80 L 575.05,241.86 L 586.46,243.48 L 598.14,244.65 L 609.98,245.36 L 621.85,245.59 L 633.65,245.36 L 645.26,244.65 L 656.56,243.48 L 667.46,241.86 L 677.85,239.80 L 687.62,237.33 L 696.68,234.46 L 704.95,231.23 L 712.34,227.67 L 718.79,223.80 L 724.23,219.67 L 728.60,215.32 L 731.87,210.79 L 734.01,206.13 L 735.00,201.37 L 734.82,196.56 L 773.19,438.45 L 531.70,438.45 Z" fill="url(#plateGrad)" opacity="0.958" filter="url(#softGlow)" stroke="#E8C96A" stroke-width="1.5" stroke-opacity="0.6"/>
<polyline points="514.72,209.63 516.43,214.97 519.85,220.21 524.92,225.27 531.55,230.06 539.62,234.51 549.01,238.53 559.54,242.05 571.04,245.02 583.32,247.38 596.15,249.10 609.33,250.15 622.63,250.49 635.81,250.15 648.66,249.10 660.95,247.38 672.47,245.02 683.03,242.05 692.45,238.53 700.56,234.51 707.22,230.06 712.33,225.27 715.79,220.21 717.55,214.97 717.57,209.63" fill="none" stroke="#E8C96A" stroke-width="1" stroke-opacity="0.479"/>
<ellipse cx="505.93" cy="204.51" rx="8.80" ry="7.35" fill="url(#petalGrad)" opacity="0.862" filter="url(#softGlow)" stroke="#E8C96A" stroke-width="0.8"/><ellipse cx="521.50" cy="219.44" rx="8.80" ry="7.35" fill="url(#petalGrad)" opacity="0.862" filter="url(#softGlow)" stroke="#E8C96A" stroke-width="0.8"/><ellipse cx="548.23" cy="231.62" rx="8.80" ry="7.35" fill="url(#petalGrad)" opacity="0.862" filter="url(#softGlow)" stroke="#E8C96A" stroke-width="0.8"/><ellipse cx="582.90" cy="239.56" rx="8.80" ry="7.35" fill="url(#petalGrad)" opacity="0.862" filter="url(#softGlow)" stroke="#E8C96A" stroke-width="0.8"/><ellipse cx="621.33" cy="242.32" rx="8.80" ry="7.35" fill="url(#petalGrad)" opacity="0.862" filter="url(#softGlow)" stroke="#E8C96A" stroke-width="0.8"/><ellipse cx="658.89" cy="239.56" rx="8.80" ry="7.35" fill="url(#petalGrad)" opacity="0.862" filter="url(#softGlow)" stroke="#E8C96A" stroke-width="0.8"/><ellipse cx="691.04" cy="231.62" rx="8.80" ry="7.35" fill="url(#petalGrad)" opacity="0.862" filter="url(#softGlow)" stroke="#E8C96A" stroke-width="0.8"/><ellipse cx="713.90" cy="219.44" rx="8.80" ry="7.35" fill="url(#petalGrad)" opacity="0.862" filter="url(#softGlow)" stroke="#E8C96A" stroke-width="0.8"/><ellipse cx="724.73" cy="204.51" rx="8.80" ry="7.35" fill="url(#petalGrad)" opacity="0.862" filter="url(#softGlow)" stroke="#E8C96A" stroke-width="0.8"/>
<line x1="551.46" y1="438.45" x2="550.82" y2="453.16" stroke="#C9A84C" stroke-width="1" opacity="0.671"/>
    <ellipse cx="550.82" cy="463.63" rx="6.28" ry="10.47" fill="url(#petalGrad)" opacity="0.958" filter="url(#softGlow)"/>
    <ellipse cx="550.82" cy="456.30" rx="4.40" ry="2.09" fill="#E8C96A" opacity="0.479"/><line x1="571.66" y1="438.45" x2="572.91" y2="453.16" stroke="#C9A84C" stroke-width="1" opacity="0.671"/>
    <ellipse cx="572.91" cy="462.21" rx="6.28" ry="9.05" fill="url(#petalGrad)" opacity="0.958" filter="url(#softGlow)"/>
    <ellipse cx="572.91" cy="455.88" rx="4.40" ry="1.81" fill="#E8C96A" opacity="0.479"/><line x1="591.85" y1="438.45" x2="594.24" y2="453.16" stroke="#C9A84C" stroke-width="1" opacity="0.671"/>
    <ellipse cx="594.24" cy="460.72" rx="6.28" ry="7.56" fill="url(#petalGrad)" opacity="0.958" filter="url(#softGlow)"/>
    <ellipse cx="594.24" cy="455.43" rx="4.40" ry="1.51" fill="#E8C96A" opacity="0.479"/><line x1="612.05" y1="438.45" x2="614.12" y2="453.16" stroke="#C9A84C" stroke-width="1" opacity="0.671"/>
    <ellipse cx="614.12" cy="460.80" rx="6.28" ry="7.63" fill="url(#petalGrad)" opacity="0.958" filter="url(#softGlow)"/>
    <ellipse cx="614.12" cy="455.45" rx="4.40" ry="1.53" fill="#E8C96A" opacity="0.479"/><line x1="632.25" y1="438.45" x2="632.75" y2="453.16" stroke="#C9A84C" stroke-width="1" opacity="0.671"/>
    <ellipse cx="632.75" cy="462.35" rx="6.28" ry="9.19" fill="url(#petalGrad)" opacity="0.958" filter="url(#softGlow)"/>
    <ellipse cx="632.75" cy="455.92" rx="4.40" ry="1.84" fill="#E8C96A" opacity="0.479"/><line x1="652.45" y1="438.45" x2="651.07" y2="453.16" stroke="#C9A84C" stroke-width="1" opacity="0.671"/>
    <ellipse cx="651.07" cy="463.69" rx="6.28" ry="10.53" fill="url(#petalGrad)" opacity="0.958" filter="url(#softGlow)"/>
    <ellipse cx="651.07" cy="456.32" rx="4.40" ry="2.11" fill="#E8C96A" opacity="0.479"/><line x1="672.64" y1="438.45" x2="670.23" y2="453.16" stroke="#C9A84C" stroke-width="1" opacity="0.671"/>
    <ellipse cx="670.23" cy="463.34" rx="6.28" ry="10.18" fill="url(#petalGrad)" opacity="0.958" filter="url(#softGlow)"/>
    <ellipse cx="670.23" cy="456.22" rx="4.40" ry="2.04" fill="#E8C96A" opacity="0.479"/><line x1="692.84" y1="438.45" x2="690.85" y2="453.16" stroke="#C9A84C" stroke-width="1" opacity="0.671"/>
    <ellipse cx="690.85" cy="461.70" rx="6.28" ry="8.54" fill="url(#petalGrad)" opacity="0.958" filter="url(#softGlow)"/>
    <ellipse cx="690.85" cy="455.72" rx="4.40" ry="1.71" fill="#E8C96A" opacity="0.479"/><line x1="713.04" y1="438.45" x2="712.68" y2="453.16" stroke="#C9A84C" stroke-width="1" opacity="0.671"/>
    <ellipse cx="712.68" cy="460.55" rx="6.28" ry="7.38" fill="url(#petalGrad)" opacity="0.958" filter="url(#softGlow)"/>
    <ellipse cx="712.68" cy="455.38" rx="4.40" ry="1.48" fill="#E8C96A" opacity="0.479"/><line x1="733.24" y1="438.45" x2="734.73" y2="453.16" stroke="#C9A84C" stroke-width="1" opacity="0.671"/>
    <ellipse cx="734.73" cy="461.15" rx="6.28" ry="7.99" fill="url(#petalGrad)" opacity="0.958" filter="url(#softGlow)"/>
    <ellipse cx="734.73" cy="455.56" rx="4.40" ry="1.60" fill="#E8C96A" opacity="0.479"/><line x1="753.44" y1="438.45" x2="755.87" y2="453.16" stroke="#C9A84C" stroke-width="1" opacity="0.671"/>
    <ellipse cx="755.87" cy="462.85" rx="6.28" ry="9.69" fill="url(#petalGrad)" opacity="0.958" filter="url(#softGlow)"/>
    <ellipse cx="755.87" cy="456.07" rx="4.40" ry="1.94" fill="#E8C96A" opacity="0.479"/>
<ellipse cx="568.85" cy="368.17" rx="10.05" ry="8.54" fill="none" stroke="#C9A84C" stroke-width="1.5" opacity="0.671"/>
      <ellipse cx="568.85" cy="368.17" rx="5.53" ry="5.03" fill="#C9A84C" opacity="0.383"/><ellipse cx="713.74" cy="368.17" rx="10.05" ry="8.54" fill="none" stroke="#C9A84C" stroke-width="1.5" opacity="0.671"/>
      <ellipse cx="713.74" cy="368.17" rx="5.53" ry="5.03" fill="#C9A84C" opacity="0.383"/>
<ellipse cx="637.41" cy="343.66" rx="32.17" ry="36.61" fill="#C9A84C" opacity="-0.008" filter="url(#glow)"/>
    <ellipse cx="637.41" cy="343.66" rx="20.10" ry="22.88" fill="url(#centerGem)" opacity="0.958" filter="url(#glow)" stroke="#E8C96A" stroke-width="2"/>
    <ellipse cx="632.38" cy="336.79" rx="5.03" ry="4.58" fill="white" opacity="0.335"/>

</svg>