<svg xmlns="http://www.w3.org/2000/svg" width="1280" height="720" viewBox="0 0 1280 720">
<defs>
    <radialGradient id="bgGrad" cx="50%" cy="50%" r="60%">
      <stop offset="0%" stop-color="#2A1200"/>
      <stop offset="100%" stop-color="#1A0A00"/>
    </radialGradient>
    <radialGradient id="glowGrad" cx="50%" cy="50%" r="50%">
      <stop offset="0%" stop-color="#C9A84C" stop-opacity="0.201"/>
      <stop offset="100%" stop-color="#C9A84C" stop-opacity="0"/>
    </radialGradient>
    <radialGradient id="centerGem" cx="50%" cy="50%" r="50%">
      <stop offset="0%" stop-color="#FFE8A0"/>
      <stop offset="40%" stop-color="#C9A84C"/>
      <stop offset="100%" stop-color="#8B6914"/>
    </radialGradient>
    <radialGradient id="petalGrad" cx="50%" cy="30%" r="70%">
      <stop offset="0%" stop-color="#E8C96A"/>
      <stop offset="60%" stop-color="#C9A84C"/>
      <stop offset="100%" stop-color="#8B6914"/>
    </radialGradient>
    <filter id="glow" x="-50%" y="-50%" width="200%" height="200%">
      <feGaussianBlur stdDeviation="6.43" result="coloredBlur"/>
      <feMerge><feMergeNode in="coloredBlur"/><feMergeNode in="SourceGraphic"/></feMerge>
    </filter>
    <filter id="softGlow" x="-30%" y="-30%" width="160%" height="160%">
      <feGaussianBlur stdDeviation="3" result="coloredBlur"/>
      <feMerge><feMergeNode in="coloredBlur"/><feMergeNode in="SourceGraphic"/></feMerge>
    </filter>
    <linearGradient id="plateGrad" x1="0%" y1="0%" x2="100%" y2="100%">
      <stop offset="0%" stop-color="#E8C96A"/>
      <stop offset="50%" stop-color="#C9A84C"/>
      <stop offset="100%" stop-color="#8B6914"/>
    </linearGradient>
  </defs>
<rect width="1280" height="720" fill="url(#bgGrad)"/>
<ellipse cx="640" cy="360" rx="100.31" ry="60.18" fill="url(#glowGrad)"/>
<circle cx="731.49" cy="402.48" r="0.78" fill="#C9A84C" opacity="0.076"/><circle cx="638.53" cy="329.15" r="1.12" fill="#C9A84C" opacity="0.096"/><circle cx="549.86" cy="306.91" r="0.76" fill="#C9A84C" opacity="0.116"/><circle cx="724.14" cy="372.61" r="0.22" fill="#C9A84C" opacity="0.133"/><circle cx="652.96" cy="417.42" r="0.30" fill="#C9A84C" opacity="0.148"/><circle cx="543.97" cy="367.12" r="0.87" fill="#C9A84C" opacity="0.161"/><circle cx="715.11" cy="305.03" r="1.10" fill="#C9A84C" opacity="0.169"/><circle cx="667.14" cy="333.99" r="0.65" fill="#C9A84C" opacity="0.175"/><circle cx="539.99" cy="406.04" r="0.18" fill="#C9A84C" opacity="0.176"/><circle cx="704.58" cy="401.83" r="0.38" fill="#C9A84C" opacity="0.174"/><circle cx="680.77" cy="328.33" r="0.96" fill="#C9A84C" opacity="0.169"/><circle cx="538.02" cy="307.29" r="1.07" fill="#C9A84C" opacity="0.159"/><circle cx="692.76" cy="373.55" r="0.55" fill="#C9A84C" opacity="0.147"/><circle cx="693.59" cy="417.37" r="0.16" fill="#C9A84C" opacity="0.131"/><circle cx="538.09" cy="366.16" r="0.47" fill="#C9A84C" opacity="0.114"/><circle cx="679.88" cy="304.75" r="1.03" fill="#C9A84C" opacity="0.094"/><circle cx="705.33" cy="334.86" r="1.01" fill="#C9A84C" opacity="0.073"/><circle cx="540.20" cy="406.61" r="0.45" fill="#C9A84C" opacity="0.054"/>
<path d="M 560.37,296.12 L 560.86,298.00 L 562.06,299.86 L 563.98,301.69 L 566.59,303.46 L 569.87,305.16 L 573.78,306.77 L 578.30,308.28 L 583.37,309.67 L 588.95,310.94 L 594.97,312.06 L 601.40,313.02 L 608.15,313.83 L 615.18,314.46 L 622.40,314.92 L 629.76,315.19 L 637.17,315.29 L 644.58,315.19 L 651.90,314.92 L 659.06,314.46 L 666.01,313.83 L 672.66,313.02 L 678.96,312.06 L 684.85,310.94 L 690.27,309.67 L 695.16,308.28 L 699.49,306.77 L 703.20,305.16 L 706.26,303.46 L 708.65,301.69 L 710.34,299.86 L 711.31,298.00 L 711.55,296.12 L 717.53,390.66 L 566.35,390.66 Z" fill="url(#plateGrad)" opacity="0.176" filter="url(#softGlow)" stroke="#E8C96A" stroke-width="1.5" stroke-opacity="0.6"/>
<polyline points="572.79,301.23 573.47,303.32 575.21,305.37 578.01,307.35 581.80,309.22 586.53,310.96 592.10,312.53 598.43,313.90 605.41,315.06 612.92,315.99 620.83,316.66 629.00,317.07 637.29,317.20 645.57,317.07 653.69,316.66 661.52,315.99 668.91,315.06 675.74,313.90 681.90,312.53 687.27,310.96 691.78,309.22 695.33,307.35 697.88,305.37 699.37,303.32 699.78,301.23" fill="none" stroke="#E8C96A" stroke-width="1" stroke-opacity="0.088"/>
<ellipse cx="567.67" cy="299.23" rx="4.35" ry="2.87" fill="url(#petalGrad)" opacity="0.159" filter="url(#softGlow)" stroke="#E8C96A" stroke-width="0.8"/><ellipse cx="576.30" cy="305.07" rx="4.35" ry="2.87" fill="url(#petalGrad)" opacity="0.159" filter="url(#softGlow)" stroke="#E8C96A" stroke-width="0.8"/><ellipse cx="592.13" cy="309.83" rx="4.35" ry="2.87" fill="url(#petalGrad)" opacity="0.159" filter="url(#softGlow)" stroke="#E8C96A" stroke-width="0.8"/><ellipse cx="613.24" cy="312.93" rx="4.35" ry="2.87" fill="url(#petalGrad)" opacity="0.159" filter="url(#softGlow)" stroke="#E8C96A" stroke-width="0.8"/><ellipse cx="637.09" cy="314.01" rx="4.35" ry="2.87" fill="url(#petalGrad)" opacity="0.159" filter="url(#softGlow)" stroke="#E8C96A" stroke-width="0.8"/><ellipse cx="660.81" cy="312.93" rx="4.35" ry="2.87" fill="url(#petalGrad)" opacity="0.159" filter="url(#softGlow)" stroke="#E8C96A" stroke-width="0.8"/><ellipse cx="681.53" cy="309.83" rx="4.35" ry="2.87" fill="url(#petalGrad)" opacity="0.159" filter="url(#softGlow)" stroke="#E8C96A" stroke-width="0.8"/><ellipse cx="696.75" cy="305.07" rx="4.35" ry="2.87" fill="url(#petalGrad)" opacity="0.159" filter="url(#softGlow)" stroke="#E8C96A" stroke-width="0.8"/><ellipse cx="704.64" cy="299.23" rx="4.35" ry="2.87" fill="url(#petalGrad)" opacity="0.159" filter="url(#softGlow)" stroke="#E8C96A" stroke-width="0.8"/>
<line x1="578.72" y1="390.66" x2="579.58" y2="396.41" stroke="#C9A84C" stroke-width="1" opacity="0.124"/>
    <ellipse cx="579.58" cy="400.15" rx="3.11" ry="3.74" fill="url(#petalGrad)" opacity="0.176" filter="url(#softGlow)"/>
    <ellipse cx="579.58" cy="397.53" rx="2.18" ry="0.75" fill="#E8C96A" opacity="0.088"/><line x1="591.36" y1="390.66" x2="592.27" y2="396.41" stroke="#C9A84C" stroke-width="1" opacity="0.124"/>
    <ellipse cx="592.27" cy="400.56" rx="3.11" ry="4.15" fill="url(#petalGrad)" opacity="0.176" filter="url(#softGlow)"/>
    <ellipse cx="592.27" cy="397.65" rx="2.18" ry="0.83" fill="#E8C96A" opacity="0.088"/><line x1="604.01" y1="390.66" x2="604.41" y2="396.41" stroke="#C9A84C" stroke-width="1" opacity="0.124"/>
    <ellipse cx="604.41" cy="400.27" rx="3.11" ry="3.86" fill="url(#petalGrad)" opacity="0.176" filter="url(#softGlow)"/>
    <ellipse cx="604.41" cy="397.57" rx="2.18" ry="0.77" fill="#E8C96A" opacity="0.088"/><line x1="616.65" y1="390.66" x2="616.31" y2="396.41" stroke="#C9A84C" stroke-width="1" opacity="0.124"/>
    <ellipse cx="616.31" cy="399.60" rx="3.11" ry="3.19" fill="url(#petalGrad)" opacity="0.176" filter="url(#softGlow)"/>
    <ellipse cx="616.31" cy="397.37" rx="2.18" ry="0.64" fill="#E8C96A" opacity="0.088"/><line x1="629.29" y1="390.66" x2="628.41" y2="396.41" stroke="#C9A84C" stroke-width="1" opacity="0.124"/>
    <ellipse cx="628.41" cy="399.28" rx="3.11" ry="2.88" fill="url(#petalGrad)" opacity="0.176" filter="url(#softGlow)"/>
    <ellipse cx="628.41" cy="397.27" rx="2.18" ry="0.58" fill="#E8C96A" opacity="0.088"/><line x1="641.94" y1="390.66" x2="641.05" y2="396.41" stroke="#C9A84C" stroke-width="1" opacity="0.124"/>
    <ellipse cx="641.05" cy="399.67" rx="3.11" ry="3.26" fill="url(#petalGrad)" opacity="0.176" filter="url(#softGlow)"/>
    <ellipse cx="641.05" cy="397.39" rx="2.18" ry="0.65" fill="#E8C96A" opacity="0.088"/><line x1="654.58" y1="390.66" x2="654.23" y2="396.41" stroke="#C9A84C" stroke-width="1" opacity="0.124"/>
    <ellipse cx="654.23" cy="400.33" rx="3.11" ry="3.92" fill="url(#petalGrad)" opacity="0.176" filter="url(#softGlow)"/>
    <ellipse cx="654.23" cy="397.58" rx="2.18" ry="0.78" fill="#E8C96A" opacity="0.088"/><line x1="667.23" y1="390.66" x2="667.62" y2="396.41" stroke="#C9A84C" stroke-width="1" opacity="0.124"/>
    <ellipse cx="667.62" cy="400.55" rx="3.11" ry="4.14" fill="url(#petalGrad)" opacity="0.176" filter="url(#softGlow)"/>
    <ellipse cx="667.62" cy="397.65" rx="2.18" ry="0.83" fill="#E8C96A" opacity="0.088"/><line x1="679.87" y1="390.66" x2="680.77" y2="396.41" stroke="#C9A84C" stroke-width="1" opacity="0.124"/>
    <ellipse cx="680.77" cy="400.08" rx="3.11" ry="3.67" fill="url(#petalGrad)" opacity="0.176" filter="url(#softGlow)"/>
    <ellipse cx="680.77" cy="397.51" rx="2.18" ry="0.73" fill="#E8C96A" opacity="0.088"/><line x1="692.51" y1="390.66" x2="693.38" y2="396.41" stroke="#C9A84C" stroke-width="1" opacity="0.124"/>
    <ellipse cx="693.38" cy="399.44" rx="3.11" ry="3.04" fill="url(#petalGrad)" opacity="0.176" filter="url(#softGlow)"/>
    <ellipse cx="693.38" cy="397.32" rx="2.18" ry="0.61" fill="#E8C96A" opacity="0.088"/><line x1="705.16" y1="390.66" x2="705.46" y2="396.41" stroke="#C9A84C" stroke-width="1" opacity="0.124"/>
    <ellipse cx="705.46" cy="399.33" rx="3.11" ry="2.92" fill="url(#petalGrad)" opacity="0.176" filter="url(#softGlow)"/>
    <ellipse cx="705.46" cy="397.28" rx="2.18" ry="0.58" fill="#E8C96A" opacity="0.088"/>
<ellipse cx="594.85" cy="363.19" rx="4.97" ry="4.23" fill="none" stroke="#C9A84C" stroke-width="1.5" opacity="0.124"/>
      <ellipse cx="594.85" cy="363.19" rx="2.73" ry="2.49" fill="#C9A84C" opacity="0.071"/><ellipse cx="685.56" cy="363.19" rx="4.97" ry="4.23" fill="none" stroke="#C9A84C" stroke-width="1.5" opacity="0.124"/>
      <ellipse cx="685.56" cy="363.19" rx="2.73" ry="2.49" fill="#C9A84C" opacity="0.071"/>
<ellipse cx="639.60" cy="353.61" rx="15.91" ry="14.31" fill="#C9A84C" opacity="0.021" filter="url(#glow)"/>
    <ellipse cx="639.60" cy="353.61" rx="9.94" ry="8.94" fill="url(#centerGem)" opacity="0.176" filter="url(#glow)" stroke="#E8C96A" stroke-width="2"/>
    <ellipse cx="637.11" cy="350.93" rx="2.49" ry="1.79" fill="white" opacity="0.062"/>

</svg>